<svg width="207" height="209" viewBox="0 0 207 209" fill="none" xmlns="http://www.w3.org/2000/svg">
<path d="M194.149 147.936H113.038V202.825C140.075 195.896 194.149 182.065 194.149 182.174V147.936Z" fill="url(#paint0_linear)"/>
<path d="M13.5857 148.751H94.6963V203.64C67.6594 196.711 13.5857 182.88 13.5857 182.989V148.751Z" fill="url(#paint1_linear)"/>
<path d="M192.63 146.886L190.359 144.744L189.787 164.932L190.533 165.397L190.631 167.634L193.756 172.725L192.63 146.886Z" fill="url(#paint2_linear)"/>
<path d="M194.859 163.285C194.821 162.422 194.505 161.594 193.957 160.925L193.236 160.043L193.577 173.469C193.58 173.582 193.57 173.695 193.547 173.806C193.356 174.745 192.344 175.265 191.469 174.873L189.144 173.833L188.094 178.085C188.705 177.745 189.436 177.694 190.088 177.947L190.339 178.044C191.851 178.63 193.55 177.876 194.13 176.362L194.331 175.837C194.968 174.175 195.256 172.399 195.179 170.62L194.859 163.285Z" fill="url(#paint3_linear)"/>
<path d="M190.931 107.995C190.922 107.731 190.7 107.526 190.437 107.537C190.181 107.549 189.98 107.763 189.985 108.019L190.965 157.221L191.387 166.895L193.001 171.547L190.931 107.995Z" fill="black"/>
<path d="M191.556 108.457C191.547 108.174 191.31 107.954 191.028 107.966C190.753 107.978 190.538 108.207 190.543 108.482L191.439 157.655L191.861 167.329L193.576 171.976L191.556 108.457Z" fill="url(#paint4_linear)"/>
<path d="M14.3703 148.244L16.6413 146.103L17.213 166.291L16.4668 166.756L16.3693 168.992L13.2437 174.084L14.3703 148.244Z" fill="url(#paint5_linear)"/>
<path d="M12.141 164.644C12.1787 163.781 12.495 162.952 13.0425 162.284L13.7644 161.402L13.423 174.828C13.4201 174.941 13.43 175.054 13.4526 175.165C13.6439 176.104 14.6561 176.624 15.5309 176.232L17.8564 175.191L18.906 179.444C18.2949 179.104 17.5641 179.053 16.9119 179.306L16.6606 179.403C15.1494 179.989 13.4502 179.234 12.8704 177.721L12.6693 177.196C12.0323 175.534 11.7437 173.758 11.8212 171.979L12.141 164.644Z" fill="url(#paint6_linear)"/>
<path d="M16.0694 109.353C16.078 109.09 16.2997 108.885 16.5627 108.896C16.8193 108.908 17.0201 109.121 17.015 109.378L16.0351 158.58L15.6133 168.254L13.999 172.906L16.0694 109.353Z" fill="black"/>
<path d="M15.4437 109.815C15.4526 109.533 15.6904 109.313 15.9724 109.325C16.2472 109.337 16.4623 109.566 16.4572 109.841L15.561 159.014L15.1392 168.688L13.4243 173.335L15.4437 109.815Z" fill="url(#paint7_linear)"/>
<g filter="url(#filter0_i)">
<path d="M20.6892 182.893C20.728 182.339 20.307 181.859 19.7519 181.825L13.6693 181.458C13.0465 181.42 12.5417 181.956 12.6161 182.575L12.7151 183.399C12.7404 183.609 12.8318 183.806 12.9762 183.961L13.268 184.274C13.3396 184.351 13.4228 184.416 13.5147 184.467L14.0526 184.766C14.2011 184.848 14.368 184.891 14.5377 184.891L18.8356 184.891C19.0054 184.891 19.1723 184.848 19.3207 184.766L19.9222 184.432C19.9722 184.404 20.0197 184.372 20.0643 184.336L20.2794 184.163C20.4962 183.989 20.6304 183.732 20.6498 183.454L20.6892 182.893Z" fill="url(#paint8_linear)"/>
</g>
<g filter="url(#filter1_i)">
<path d="M21.1525 181.617C21.1994 181.054 20.771 180.564 20.2067 180.535L13.0485 180.172C12.4202 180.14 11.9188 180.689 12.0078 181.312L12.1037 181.983C12.1367 182.214 12.2498 182.427 12.4233 182.583L12.7492 182.878C12.823 182.944 12.9064 183 12.9966 183.042L13.684 183.363C13.8164 183.424 13.9607 183.456 14.1069 183.456L19.1269 183.456C19.273 183.456 19.4174 183.424 19.5498 183.363L20.3011 183.012C20.3491 182.99 20.3952 182.963 20.4391 182.934L20.6829 182.768C20.9333 182.599 21.0935 182.325 21.1186 182.024L21.1525 181.617Z" fill="url(#paint9_linear)"/>
</g>
<g filter="url(#filter2_i)">
<path d="M21.3984 180.744C21.3984 180.211 20.9796 179.771 20.4468 179.746L12.7163 179.371C12.0927 179.341 11.5942 179.884 11.6767 180.502L11.7646 181.161C11.8097 181.499 12.0239 181.791 12.3329 181.935L12.8614 182.182L13.6848 182.566C13.8172 182.628 13.9615 182.66 14.1077 182.66L19.1277 182.66C19.2738 182.66 19.4182 182.628 19.5506 182.566L20.374 182.182L20.8213 181.973C21.1734 181.809 21.3984 181.456 21.3984 181.067L21.3984 180.744Z" fill="url(#paint10_linear)"/>
</g>
<g filter="url(#filter3_i)">
<path d="M10.5614 142.997C16.4577 141.882 21.026 142.944 22.832 143.316L22.832 144.113L10.5614 144.432L10.5614 142.997Z" fill="url(#paint11_linear)"/>
</g>
<g filter="url(#filter4_d)">
<path d="M10.1626 148.335C10.2822 147.258 14.5997 149.382 16.4443 149.531L14.6495 179.893L12.1069 179.594C9.73469 178.289 10.008 168.279 10.1587 162.763L10.1626 162.619L10.1626 160.226C10.362 162.47 10.1626 160.226 10.1626 159.927C10.1626 154.283 9.76374 151.077 10.1626 148.335Z" fill="#C4C4C4"/>
</g>
<path d="M9.26267 146.963C15.5095 148.493 21.5333 147.813 23.7643 147.282C24.7842 152.382 24.0378 157.215 23.4004 159.075C17.791 160.987 11.5468 159.606 9.26267 158.597C8.89878 154.613 8.83771 149.938 9.26267 146.963Z" fill="url(#paint12_linear)"/>
<path d="M9.26328 160.349C15.8926 162.771 21.798 161.89 23.9227 160.987C24.1777 168.636 22.3838 177.082 21.3745 180.269C18.0599 181.926 13.5128 180.747 11.6537 179.95C9.48639 178.293 9.10392 166.033 9.26328 160.349Z" fill="url(#paint13_linear)"/>
<g filter="url(#filter5_i)">
<path d="M17.5742 153.338L17.5742 156.047L17.5742 160.35L17.2555 160.668L15.9806 160.668C15.8744 160.19 15.6619 159.202 15.6619 159.075L15.6619 156.047L15.6619 153.338C15.6619 152.81 16.09 152.382 16.6181 152.382C17.1461 152.382 17.5742 152.81 17.5742 153.338Z" fill="url(#paint14_linear)"/>
</g>
<g filter="url(#filter6_i)">
<path d="M20.7607 153.656L20.7607 156.365L20.7607 160.668L21.0795 160.987L22.3543 160.987C22.4606 160.509 22.673 159.521 22.673 159.393L22.673 156.365L22.673 153.656C22.673 153.128 22.245 152.7 21.7169 152.7C21.1888 152.7 20.7607 153.128 20.7607 153.656Z" fill="url(#paint15_linear)"/>
</g>
<g filter="url(#filter7_i)">
<path d="M10.5605 153.338L10.5605 156.047L10.5605 160.35L10.8793 160.668L12.1541 160.668C12.2604 160.19 12.4728 159.202 12.4728 159.075L12.4728 156.047L12.4728 153.338C12.4728 152.81 12.0448 152.382 11.5167 152.382C10.9886 152.382 10.5605 152.81 10.5605 153.338Z" fill="url(#paint16_linear)"/>
</g>
<g filter="url(#filter8_i)">
<path d="M9.22136 158.118C15.9143 160.509 21.3857 159.446 23.4043 158.756C24.0417 159.266 23.9886 160.668 23.8823 161.305C17.253 163.345 11.2929 161.305 9.22136 160.509L9.22136 158.118Z" fill="url(#paint17_linear)"/>
</g>
<g filter="url(#filter9_i)">
<path d="M22.5132 143.316C23.5331 143.061 23.6287 144.432 23.7881 145.388C17.0313 146.153 11.4112 145.388 9.44582 144.91C9.60518 143.157 10.2426 142.997 10.88 142.998C15.9795 143.635 19.4323 143.423 22.5132 143.316Z" fill="url(#paint18_linear)"/>
</g>
<g filter="url(#filter10_d)">
<path d="M18.5303 163.818C18.2753 163.308 18.1053 163.606 18.0522 163.818C18.0522 164.073 17.8397 173.167 17.7335 177.682C18.3709 176.407 18.5303 167.908 18.5303 163.818Z" fill="url(#paint19_linear)"/>
</g>
<g filter="url(#filter11_d)">
<path d="M22.025 163.847C21.7886 163.328 21.608 163.619 21.5473 163.83C21.5381 164.084 20.9984 173.165 20.7297 177.673C21.4126 176.422 21.8778 167.934 22.025 163.847Z" fill="url(#paint20_linear)"/>
</g>
<g filter="url(#filter12_d)">
<path d="M13.9033 163.5C14.1653 162.993 14.3312 163.293 14.3814 163.506C14.3779 163.761 14.465 172.857 14.509 177.374C13.8892 176.09 13.847 167.59 13.9033 163.5Z" fill="url(#paint21_linear)"/>
</g>
<g filter="url(#filter13_d)">
<path d="M10.3985 162.863C10.6604 162.356 10.8263 162.656 10.8765 162.869C10.873 163.124 11.1991 171.983 11.6772 176.605C11.0574 175.321 10.3421 166.952 10.3985 162.863Z" fill="url(#paint22_linear)"/>
</g>
<path d="M15.9785 144.573C15.9785 144.309 15.7645 144.095 15.5004 144.095C15.2364 144.095 15.0224 144.309 15.0224 144.573L15.0224 145.688L15.9785 145.688L15.9785 144.573Z" fill="#2D2D2D"/>
<path d="M22.431 144.518C22.3888 144.285 22.1643 144.133 21.9328 144.179C21.7198 144.222 21.5738 144.419 21.5954 144.635L21.7167 145.848L22.6729 145.848L22.431 144.518Z" fill="#373738"/>
<g filter="url(#filter14_i)">
<path d="M9.46422 144.591L9.28628 147.141C14.3857 148.67 21.1505 148.097 23.8065 147.619C24.0615 147.109 23.9127 145.706 23.8065 145.069C18.707 145.961 12.1202 145.122 9.46422 144.591Z" fill="url(#paint23_linear)"/>
</g>
<g filter="url(#filter15_i)">
<path d="M195.138 182.35C195.177 181.795 194.756 181.315 194.201 181.282L188.119 180.914C187.496 180.876 186.991 181.412 187.065 182.032L187.164 182.855C187.19 183.066 187.281 183.263 187.425 183.418L187.717 183.731C187.789 183.808 187.872 183.873 187.964 183.924L188.502 184.222C188.65 184.304 188.817 184.348 188.987 184.348L193.285 184.348C193.455 184.348 193.622 184.304 193.77 184.222L194.371 183.889C194.421 183.861 194.469 183.829 194.513 183.793L194.729 183.62C194.945 183.445 195.08 183.188 195.099 182.911L195.138 182.35Z" fill="url(#paint24_linear)"/>
</g>
<g filter="url(#filter16_i)">
<path d="M195.602 181.074C195.649 180.511 195.22 180.021 194.656 179.992L187.498 179.628C186.869 179.596 186.368 180.145 186.457 180.768L186.553 181.439C186.586 181.671 186.699 181.883 186.873 182.04L187.198 182.334C187.272 182.401 187.356 182.456 187.446 182.498L188.133 182.819C188.266 182.881 188.41 182.913 188.556 182.913L193.576 182.913C193.722 182.913 193.867 182.881 193.999 182.819L194.75 182.469C194.798 182.446 194.844 182.42 194.888 182.39L195.132 182.225C195.383 182.055 195.543 181.782 195.568 181.48L195.602 181.074Z" fill="url(#paint25_linear)"/>
</g>
<path d="M195.552 181.07C195.596 180.535 195.189 180.069 194.653 180.042L187.495 179.678C186.898 179.648 186.422 180.169 186.507 180.761L186.602 181.432C186.634 181.652 186.741 181.854 186.906 182.003L187.232 182.297C187.302 182.361 187.381 182.413 187.467 182.453L188.154 182.774C188.28 182.833 188.417 182.863 188.556 182.863L193.576 182.863C193.715 182.863 193.852 182.833 193.978 182.774L194.729 182.423L194.75 182.469L194.729 182.423C194.775 182.402 194.819 182.377 194.86 182.349L195.104 182.184C195.342 182.022 195.494 181.762 195.518 181.476L195.552 181.07Z" stroke="black" stroke-width="0.1"/>
<g filter="url(#filter17_i)">
<path d="M195.848 180.201C195.848 179.667 195.429 179.228 194.896 179.202L187.166 178.828C186.542 178.798 186.043 179.34 186.126 179.959L186.214 180.618C186.259 180.956 186.473 181.248 186.782 181.392L187.311 181.638L188.134 182.023C188.266 182.085 188.411 182.117 188.557 182.117L193.577 182.117C193.723 182.117 193.867 182.085 194 182.023L194.823 181.638L195.271 181.43C195.623 181.265 195.848 180.912 195.848 180.524L195.848 180.201Z" fill="url(#paint26_linear)"/>
</g>
<path d="M195.798 180.201C195.798 179.694 195.4 179.276 194.894 179.252L187.163 178.878C186.571 178.849 186.097 179.364 186.176 179.952L186.263 180.611C186.306 180.932 186.51 181.21 186.803 181.347L187.332 181.593L188.155 181.977C188.281 182.036 188.418 182.067 188.557 182.067L193.577 182.067C193.716 182.067 193.853 182.036 193.979 181.977L194.802 181.593L195.249 181.384C195.584 181.228 195.798 180.893 195.798 180.524L195.798 180.201Z" stroke="black" stroke-width="0.1"/>
<g filter="url(#filter18_i)">
<path d="M185.011 142.454C190.907 141.338 195.475 142.401 197.281 142.773L197.281 143.57L185.011 143.888L185.011 142.454Z" fill="url(#paint27_linear)"/>
</g>
<g filter="url(#filter19_d)">
<path d="M184.612 147.791C184.731 146.714 189.049 148.838 190.894 148.988L189.099 179.349L186.556 179.05C184.184 177.746 184.457 167.736 184.608 162.22L184.612 162.076L184.612 159.683C184.811 161.926 184.612 159.683 184.612 159.384C184.612 153.74 184.213 150.533 184.612 147.791Z" fill="#C4C4C4"/>
</g>
<path d="M183.712 146.419C189.959 147.949 195.982 147.269 198.214 146.738C199.233 151.838 198.487 156.671 197.85 158.531C192.24 160.443 185.996 159.062 183.712 158.053C183.348 154.069 183.287 149.394 183.712 146.419Z" fill="url(#paint28_linear)"/>
<path d="M183.712 159.806C190.342 162.228 196.247 161.346 198.372 160.443C198.627 168.092 196.833 176.538 195.824 179.725C192.509 181.383 187.962 180.204 186.103 179.407C183.936 177.749 183.553 165.489 183.712 159.806Z" fill="url(#paint29_linear)"/>
<g filter="url(#filter20_i)">
<path d="M192.023 152.795L192.023 155.504L192.023 159.806L191.705 160.125L190.43 160.125C190.324 159.647 190.111 158.659 190.111 158.531L190.111 155.504L190.111 152.795C190.111 152.266 190.539 151.838 191.067 151.838C191.595 151.838 192.023 152.266 192.023 152.795Z" fill="url(#paint30_linear)"/>
</g>
<g filter="url(#filter21_i)">
<path d="M195.21 153.113L195.21 155.822L195.21 160.125L195.529 160.443L196.804 160.443C196.91 159.965 197.122 158.977 197.122 158.85L197.122 155.822L197.122 153.113C197.122 152.585 196.694 152.157 196.166 152.157C195.638 152.157 195.21 152.585 195.21 153.113Z" fill="url(#paint31_linear)"/>
</g>
<g filter="url(#filter22_i)">
<path d="M185.011 152.795L185.011 155.504L185.011 159.806L185.329 160.125L186.604 160.125C186.711 159.647 186.923 158.659 186.923 158.531L186.923 155.504L186.923 152.795C186.923 152.266 186.495 151.838 185.967 151.838C185.439 151.838 185.011 152.266 185.011 152.795Z" fill="url(#paint32_linear)"/>
</g>
<g filter="url(#filter23_i)">
<path d="M183.671 157.575C190.364 159.965 195.835 158.903 197.853 158.212C198.491 158.722 198.438 160.124 198.332 160.762C191.702 162.802 185.742 160.762 183.671 159.965L183.671 157.575Z" fill="url(#paint33_linear)"/>
</g>
<g filter="url(#filter24_i)">
<path d="M196.962 142.773C197.982 142.518 198.078 143.888 198.237 144.844C191.481 145.609 185.86 144.844 183.895 144.366C184.054 142.613 184.692 142.454 185.329 142.454C190.429 143.091 193.882 142.879 196.962 142.773Z" fill="url(#paint34_linear)"/>
</g>
<g filter="url(#filter25_d)">
<path d="M192.979 163.275C192.725 162.765 192.555 163.062 192.501 163.275C192.501 163.53 192.289 172.624 192.183 177.139C192.82 175.864 192.979 167.365 192.979 163.275Z" fill="url(#paint35_linear)"/>
</g>
<g filter="url(#filter26_d)">
<path d="M196.474 163.303C196.238 162.785 196.057 163.076 195.996 163.286C195.987 163.541 195.448 172.621 195.179 177.13C195.862 175.879 196.327 167.391 196.474 163.303Z" fill="url(#paint36_linear)"/>
</g>
<g filter="url(#filter27_d)">
<path d="M188.353 162.956C188.615 162.45 188.78 162.75 188.831 162.963C188.827 163.218 188.914 172.314 188.958 176.83C188.338 175.547 188.296 167.046 188.353 162.956Z" fill="url(#paint37_linear)"/>
</g>
<g filter="url(#filter28_d)">
<path d="M184.848 162.319C185.11 161.813 185.276 162.113 185.326 162.326C185.322 162.581 185.648 171.44 186.126 176.061C185.507 174.778 184.791 166.409 184.848 162.319Z" fill="url(#paint38_linear)"/>
</g>
<path d="M190.428 144.029C190.428 143.765 190.214 143.551 189.95 143.551C189.686 143.551 189.472 143.765 189.472 144.029L189.472 145.145L190.428 145.145L190.428 144.029Z" fill="#2D2D2D"/>
<path d="M196.88 143.974C196.838 143.742 196.613 143.589 196.382 143.636C196.169 143.678 196.023 143.875 196.045 144.092L196.166 145.304L197.122 145.304L196.88 143.974Z" fill="#373738"/>
<g filter="url(#filter29_i)">
<path d="M183.913 144.048L183.736 146.598C188.835 148.127 195.6 147.554 198.256 147.076C198.511 146.566 198.362 145.163 198.256 144.526C193.156 145.418 186.569 144.579 183.913 144.048Z" fill="url(#paint39_linear)"/>
</g>
<path d="M105.626 6.16509C108.76 5.70409 110.923 6.07137 112.117 7.26694C113.311 8.4625 114.142 11.0948 114.61 15.1639L106.377 15.9298L105.626 6.16509Z" fill="#535353"/>
<path d="M105.626 6.16509C108.76 5.70409 110.923 6.07137 112.117 7.26694C113.311 8.4625 114.142 11.0948 114.61 15.1639L106.377 15.9298L105.626 6.16509Z" fill="url(#paint40_linear)"/>
<g filter="url(#filter30_f)">
<path d="M106.79 5.92491C106.752 5.48856 107.074 5.10388 107.511 5.0657C107.947 5.02753 108.332 5.35031 108.37 5.78666L108.804 10.7529C108.843 11.1892 108.52 11.5739 108.083 11.6121C107.647 11.6502 107.262 11.3275 107.224 10.8911L106.79 5.92491Z" fill="#313131"/>
</g>
<path d="M106.79 5.69785C106.752 5.26151 107.074 4.87683 107.511 4.83865C107.947 4.80048 108.332 5.12326 108.37 5.55961L108.804 10.5258C108.843 10.9622 108.52 11.3468 108.083 11.385C107.647 11.4232 107.262 11.1004 107.224 10.6641L106.79 5.69785Z" fill="#6D6872"/>
<path d="M106.79 5.69785C106.752 5.26151 107.074 4.87683 107.511 4.83865C107.947 4.80048 108.332 5.12326 108.37 5.55961L108.804 10.5258C108.843 10.9622 108.52 11.3468 108.083 11.385C107.647 11.4232 107.262 11.1004 107.224 10.6641L106.79 5.69785Z" fill="url(#paint41_linear)"/>
<path d="M105.245 22.5757L104.336 23.4451L108.142 66.8827L111.147 69.3718L113.099 69.3718L113.099 66.8827L105.245 22.5757Z" fill="#707070"/>
<path d="M105.245 22.5757L104.336 23.4451L108.142 66.8827L111.147 69.3718L113.099 69.3718L113.099 66.8827L105.245 22.5757Z" fill="url(#paint42_linear)"/>
<path fill-rule="evenodd" clip-rule="evenodd" d="M104.686 23.3506L104.322 23.3506L108.128 66.7882L111.134 69.2773L113.085 69.2773L109.171 66.2908L104.686 23.3506Z" fill="#161613"/>
<path d="M114.414 67.4779L111.107 66.982L110.623 71.1317L111.179 71.1158C111.531 71.1057 111.884 71.122 112.236 71.1644L112.327 71.1755C112.792 71.2315 113.252 71.3329 113.703 71.4782L114.146 71.6215L114.414 67.4779Z" fill="url(#paint43_linear)"/>
<path d="M114.659 65.2911L110.305 64.9594L110.023 69.8461L111.434 69.7284L112.526 69.7833C112.952 69.8047 113.38 69.8638 113.802 69.9598L114.659 70.1543L114.659 65.2911Z" fill="url(#paint44_linear)"/>
<path d="M110.108 75.2949L114.223 75.7203L114.58 70.8483L113.742 70.9027C113.41 70.9243 113.074 70.9224 112.738 70.8969L112.274 70.8617C111.828 70.8278 111.383 70.7526 110.944 70.637L110.198 70.4403L110.108 75.2949Z" fill="url(#paint45_linear)"/>
<path fill-rule="evenodd" clip-rule="evenodd" d="M111.822 13.9663L115.355 13.9663L124.772 65.2495L114.611 67.7705L109.835 64.4554L104.45 15.2769L111.822 13.9663Z" fill="url(#paint46_linear)"/>
<path opacity="0.4" d="M104.457 15.1636L104.437 15.1636C104.381 15.17 104.34 15.2149 104.336 15.2685L104.336 15.2889L109.727 64.5187L114.588 67.8926L124.799 65.3592C124.859 65.3441 124.896 65.2827 124.881 65.222C124.868 65.168 124.818 65.1327 124.764 65.1361L124.744 65.1393L114.633 67.6477L109.941 64.3913L104.562 15.2643C104.556 15.2159 104.521 15.178 104.477 15.1667L104.457 15.1636Z" fill="white"/>
<path fill-rule="evenodd" clip-rule="evenodd" d="M110.938 5.2882L114.168 38.2917L111.911 38.6501L112.518 49.0965L109.381 49.0965L108.144 38.6501L107.435 38.2917L104.206 5.75774C104.556 5.44471 104.857 5.2882 105.11 5.2882C105.363 5.2882 105.601 5.44471 105.826 5.75774L106.517 12.2474C107.129 12.7765 107.779 12.99 108.468 12.8877C109.157 12.7854 109.703 12.4301 110.107 11.8219L109.381 5.47247C109.692 5.05723 109.934 4.84961 110.107 4.84961C110.281 4.84961 110.557 4.9958 110.938 5.2882Z" fill="#929292"/>
<g filter="url(#filter31_f)">
<path fill-rule="evenodd" clip-rule="evenodd" d="M110.938 5.2882L114.168 38.2917L111.911 38.6501L112.518 49.0965L109.381 49.0965L108.144 38.6501L107.435 38.2917L104.206 5.75774C104.556 5.44471 104.857 5.2882 105.11 5.2882C105.363 5.2882 105.601 5.44471 105.826 5.75774L106.517 12.2474C107.129 12.7765 107.779 12.99 108.468 12.8877C109.157 12.7854 109.703 12.4301 110.107 11.8219L109.381 5.47247C109.692 5.05723 109.934 4.84961 110.107 4.84961C110.281 4.84961 110.557 4.9958 110.938 5.2882Z" fill="#2E2E2E"/>
</g>
<path fill-rule="evenodd" clip-rule="evenodd" d="M110.938 5.2882L114.168 38.2917L111.911 38.6501L112.518 49.0965L109.381 49.0965L108.144 38.6501L107.435 38.2917L104.206 5.75774C104.556 5.44471 104.857 5.2882 105.11 5.2882C105.363 5.2882 105.601 5.44471 105.826 5.75774L106.517 12.2474C107.129 12.7765 107.779 12.99 108.468 12.8877C109.157 12.7854 109.703 12.4301 110.107 11.8219L109.381 5.47247C109.692 5.05723 109.934 4.84961 110.107 4.84961C110.281 4.84961 110.557 4.9958 110.938 5.2882Z" fill="#2E2E2E"/>
<path fill-rule="evenodd" clip-rule="evenodd" d="M110.938 5.2882L114.168 38.2917L111.911 38.6501L112.518 49.0965L109.381 49.0965L108.144 38.6501L107.435 38.2917L104.206 5.75774C104.556 5.44471 104.857 5.2882 105.11 5.2882C105.363 5.2882 105.601 5.44471 105.826 5.75774L106.517 12.2474C107.129 12.7765 107.779 12.99 108.468 12.8877C109.157 12.7854 109.703 12.4301 110.107 11.8219L109.381 5.47247C109.692 5.05723 109.934 4.84961 110.107 4.84961C110.281 4.84961 110.557 4.9958 110.938 5.2882Z" fill="url(#paint47_linear)"/>
<path fill-rule="evenodd" clip-rule="evenodd" d="M111.103 37.7217L111.791 38.4768L112.527 49.2653L109.185 49.2653L108.142 38.6507L108.628 37.7217L111.103 37.7217Z" fill="#343434"/>
<path fill-rule="evenodd" clip-rule="evenodd" d="M112.117 48.8076L112.527 49.2651L109.185 49.2651L109.577 48.8076L112.117 48.8076Z" fill="#545B53"/>
<path d="M111.105 37.7212L112.119 48.8073L109.58 48.8073L108.63 37.7212L111.105 37.7212Z" fill="#9D9E99"/>
<path d="M111.105 37.7212L112.119 48.8073L109.58 48.8073L108.63 37.7212L111.105 37.7212Z" fill="url(#paint48_linear)"/>
<path d="M110.935 5.28884C110.935 5.28884 111.656 15.6962 113.098 36.5109C113.11 36.6841 112.698 37.0327 112.49 37.0327C110.612 37.0327 109.343 37.0327 108.681 37.0327C108.321 37.0327 108.118 36.8492 108.072 36.4824C107.871 34.8831 106.582 24.6418 104.204 5.75838C104.609 5.44535 104.91 5.28884 105.107 5.28884C105.305 5.28884 105.544 5.44535 105.823 5.75838L106.416 11.699C106.93 12.2915 107.515 12.5878 108.173 12.5878C108.831 12.5878 109.389 12.2099 109.845 11.4542L109.358 5.60197C109.623 5.12964 109.828 4.87906 109.973 4.85025C110.499 4.74583 110.935 5.28884 110.935 5.28884Z" fill="#6D6872"/>
<path d="M110.935 5.28884C110.935 5.28884 111.656 15.6962 113.098 36.5109C113.11 36.6841 112.698 37.0327 112.49 37.0327C110.612 37.0327 109.343 37.0327 108.681 37.0327C108.321 37.0327 108.118 36.8492 108.072 36.4824C107.871 34.8831 106.582 24.6418 104.204 5.75838C104.609 5.44535 104.91 5.28884 105.107 5.28884C105.305 5.28884 105.544 5.44535 105.823 5.75838L106.416 11.699C106.93 12.2915 107.515 12.5878 108.173 12.5878C108.831 12.5878 109.389 12.2099 109.845 11.4542L109.358 5.60197C109.623 5.12964 109.828 4.87906 109.973 4.85025C110.499 4.74583 110.935 5.28884 110.935 5.28884Z" fill="url(#paint49_linear)"/>
<path opacity="0.2" fill-rule="evenodd" clip-rule="evenodd" d="M126.254 72.5465L134.857 117.205L131.996 200.251L128.894 200.251L128.186 198.819L116.785 83.75L105.628 74.8622L104.717 67.8926L115.831 75.5877L126.254 72.5465Z" fill="url(#paint50_linear)" stroke="#052773"/>
<path fill-rule="evenodd" clip-rule="evenodd" d="M104.717 67.8926L104.038 69.3718L104.717 75.7428L106.859 77.4246L108.137 84.6055L108.833 85.148L109.894 91.9003L110.538 92.7677L111.543 98.7846L112.241 99.4903L112.915 104.881L119.787 109.983L117.63 82.0512L104.717 67.8926Z" fill="#050505"/>
<path d="M126.254 72.5465L134.857 117.205L131.996 200.251L128.894 200.251L128.186 198.819L116.785 83.75L105.628 74.8622L104.717 67.8926L115.831 75.5877L126.254 72.5465Z" fill="url(#paint51_linear)"/>
<path d="M126.254 72.5465L134.857 117.205L131.996 200.251L128.894 200.251L128.186 198.819L116.785 83.75L105.628 74.8622L104.717 67.8926L115.831 75.5877L126.254 72.5465Z" fill="url(#paint52_linear)"/>
<path fill-rule="evenodd" clip-rule="evenodd" d="M125.945 83.7346L133.029 118.279L132.235 137.683L124.878 137.104L119.787 85.7408C120.14 85.1906 121.17 84.7167 122.878 84.3189C124.586 83.9211 125.608 83.7263 125.945 83.7346Z" fill="#232F33"/>
<path d="M125.015 85.7407L131.656 118.652L130.91 136.319L127.164 136.319L123.897 114.859L121.138 86.4891L125.015 85.7407Z" fill="#B7B7B7"/>
<path d="M125.015 85.7407L131.656 118.652L130.91 136.319L127.164 136.319L123.897 114.859L121.138 86.4891L125.015 85.7407Z" fill="url(#paint53_linear)"/>
<path d="M125.015 85.7407L131.656 118.652L130.91 136.319L127.164 136.319L123.897 114.859L121.138 86.4891L125.015 85.7407Z" fill="url(#paint54_linear)"/>
<path d="M117.044 90.3566L109.473 84.6776L108.414 77.7144C110.817 79.5372 112.619 80.9272 113.819 81.8843C115.018 82.8414 115.877 83.5745 116.397 84.0836L117.044 90.3566Z" fill="#B2B5AC"/>
<path d="M117.044 90.3566L109.473 84.6776L108.414 77.7144C110.817 79.5372 112.619 80.9272 113.819 81.8843C115.018 82.8414 115.877 83.5745 116.397 84.0836L117.044 90.3566Z" fill="url(#paint55_linear)"/>
<path d="M117.629 97.1498L111.303 92.364L110.374 85.895L117.043 91.035L117.629 97.1498Z" fill="#B2B5AC"/>
<path d="M117.629 97.1498L111.303 92.364L110.374 85.895L117.043 91.035L117.629 97.1498Z" fill="url(#paint56_linear)"/>
<path d="M118.324 103.386L112.729 99.2296L111.846 93.2476L117.864 97.8407L118.324 103.386Z" fill="#B2B5AC"/>
<path d="M118.324 103.386L112.729 99.2296L111.846 93.2476L117.864 97.8407L118.324 103.386Z" fill="url(#paint57_linear)"/>
<path d="M118.821 108.909L114.222 105.326L113.234 100.014L118.323 103.834L118.821 108.909Z" fill="#B2B5AC"/>
<path d="M118.821 108.909L114.222 105.326L113.234 100.014L118.323 103.834L118.821 108.909Z" fill="url(#paint58_linear)"/>
<path fill-rule="evenodd" clip-rule="evenodd" d="M123.411 116.08L124.383 146.444L130.061 194.109L134.183 194.109L133.076 166.674L129.292 146.247L128.131 136.318L126.517 136.318L123.411 116.08Z" fill="#14171B" stroke="#020838"/>
<path fill-rule="evenodd" clip-rule="evenodd" d="M134.183 194.05C134.301 193.26 133.824 186.104 132.752 172.582L128.65 145.243L124.447 114.927C124.361 117.608 124.361 121.225 124.447 125.776C124.532 130.328 124.728 137.152 125.035 146.248L131.427 172.582C133.146 187.685 134.065 194.841 134.183 194.05Z" fill="url(#paint59_linear)"/>
<path d="M131.973 171.889L137.156 180.044L137.784 191.817L134.183 192.476L129.315 192.203C128.526 184.635 128.131 180.717 128.131 180.447C128.131 180.178 129.412 177.326 131.973 171.889Z" fill="#595D59"/>
<path d="M131.973 171.889L137.156 180.044L137.784 191.817L134.183 192.476L129.315 192.203C128.526 184.635 128.131 180.717 128.131 180.447C128.131 180.178 129.412 177.326 131.973 171.889Z" fill="url(#paint60_linear)"/>
<path d="M131.973 171.889L137.156 180.044L137.784 191.817L134.183 192.476L129.315 192.203C128.526 184.635 128.131 180.717 128.131 180.447C128.131 180.178 129.412 177.326 131.973 171.889Z" fill="url(#paint61_linear)"/>
<g filter="url(#filter32_f)">
<path fill-rule="evenodd" clip-rule="evenodd" d="M134.183 194.05C134.301 193.259 133.824 186.103 132.752 172.581C132.596 172.12 132.336 171.889 131.973 171.889C131.609 171.889 131.427 172.12 131.427 172.581C133.146 187.684 134.065 194.84 134.183 194.05Z" fill="#12121D"/>
</g>
<path fill-rule="evenodd" clip-rule="evenodd" d="M134.183 194.05C134.301 193.259 133.824 186.103 132.752 172.581C132.596 172.12 132.336 171.889 131.973 171.889C131.609 171.889 131.427 172.12 131.427 172.581C133.146 187.684 134.065 194.84 134.183 194.05Z" fill="url(#paint62_linear)"/>
<g filter="url(#filter33_f)">
<path fill-rule="evenodd" clip-rule="evenodd" d="M128.65 145.243L124.447 114.927C124.362 117.608 124.362 121.225 124.447 125.776C124.532 130.328 124.728 137.152 125.035 146.248C125.035 145.19 125.529 144.523 126.517 144.249C127.505 143.974 128.216 144.305 128.65 145.243Z" fill="#060606"/>
</g>
<path fill-rule="evenodd" clip-rule="evenodd" d="M128.65 145.243L124.447 114.927C124.362 117.608 124.362 121.225 124.447 125.776C124.532 130.328 124.728 137.152 125.035 146.248C125.035 145.19 125.529 144.523 126.517 144.249C127.505 143.974 128.216 144.305 128.65 145.243Z" fill="url(#paint63_linear)"/>
<path d="M102.414 6.17299C99.2629 5.70945 97.0873 6.07875 95.8871 7.28091C94.6868 8.48307 93.8511 11.1299 93.3799 15.2214L101.659 15.9916L102.414 6.17299Z" fill="#535353"/>
<path d="M102.414 6.17299C99.2629 5.70945 97.0873 6.07875 95.8871 7.28091C94.6868 8.48307 93.8511 11.1299 93.3799 15.2214L101.659 15.9916L102.414 6.17299Z" fill="url(#paint64_linear)"/>
<g filter="url(#filter34_f)">
<path d="M101.243 5.931C101.281 5.49225 100.957 5.10545 100.518 5.06706C100.079 5.02868 99.6925 5.35324 99.6541 5.79199L99.2172 10.7856C99.1789 11.2243 99.5034 11.6111 99.9422 11.6495C100.381 11.6879 100.768 11.3634 100.806 10.9246L101.243 5.931Z" fill="#313131"/>
</g>
<path d="M101.243 5.70297C101.281 5.26422 100.957 4.87742 100.518 4.83904C100.079 4.80065 99.6925 5.12521 99.6541 5.56397L99.2172 10.5576C99.1789 10.9963 99.5034 11.3831 99.9422 11.4215C100.381 11.4599 100.768 11.1353 100.806 10.6966L101.243 5.70297Z" fill="#6D6872"/>
<path d="M101.243 5.70297C101.281 5.26422 100.957 4.87742 100.518 4.83904C100.079 4.80065 99.6925 5.12521 99.6541 5.56397L99.2172 10.5576C99.1789 10.9963 99.5034 11.3831 99.9422 11.4215C100.381 11.4599 100.768 11.1353 100.806 10.6966L101.243 5.70297Z" fill="url(#paint65_linear)"/>
<path d="M102.795 22.6743L103.71 23.5485L99.8828 67.2257L96.8604 69.7285L94.8984 69.7285L94.8984 67.2257L102.795 22.6743Z" fill="#707070"/>
<path d="M102.795 22.6743L103.71 23.5485L99.8828 67.2257L96.8604 69.7285L94.8984 69.7285L94.8984 67.2257L102.795 22.6743Z" fill="url(#paint66_linear)"/>
<path fill-rule="evenodd" clip-rule="evenodd" d="M103.358 23.4536L103.724 23.4536L99.8975 67.1308L96.875 69.6336L94.9131 69.6336L98.8485 66.6307L103.358 23.4536Z" fill="#161613"/>
<path d="M93.5769 67.8235L96.9017 67.3248L97.389 71.4974L96.8264 71.4813C96.4753 71.4712 96.1223 71.4875 95.7703 71.5299L95.6712 71.5419C95.2067 71.5979 94.7461 71.6993 94.296 71.8446L93.8462 71.9899L93.5769 67.8235Z" fill="url(#paint67_linear)"/>
<path d="M93.3306 65.625L97.7083 65.2914L97.9924 70.205L96.5737 70.0867L95.4722 70.1421C95.0454 70.1635 94.6181 70.2226 94.1954 70.3186L93.331 70.5149L93.3306 65.625Z" fill="url(#paint68_linear)"/>
<path d="M97.907 75.6837L93.7697 76.1114L93.4103 71.2126L94.2558 71.2675C94.5883 71.2891 94.9239 71.2871 95.26 71.2616L95.7327 71.2257C96.1788 71.1919 96.624 71.1166 97.0625 71.0011L97.8166 70.8023L97.907 75.6837Z" fill="url(#paint69_linear)"/>
<path fill-rule="evenodd" clip-rule="evenodd" d="M96.1847 14.0171L92.6325 14.0171L83.1631 65.5831L93.3803 68.1181L98.1829 64.7846L103.597 15.3349L96.1847 14.0171Z" fill="url(#paint70_linear)"/>
<path opacity="0.4" d="M103.588 15.2212L103.609 15.2212C103.664 15.2277 103.706 15.2728 103.71 15.3267L103.709 15.3472L98.2892 64.8485L93.4016 68.241L83.1344 65.6936C83.0733 65.6785 83.0361 65.6167 83.0512 65.5556C83.0647 65.5014 83.115 65.4659 83.1689 65.4694L83.1892 65.4725L93.3561 67.9948L98.0739 64.7204L103.483 15.3224C103.488 15.2738 103.523 15.2357 103.568 15.2244L103.588 15.2212Z" fill="white"/>
<path fill-rule="evenodd" clip-rule="evenodd" d="M97.0734 5.2911L93.8252 38.4766L96.0944 38.837L95.4843 49.3411L98.6383 49.3411L99.8824 38.837L100.595 38.4766L103.842 5.76323C103.49 5.44848 103.187 5.2911 102.933 5.2911C102.679 5.2911 102.439 5.44848 102.213 5.76323L101.519 12.2886C100.903 12.8207 100.249 13.0354 99.5567 12.9325C98.8642 12.8296 98.3148 12.4724 97.9082 11.8608L98.6383 5.47639C98.3258 5.05886 98.0825 4.8501 97.9082 4.8501C97.7339 4.8501 97.4557 4.9971 97.0734 5.2911Z" fill="#929292"/>
<g filter="url(#filter35_f)">
<path fill-rule="evenodd" clip-rule="evenodd" d="M97.0734 5.2911L93.8252 38.4766L96.0944 38.837L95.4843 49.3411L98.6383 49.3411L99.8824 38.837L100.595 38.4766L103.842 5.76323C103.49 5.44848 103.187 5.2911 102.933 5.2911C102.679 5.2911 102.439 5.44848 102.213 5.76323L101.519 12.2886C100.903 12.8207 100.249 13.0354 99.5567 12.9325C98.8642 12.8296 98.3148 12.4724 97.9082 11.8608L98.6383 5.47639C98.3258 5.05886 98.0825 4.8501 97.9082 4.8501C97.7339 4.8501 97.4557 4.9971 97.0734 5.2911Z" fill="#2E2E2E"/>
</g>
<path fill-rule="evenodd" clip-rule="evenodd" d="M97.0734 5.2911L93.8252 38.4766L96.0944 38.837L95.4843 49.3411L98.6383 49.3411L99.8824 38.837L100.595 38.4766L103.842 5.76323C103.49 5.44848 103.187 5.2911 102.933 5.2911C102.679 5.2911 102.439 5.44848 102.213 5.76323L101.519 12.2886C100.903 12.8207 100.249 13.0354 99.5567 12.9325C98.8642 12.8296 98.3148 12.4724 97.9082 11.8608L98.6383 5.47639C98.3258 5.05886 98.0825 4.8501 97.9082 4.8501C97.7339 4.8501 97.4557 4.9971 97.0734 5.2911Z" fill="#2E2E2E"/>
<path fill-rule="evenodd" clip-rule="evenodd" d="M97.0734 5.2911L93.8252 38.4766L96.0944 38.837L95.4843 49.3411L98.6383 49.3411L99.8824 38.837L100.595 38.4766L103.842 5.76323C103.49 5.44848 103.187 5.2911 102.933 5.2911C102.679 5.2911 102.439 5.44848 102.213 5.76323L101.519 12.2886C100.903 12.8207 100.249 13.0354 99.5567 12.9325C98.8642 12.8296 98.3148 12.4724 97.9082 11.8608L98.6383 5.47639C98.3258 5.05886 98.0825 4.8501 97.9082 4.8501C97.7339 4.8501 97.4557 4.9971 97.0734 5.2911Z" fill="url(#paint71_linear)"/>
<path fill-rule="evenodd" clip-rule="evenodd" d="M96.9058 37.9033L96.2136 38.6626L95.4736 49.5106L98.8345 49.5106L99.8834 38.8375L99.3947 37.9033L96.9058 37.9033Z" fill="#343434"/>
<path fill-rule="evenodd" clip-rule="evenodd" d="M95.8866 49.0503L95.4736 49.5103L98.8345 49.5103L98.4401 49.0503L95.8866 49.0503Z" fill="#545B53"/>
<path d="M96.905 37.9028L95.8857 49.0501L98.4393 49.0501L99.3939 37.9028L96.905 37.9028Z" fill="#9D9E99"/>
<path d="M96.905 37.9028L95.8857 49.0501L98.4393 49.0501L99.3939 37.9028L96.905 37.9028Z" fill="url(#paint72_linear)"/>
<path d="M97.0739 5.29182C97.0739 5.29182 96.3488 15.7566 94.8987 36.686C94.8866 36.8602 95.3017 37.2107 95.5102 37.2107C97.3985 37.2107 98.6751 37.2107 99.3403 37.2107C99.702 37.2107 99.9061 37.0263 99.9525 36.6574C100.155 35.0493 101.451 24.7515 103.842 5.76395C103.435 5.4492 103.132 5.29182 102.934 5.29182C102.735 5.29182 102.495 5.4492 102.214 5.76395L101.618 11.7373C101.101 12.3331 100.512 12.631 99.8508 12.631C99.1893 12.631 98.629 12.2511 98.1701 11.4911L98.6598 5.60667C98.3936 5.13174 98.1875 4.87979 98.0416 4.85081C97.5127 4.74582 97.0739 5.29182 97.0739 5.29182Z" fill="#6D6872"/>
<path d="M97.0739 5.29182C97.0739 5.29182 96.3488 15.7566 94.8987 36.686C94.8866 36.8602 95.3017 37.2107 95.5102 37.2107C97.3985 37.2107 98.6751 37.2107 99.3403 37.2107C99.702 37.2107 99.9061 37.0263 99.9525 36.6574C100.155 35.0493 101.451 24.7515 103.842 5.76395C103.435 5.4492 103.132 5.29182 102.934 5.29182C102.735 5.29182 102.495 5.4492 102.214 5.76395L101.618 11.7373C101.101 12.3331 100.512 12.631 99.8508 12.631C99.1893 12.631 98.629 12.2511 98.1701 11.4911L98.6598 5.60667C98.3936 5.13174 98.1875 4.87979 98.0416 4.85081C97.5127 4.74582 97.0739 5.29182 97.0739 5.29182Z" fill="url(#paint73_linear)"/>
<path opacity="0.2" fill-rule="evenodd" clip-rule="evenodd" d="M81.671 72.9203L73.0205 117.825L75.8978 201.329L79.0171 201.329L79.7286 199.889L91.1926 84.1856L102.412 75.2488L103.327 68.2407L92.152 75.9783L81.671 72.9203Z" fill="url(#paint74_linear)" stroke="#052773"/>
<path fill-rule="evenodd" clip-rule="evenodd" d="M103.327 68.2407L104.009 69.7281L103.327 76.1343L101.173 77.8253L99.8879 85.0458L99.1885 85.5914L98.1214 92.3808L97.4736 93.253L96.4629 99.3031L95.762 100.013L95.0837 105.433L88.1738 110.564L90.3431 82.4774L103.327 68.2407Z" fill="#050505"/>
<path d="M81.671 72.9203L73.0205 117.825L75.8978 201.329L79.0171 201.329L79.7286 199.889L91.1926 84.1856L102.412 75.2488L103.327 68.2407L92.152 75.9783L81.671 72.9203Z" fill="url(#paint75_linear)"/>
<path d="M81.671 72.9203L73.0205 117.825L75.8978 201.329L79.0171 201.329L79.7286 199.889L91.1926 84.1856L102.412 75.2488L103.327 68.2407L92.152 75.9783L81.671 72.9203Z" fill="url(#paint76_linear)"/>
<path fill-rule="evenodd" clip-rule="evenodd" d="M81.9817 84.1702L74.8584 118.905L75.6575 138.416L83.0549 137.834L88.1735 86.1874C87.8192 85.6342 86.7833 85.1576 85.0659 84.7576C83.3485 84.3577 82.3204 84.1618 81.9817 84.1702Z" fill="#232F33"/>
<path d="M82.9175 86.1875L76.2393 119.28L76.9897 137.045L80.7564 137.045L84.041 115.466L86.8156 86.94L82.9175 86.1875Z" fill="#B7B7B7"/>
<path d="M82.9175 86.1875L76.2393 119.28L76.9897 137.045L80.7564 137.045L84.041 115.466L86.8156 86.94L82.9175 86.1875Z" fill="url(#paint77_linear)"/>
<path d="M82.9175 86.1875L76.2393 119.28L76.9897 137.045L80.7564 137.045L84.041 115.466L86.8156 86.94L82.9175 86.1875Z" fill="url(#paint78_linear)"/>
<path d="M90.9326 90.8287L98.5456 85.1183L99.6102 78.1167C97.1935 79.9496 95.382 81.3472 94.1758 82.3096C92.9696 83.272 92.1056 84.0092 91.5836 84.5211L90.9326 90.8287Z" fill="#B2B5AC"/>
<path d="M90.9326 90.8287L98.5456 85.1183L99.6102 78.1167C97.1935 79.9496 95.382 81.3472 94.1758 82.3096C92.9696 83.272 92.1056 84.0092 91.5836 84.5211L90.9326 90.8287Z" fill="url(#paint79_linear)"/>
<path d="M90.3447 97.6591L96.7059 92.847L97.6392 86.3423L90.9335 91.5106L90.3447 97.6591Z" fill="#B2B5AC"/>
<path d="M90.3447 97.6591L96.7059 92.847L97.6392 86.3423L90.9335 91.5106L90.3447 97.6591Z" fill="url(#paint80_linear)"/>
<path d="M89.6455 103.93L95.2716 99.7509L96.1596 93.7358L90.1086 98.3543L89.6455 103.93Z" fill="#B2B5AC"/>
<path d="M89.6455 103.93L95.2716 99.7509L96.1596 93.7358L90.1086 98.3543L89.6455 103.93Z" fill="url(#paint81_linear)"/>
<path d="M89.1445 109.483L93.7688 105.881L94.7629 100.54L89.6456 104.38L89.1445 109.483Z" fill="#B2B5AC"/>
<path d="M89.1445 109.483L93.7688 105.881L94.7629 100.54L89.6456 104.38L89.1445 109.483Z" fill="url(#paint82_linear)"/>
<path fill-rule="evenodd" clip-rule="evenodd" d="M84.5321 116.694L83.555 147.226L77.8452 195.153L73.7012 195.153L74.8139 167.567L78.6193 147.028L79.7864 137.044L81.4095 137.044L84.5321 116.694Z" fill="#14171B" stroke="#020838"/>
<path fill-rule="evenodd" clip-rule="evenodd" d="M73.6983 195.094C73.5796 194.299 74.059 187.104 75.1365 173.508L79.2612 146.017L83.4877 115.535C83.5736 118.231 83.5736 121.867 83.4877 126.444C83.4018 131.02 83.2048 137.882 82.8967 147.028L76.4688 173.508C74.7406 188.693 73.8171 195.889 73.6983 195.094Z" fill="url(#paint83_linear)"/>
<path d="M75.9212 172.811L70.7101 181.011L70.0781 192.848L73.6991 193.511L78.5938 193.237C79.3875 185.627 79.7843 181.687 79.7843 181.417C79.7843 181.146 78.4966 178.277 75.9212 172.811Z" fill="#595D59"/>
<path d="M75.9212 172.811L70.7101 181.011L70.0781 192.848L73.6991 193.511L78.5938 193.237C79.3875 185.627 79.7843 181.687 79.7843 181.417C79.7843 181.146 78.4966 178.277 75.9212 172.811Z" fill="url(#paint84_linear)"/>
<path d="M75.9212 172.811L70.7101 181.011L70.0781 192.848L73.6991 193.511L78.5938 193.237C79.3875 185.627 79.7843 181.687 79.7843 181.417C79.7843 181.146 78.4966 178.277 75.9212 172.811Z" fill="url(#paint85_linear)"/>
<g filter="url(#filter36_f)">
<path fill-rule="evenodd" clip-rule="evenodd" d="M73.6983 195.094C73.5796 194.299 74.059 187.103 75.1365 173.507C75.2934 173.043 75.5547 172.811 75.9204 172.811C76.286 172.811 76.4688 173.043 76.4688 173.507C74.7406 188.693 73.8171 195.888 73.6983 195.094Z" fill="#12121D"/>
</g>
<path fill-rule="evenodd" clip-rule="evenodd" d="M73.6983 195.094C73.5796 194.299 74.059 187.103 75.1365 173.507C75.2934 173.043 75.5547 172.811 75.9204 172.811C76.286 172.811 76.4688 173.043 76.4688 173.507C74.7406 188.693 73.8171 195.888 73.6983 195.094Z" fill="url(#paint86_linear)"/>
<g filter="url(#filter37_f)">
<path fill-rule="evenodd" clip-rule="evenodd" d="M79.2617 146.017L83.4883 115.535C83.5742 118.231 83.5742 121.867 83.4883 126.444C83.4024 131.02 83.2054 137.882 82.8972 147.028C82.8972 145.964 82.4005 145.294 81.4072 145.018C80.4139 144.742 79.6987 145.075 79.2617 146.017Z" fill="#060606"/>
</g>
<path fill-rule="evenodd" clip-rule="evenodd" d="M79.2617 146.017L83.4883 115.535C83.5742 118.231 83.5742 121.867 83.4883 126.444C83.4024 131.02 83.2054 137.882 82.8972 147.028C82.8972 145.964 82.4005 145.294 81.4072 145.018C80.4139 144.742 79.6987 145.075 79.2617 146.017Z" fill="url(#paint87_linear)"/>
<path fill-rule="evenodd" clip-rule="evenodd" d="M94.6318 200.635L97.117 207.748L101.15 208.804L106.58 208.804L110.823 207.748L113.233 200.635L94.6318 200.635Z" fill="#191919"/>
<path d="M99.6074 203.576L101.151 208.803L106.581 208.803L108.289 203.576L99.6074 203.576Z" fill="#4A4A4A"/>
<path d="M99.6074 203.576L101.151 208.803L106.581 208.803L108.289 203.576L99.6074 203.576Z" fill="url(#paint88_linear)"/>
<path fill-rule="evenodd" clip-rule="evenodd" d="M98.2236 90.7495L96.3524 94.8574L91.576 99.432L88.1357 127.251L88.1357 160.313L93.1796 201.263L99.6066 203.577L108.364 203.577L114.63 201.263L119.708 160.313L119.708 127.251L116.6 99.432L111.839 94.8574L109.905 90.7495L98.2236 90.7495Z" fill="#0051D0"/>
<path fill-rule="evenodd" clip-rule="evenodd" d="M98.2236 90.7495L96.3524 94.8574L91.576 99.432L88.1357 127.251L88.1357 160.313L93.1796 201.263L99.6066 203.577L108.364 203.577L114.63 201.263L119.708 160.313L119.708 127.251L116.6 99.432L111.839 94.8574L109.905 90.7495L98.2236 90.7495Z" fill="url(#paint89_linear)"/>
<path fill-rule="evenodd" clip-rule="evenodd" d="M98.2236 90.7495L96.3524 94.8574L91.576 99.432L88.1357 127.251L88.1357 160.313L93.1796 201.263L99.6066 203.577L108.364 203.577L114.63 201.263L119.708 160.313L119.708 127.251L116.6 99.432L111.839 94.8574L109.905 90.7495L98.2236 90.7495Z" fill="url(#paint90_linear)"/>
<path fill-rule="evenodd" clip-rule="evenodd" d="M113.688 100.905L117.507 119.424L115.598 102.862L113.688 100.905Z" fill="#828282"/>
<path fill-rule="evenodd" clip-rule="evenodd" d="M94.0938 100.905L90.2755 119.424L92.1846 102.862L94.0938 100.905Z" fill="#828282"/>
<path fill-rule="evenodd" clip-rule="evenodd" d="M98.8192 108.711L98.2234 143.927L93.7598 145.79L93.7598 128.203L98.8192 108.711Z" fill="#55525D"/>
<path fill-rule="evenodd" clip-rule="evenodd" d="M94.6318 127.25L97.5143 115.589L98.0731 118.963L98.0731 134.565L97.0383 136.851L97.0383 142.156C97.0383 143.221 96.6521 143.753 95.8797 143.753C95.1074 143.753 94.6914 143.221 94.6318 142.156L94.6318 127.25Z" fill="#303236"/>
<g filter="url(#filter38_f)">
<path fill-rule="evenodd" clip-rule="evenodd" d="M98.2234 144.563L93.7598 146.458L93.7598 128.566L98.8192 108.738L98.9762 108.634C100.498 107.648 102.105 107.155 103.8 107.155C105.552 107.155 107.389 107.682 109.309 108.738L114.369 128.566L114.369 146.458L109.905 144.563L98.2234 144.563Z" fill="#080808"/>
</g>
<path fill-rule="evenodd" clip-rule="evenodd" d="M98.8192 108.711L98.2234 143.927L93.7598 145.79L93.7598 128.203L98.8192 108.711Z" fill="#55525D"/>
<path fill-rule="evenodd" clip-rule="evenodd" d="M94.6318 127.25L97.5143 115.589L98.0731 118.963L98.0731 134.565L97.0383 136.851L97.0383 142.156C97.0383 143.221 96.6521 143.753 95.8797 143.753C95.1074 143.753 94.6914 143.221 94.6318 142.156L94.6318 127.25Z" fill="#303236"/>
<path fill-rule="evenodd" clip-rule="evenodd" d="M109.312 108.711L109.907 143.927L114.371 145.79L114.371 128.203L109.312 108.711Z" fill="#55525D"/>
<path fill-rule="evenodd" clip-rule="evenodd" d="M113.624 127.25L110.742 115.589L110.183 118.963L110.183 134.565L111.218 136.851L111.218 142.156C111.218 143.221 111.604 143.753 112.376 143.753C113.148 143.753 113.564 143.221 113.624 142.156L113.624 127.25Z" fill="#303236"/>
<path fill-rule="evenodd" clip-rule="evenodd" d="M98.2246 143.927L109.906 143.927L109.311 108.711C107.39 107.673 105.553 107.155 103.801 107.155C102.048 107.155 100.388 107.673 98.8203 108.711L98.2246 143.927Z" fill="#828282"/>
<path fill-rule="evenodd" clip-rule="evenodd" d="M100.293 108.482C101.854 108.394 103.029 108.349 103.817 108.349C104.605 108.349 105.78 108.394 107.341 108.482C106.166 108.179 104.992 108.028 103.817 108.028C102.642 108.028 101.468 108.179 100.293 108.482Z" fill="url(#paint91_linear)"/>
<path fill-rule="evenodd" clip-rule="evenodd" d="M100.293 128.519C101.854 128.43 103.029 128.386 103.817 128.386C104.605 128.386 105.78 128.43 107.341 128.519C106.166 128.216 104.992 128.064 103.817 128.064C102.642 128.064 101.468 128.216 100.293 128.519Z" fill="url(#paint92_linear)"/>
<path fill-rule="evenodd" clip-rule="evenodd" d="M100.21 109.181C100.817 109.081 102.102 109.031 104.065 109.031C106.027 109.031 107.279 109.081 107.82 109.181L108.288 110.165L108.288 118.337L107.293 121.042L107.293 126.35L106.65 127.25L101.516 127.25L100.664 126.35L100.664 121.042L99.835 118.215L99.835 110.165L100.21 109.181Z" fill="#474747"/>
<path fill-rule="evenodd" clip-rule="evenodd" d="M100.21 109.181C100.817 109.081 102.102 109.031 104.065 109.031C106.027 109.031 107.279 109.081 107.82 109.181L108.288 110.165L108.288 118.337L107.293 121.042L107.293 126.35L106.65 127.25L101.516 127.25L100.664 126.35L100.664 121.042L99.835 118.215L99.835 110.165L100.21 109.181Z" fill="url(#paint93_linear)"/>
<path fill-rule="evenodd" clip-rule="evenodd" d="M100.21 109.181C100.817 109.081 102.102 109.031 104.065 109.031C106.027 109.031 107.279 109.081 107.82 109.181L108.288 110.165L108.288 118.337L107.293 121.042L107.293 126.35L106.65 127.25L101.516 127.25L100.664 126.35L100.664 121.042L99.835 118.215L99.835 110.165L100.21 109.181Z" fill="url(#paint94_linear)"/>
<path fill-rule="evenodd" clip-rule="evenodd" d="M101.331 129.209L106.782 129.209L107.779 130.223L107.779 135.847L108.587 136.972L108.587 141.983L107.779 143.258L100.187 143.258L99.334 141.983L99.334 136.972L100.187 135.847L100.187 130.223L101.331 129.209Z" fill="#474747"/>
<path fill-rule="evenodd" clip-rule="evenodd" d="M101.331 129.209L106.782 129.209L107.779 130.223L107.779 135.847L108.587 136.972L108.587 141.983L107.779 143.258L100.187 143.258L99.334 141.983L99.334 136.972L100.187 135.847L100.187 130.223L101.331 129.209Z" fill="url(#paint95_linear)"/>
<path fill-rule="evenodd" clip-rule="evenodd" d="M101.331 129.209L106.782 129.209L107.779 130.223L107.779 135.847L108.587 136.972L108.587 141.983L107.779 143.258L100.187 143.258L99.334 141.983L99.334 136.972L100.187 135.847L100.187 130.223L101.331 129.209Z" fill="url(#paint96_linear)"/>
<path fill-rule="evenodd" clip-rule="evenodd" d="M98.2237 143.927L94.6318 161.547L112.767 161.547L109.905 143.927L98.2237 143.927Z" fill="#1872FF"/>
<path fill-rule="evenodd" clip-rule="evenodd" d="M99.6067 203.576L94.6318 161.547L112.767 161.547L108.288 203.576L99.6067 203.576Z" fill="#ACB6FB"/>
<path fill-rule="evenodd" clip-rule="evenodd" d="M99.6067 203.576L94.6318 161.547L112.767 161.547L108.288 203.576L99.6067 203.576Z" fill="url(#paint97_linear)"/>
<g filter="url(#filter39_f)">
<path fill-rule="evenodd" clip-rule="evenodd" d="M99.8356 148.726L108.588 148.726L110.182 162.832L107.078 197.195L100.84 197.195L97.6182 162.832L99.8356 148.726Z" fill="#0C0D0D"/>
</g>
<path fill-rule="evenodd" clip-rule="evenodd" d="M99.8356 148.726L108.588 148.726L110.182 162.832L107.078 197.195L100.84 197.195L97.6182 162.832L99.8356 148.726Z" fill="#B2B2B2"/>
<path fill-rule="evenodd" clip-rule="evenodd" d="M99.8356 148.726L108.588 148.726L110.182 162.832L97.6182 162.832L99.8356 148.726Z" fill="url(#paint98_linear)"/>
<path fill-rule="evenodd" clip-rule="evenodd" d="M98.8193 91.5271L97.6174 108.027L92.9547 127.25L88.1357 127.25L93.7599 112.072L96.3524 94.8573L98.2236 91.0098L98.8193 91.5271Z" fill="url(#paint99_linear)"/>
<path fill-rule="evenodd" clip-rule="evenodd" d="M109.311 91.5271L110.513 108.027L115.175 127.25L119.994 127.25L114.37 112.072L111.778 94.8573L109.906 91.0098L109.311 91.5271Z" fill="url(#paint100_linear)"/>
<defs>
<filter id="filter0_i" x="12.6084" y="181.456" width="8.08283" height="7.43546" filterUnits="userSpaceOnUse" color-interpolation-filters="sRGB">
<feFlood flood-opacity="0" result="BackgroundImageFix"/>
<feBlend mode="normal" in="SourceGraphic" in2="BackgroundImageFix" result="shape"/>
<feColorMatrix in="SourceAlpha" type="matrix" values="0 0 0 0 0 0 0 0 0 0 0 0 0 0 0 0 0 0 127 0" result="hardAlpha"/>
<feOffset dy="4"/>
<feGaussianBlur stdDeviation="2"/>
<feComposite in2="hardAlpha" operator="arithmetic" k2="-1" k3="1"/>
<feColorMatrix type="matrix" values="0 0 0 0 0 0 0 0 0 0 0 0 0 0 0 0 0 0 0.25 0"/>
<feBlend mode="normal" in2="shape" result="effect1_innerShadow"/>
</filter>
<filter id="filter1_i" x="11.9971" y="180.17" width="9.15847" height="7.28621" filterUnits="userSpaceOnUse" color-interpolation-filters="sRGB">
<feFlood flood-opacity="0" result="BackgroundImageFix"/>
<feBlend mode="normal" in="SourceGraphic" in2="BackgroundImageFix" result="shape"/>
<feColorMatrix in="SourceAlpha" type="matrix" values="0 0 0 0 0 0 0 0 0 0 0 0 0 0 0 0 0 0 127 0" result="hardAlpha"/>
<feOffset dy="4"/>
<feGaussianBlur stdDeviation="2"/>
<feComposite in2="hardAlpha" operator="arithmetic" k2="-1" k3="1"/>
<feColorMatrix type="matrix" values="0 0 0 0 0 0 0 0 0 0 0 0 0 0 0 0 0 0 0.25 0"/>
<feBlend mode="normal" in2="shape" result="effect1_innerShadow"/>
</filter>
<filter id="filter2_i" x="11.668" y="179.37" width="9.73066" height="7.28976" filterUnits="userSpaceOnUse" color-interpolation-filters="sRGB">
<feFlood flood-opacity="0" result="BackgroundImageFix"/>
<feBlend mode="normal" in="SourceGraphic" in2="BackgroundImageFix" result="shape"/>
<feColorMatrix in="SourceAlpha" type="matrix" values="0 0 0 0 0 0 0 0 0 0 0 0 0 0 0 0 0 0 127 0" result="hardAlpha"/>
<feOffset dy="4"/>
<feGaussianBlur stdDeviation="2"/>
<feComposite in2="hardAlpha" operator="arithmetic" k2="-1" k3="1"/>
<feColorMatrix type="matrix" values="0 0 0 0 0 0 0 0 0 0 0 0 0 0 0 0 0 0 0.25 0"/>
<feBlend mode="normal" in2="shape" result="effect1_innerShadow"/>
</filter>
<filter id="filter3_i" x="10.5615" y="142.501" width="12.2706" height="5.93024" filterUnits="userSpaceOnUse" color-interpolation-filters="sRGB">
<feFlood flood-opacity="0" result="BackgroundImageFix"/>
<feBlend mode="normal" in="SourceGraphic" in2="BackgroundImageFix" result="shape"/>
<feColorMatrix in="SourceAlpha" type="matrix" values="0 0 0 0 0 0 0 0 0 0 0 0 0 0 0 0 0 0 127 0" result="hardAlpha"/>
<feOffset dy="4"/>
<feGaussianBlur stdDeviation="2"/>
<feComposite in2="hardAlpha" operator="arithmetic" k2="-1" k3="1"/>
<feColorMatrix type="matrix" values="0 0 0 0 0 0 0 0 0 0 0 0 0 0 0 0 0 0 0.25 0"/>
<feBlend mode="normal" in2="shape" result="effect1_innerShadow"/>
</filter>
<filter id="filter4_d" x="8.98535" y="141.031" width="18.459" height="43.8617" filterUnits="userSpaceOnUse" color-interpolation-filters="sRGB">
<feFlood flood-opacity="0" result="BackgroundImageFix"/>
<feColorMatrix in="SourceAlpha" type="matrix" values="0 0 0 0 0 0 0 0 0 0 0 0 0 0 0 0 0 0 127 0" result="hardAlpha"/>
<feOffset dx="5" dy="-1"/>
<feGaussianBlur stdDeviation="3"/>
<feComposite in2="hardAlpha" operator="out"/>
<feColorMatrix type="matrix" values="0 0 0 0 0 0 0 0 0 0 0 0 0 0 0 0 0 0 1 0"/>
<feBlend mode="normal" in2="BackgroundImageFix" result="effect1_dropShadow"/>
<feBlend mode="normal" in="SourceGraphic" in2="effect1_dropShadow" result="shape"/>
</filter>
<filter id="filter5_i" x="15.6621" y="152.382" width="1.9123" height="12.2866" filterUnits="userSpaceOnUse" color-interpolation-filters="sRGB">
<feFlood flood-opacity="0" result="BackgroundImageFix"/>
<feBlend mode="normal" in="SourceGraphic" in2="BackgroundImageFix" result="shape"/>
<feColorMatrix in="SourceAlpha" type="matrix" values="0 0 0 0 0 0 0 0 0 0 0 0 0 0 0 0 0 0 127 0" result="hardAlpha"/>
<feOffset dy="4"/>
<feGaussianBlur stdDeviation="2"/>
<feComposite in2="hardAlpha" operator="arithmetic" k2="-1" k3="1"/>
<feColorMatrix type="matrix" values="0 0 0 0 0 0 0 0 0 0 0 0 0 0 0 0 0 0 0.25 0"/>
<feBlend mode="normal" in2="shape" result="effect1_innerShadow"/>
</filter>
<filter id="filter6_i" x="20.7607" y="152.7" width="1.9123" height="12.2866" filterUnits="userSpaceOnUse" color-interpolation-filters="sRGB">
<feFlood flood-opacity="0" result="BackgroundImageFix"/>
<feBlend mode="normal" in="SourceGraphic" in2="BackgroundImageFix" result="shape"/>
<feColorMatrix in="SourceAlpha" type="matrix" values="0 0 0 0 0 0 0 0 0 0 0 0 0 0 0 0 0 0 127 0" result="hardAlpha"/>
<feOffset dy="4"/>
<feGaussianBlur stdDeviation="2"/>
<feComposite in2="hardAlpha" operator="arithmetic" k2="-1" k3="1"/>
<feColorMatrix type="matrix" values="0 0 0 0 0 0 0 0 0 0 0 0 0 0 0 0 0 0 0.25 0"/>
<feBlend mode="normal" in2="shape" result="effect1_innerShadow"/>
</filter>
<filter id="filter7_i" x="10.5605" y="152.382" width="1.9123" height="12.2866" filterUnits="userSpaceOnUse" color-interpolation-filters="sRGB">
<feFlood flood-opacity="0" result="BackgroundImageFix"/>
<feBlend mode="normal" in="SourceGraphic" in2="BackgroundImageFix" result="shape"/>
<feColorMatrix in="SourceAlpha" type="matrix" values="0 0 0 0 0 0 0 0 0 0 0 0 0 0 0 0 0 0 127 0" result="hardAlpha"/>
<feOffset dy="4"/>
<feGaussianBlur stdDeviation="2"/>
<feComposite in2="hardAlpha" operator="arithmetic" k2="-1" k3="1"/>
<feColorMatrix type="matrix" values="0 0 0 0 0 0 0 0 0 0 0 0 0 0 0 0 0 0 0.25 0"/>
<feBlend mode="normal" in2="shape" result="effect1_innerShadow"/>
</filter>
<filter id="filter8_i" x="9.22168" y="158.118" width="14.7259" height="8.06675" filterUnits="userSpaceOnUse" color-interpolation-filters="sRGB">
<feFlood flood-opacity="0" result="BackgroundImageFix"/>
<feBlend mode="normal" in="SourceGraphic" in2="BackgroundImageFix" result="shape"/>
<feColorMatrix in="SourceAlpha" type="matrix" values="0 0 0 0 0 0 0 0 0 0 0 0 0 0 0 0 0 0 127 0" result="hardAlpha"/>
<feOffset dy="4"/>
<feGaussianBlur stdDeviation="2"/>
<feComposite in2="hardAlpha" operator="arithmetic" k2="-1" k3="1"/>
<feColorMatrix type="matrix" values="0 0 0 0 0 0 0 0 0 0 0 0 0 0 0 0 0 0 0.25 0"/>
<feBlend mode="normal" in2="shape" result="effect1_innerShadow"/>
</filter>
<filter id="filter9_i" x="9.44629" y="142.998" width="14.3423" height="6.71491" filterUnits="userSpaceOnUse" color-interpolation-filters="sRGB">
<feFlood flood-opacity="0" result="BackgroundImageFix"/>
<feBlend mode="normal" in="SourceGraphic" in2="BackgroundImageFix" result="shape"/>
<feColorMatrix in="SourceAlpha" type="matrix" values="0 0 0 0 0 0 0 0 0 0 0 0 0 0 0 0 0 0 127 0" result="hardAlpha"/>
<feOffset dy="4"/>
<feGaussianBlur stdDeviation="2"/>
<feComposite in2="hardAlpha" operator="arithmetic" k2="-1" k3="1"/>
<feColorMatrix type="matrix" values="0 0 0 0 0 0 0 0 0 0 0 0 0 0 0 0 0 0 0.25 0"/>
<feBlend mode="normal" in2="shape" result="effect1_innerShadow"/>
</filter>
<filter id="filter10_d" x="13.7334" y="160.537" width="8.79679" height="22.1457" filterUnits="userSpaceOnUse" color-interpolation-filters="sRGB">
<feFlood flood-opacity="0" result="BackgroundImageFix"/>
<feColorMatrix in="SourceAlpha" type="matrix" values="0 0 0 0 0 0 0 0 0 0 0 0 0 0 0 0 0 0 127 0" result="hardAlpha"/>
<feOffset dy="1"/>
<feGaussianBlur stdDeviation="2"/>
<feComposite in2="hardAlpha" operator="out"/>
<feColorMatrix type="matrix" values="0 0 0 0 0 0 0 0 0 0 0 0 0 0 0 0 0 0 0.78 0"/>
<feBlend mode="normal" in2="BackgroundImageFix" result="effect1_dropShadow"/>
<feBlend mode="normal" in="SourceGraphic" in2="effect1_dropShadow" result="shape"/>
</filter>
<filter id="filter11_d" x="16.7295" y="160.537" width="9.30547" height="22.1652" filterUnits="userSpaceOnUse" color-interpolation-filters="sRGB">
<feFlood flood-opacity="0" result="BackgroundImageFix"/>
<feColorMatrix in="SourceAlpha" type="matrix" values="0 0 0 0 0 0 0 0 0 0 0 0 0 0 0 0 0 0 127 0" result="hardAlpha"/>
<feOffset dy="1"/>
<feGaussianBlur stdDeviation="2"/>
<feComposite in2="hardAlpha" operator="out"/>
<feColorMatrix type="matrix" values="0 0 0 0 0 0 0 0 0 0 0 0 0 0 0 0 0 0 0.91 0"/>
<feBlend mode="normal" in2="BackgroundImageFix" result="effect1_dropShadow"/>
<feBlend mode="normal" in="SourceGraphic" in2="effect1_dropShadow" result="shape"/>
</filter>
<filter id="filter12_d" x="9.71191" y="160.218" width="8.99167" height="22.1554" filterUnits="userSpaceOnUse" color-interpolation-filters="sRGB">
<feFlood flood-opacity="0" result="BackgroundImageFix"/>
<feColorMatrix in="SourceAlpha" type="matrix" values="0 0 0 0 0 0 0 0 0 0 0 0 0 0 0 0 0 0 127 0" result="hardAlpha"/>
<feOffset dy="1"/>
<feGaussianBlur stdDeviation="2"/>
<feComposite in2="hardAlpha" operator="out"/>
<feColorMatrix type="matrix" values="0 0 0 0 0 0 0 0 0 0 0 0 0 0 0 0 0 0 0.53 0"/>
<feBlend mode="normal" in2="BackgroundImageFix" result="effect1_dropShadow"/>
<feBlend mode="normal" in="SourceGraphic" in2="effect1_dropShadow" result="shape"/>
</filter>
<filter id="filter13_d" x="6.20898" y="159.581" width="9.66089" height="22.0235" filterUnits="userSpaceOnUse" color-interpolation-filters="sRGB">
<feFlood flood-opacity="0" result="BackgroundImageFix"/>
<feColorMatrix in="SourceAlpha" type="matrix" values="0 0 0 0 0 0 0 0 0 0 0 0 0 0 0 0 0 0 127 0" result="hardAlpha"/>
<feOffset dy="1"/>
<feGaussianBlur stdDeviation="2"/>
<feComposite in2="hardAlpha" operator="out"/>
<feColorMatrix type="matrix" values="0 0 0 0 0 0 0 0 0 0 0 0 0 0 0 0 0 0 1 0"/>
<feBlend mode="normal" in2="BackgroundImageFix" result="effect1_dropShadow"/>
<feBlend mode="normal" in="SourceGraphic" in2="effect1_dropShadow" result="shape"/>
</filter>
<filter id="filter14_i" x="9.28613" y="144.591" width="14.661" height="7.54217" filterUnits="userSpaceOnUse" color-interpolation-filters="sRGB">
<feFlood flood-opacity="0" result="BackgroundImageFix"/>
<feBlend mode="normal" in="SourceGraphic" in2="BackgroundImageFix" result="shape"/>
<feColorMatrix in="SourceAlpha" type="matrix" values="0 0 0 0 0 0 0 0 0 0 0 0 0 0 0 0 0 0 127 0" result="hardAlpha"/>
<feOffset dy="4"/>
<feGaussianBlur stdDeviation="2"/>
<feComposite in2="hardAlpha" operator="arithmetic" k2="-1" k3="1"/>
<feColorMatrix type="matrix" values="0 0 0 0 0 0 0 0 0 0 0 0 0 0 0 0 0 0 0.25 0"/>
<feBlend mode="normal" in2="shape" result="effect1_innerShadow"/>
</filter>
<filter id="filter15_i" x="187.058" y="180.912" width="8.08283" height="7.43546" filterUnits="userSpaceOnUse" color-interpolation-filters="sRGB">
<feFlood flood-opacity="0" result="BackgroundImageFix"/>
<feBlend mode="normal" in="SourceGraphic" in2="BackgroundImageFix" result="shape"/>
<feColorMatrix in="SourceAlpha" type="matrix" values="0 0 0 0 0 0 0 0 0 0 0 0 0 0 0 0 0 0 127 0" result="hardAlpha"/>
<feOffset dy="4"/>
<feGaussianBlur stdDeviation="2"/>
<feComposite in2="hardAlpha" operator="arithmetic" k2="-1" k3="1"/>
<feColorMatrix type="matrix" values="0 0 0 0 0 0 0 0 0 0 0 0 0 0 0 0 0 0 0.25 0"/>
<feBlend mode="normal" in2="shape" result="effect1_innerShadow"/>
</filter>
<filter id="filter16_i" x="186.446" y="179.627" width="9.15847" height="7.28621" filterUnits="userSpaceOnUse" color-interpolation-filters="sRGB">
<feFlood flood-opacity="0" result="BackgroundImageFix"/>
<feBlend mode="normal" in="SourceGraphic" in2="BackgroundImageFix" result="shape"/>
<feColorMatrix in="SourceAlpha" type="matrix" values="0 0 0 0 0 0 0 0 0 0 0 0 0 0 0 0 0 0 127 0" result="hardAlpha"/>
<feOffset dy="4"/>
<feGaussianBlur stdDeviation="2"/>
<feComposite in2="hardAlpha" operator="arithmetic" k2="-1" k3="1"/>
<feColorMatrix type="matrix" values="0 0 0 0 0 0 0 0 0 0 0 0 0 0 0 0 0 0 0.25 0"/>
<feBlend mode="normal" in2="shape" result="effect1_innerShadow"/>
</filter>
<filter id="filter17_i" x="186.117" y="178.827" width="9.73066" height="7.28976" filterUnits="userSpaceOnUse" color-interpolation-filters="sRGB">
<feFlood flood-opacity="0" result="BackgroundImageFix"/>
<feBlend mode="normal" in="SourceGraphic" in2="BackgroundImageFix" result="shape"/>
<feColorMatrix in="SourceAlpha" type="matrix" values="0 0 0 0 0 0 0 0 0 0 0 0 0 0 0 0 0 0 127 0" result="hardAlpha"/>
<feOffset dy="4"/>
<feGaussianBlur stdDeviation="2"/>
<feComposite in2="hardAlpha" operator="arithmetic" k2="-1" k3="1"/>
<feColorMatrix type="matrix" values="0 0 0 0 0 0 0 0 0 0 0 0 0 0 0 0 0 0 0.25 0"/>
<feBlend mode="normal" in2="shape" result="effect1_innerShadow"/>
</filter>
<filter id="filter18_i" x="185.011" y="141.958" width="12.2706" height="5.93024" filterUnits="userSpaceOnUse" color-interpolation-filters="sRGB">
<feFlood flood-opacity="0" result="BackgroundImageFix"/>
<feBlend mode="normal" in="SourceGraphic" in2="BackgroundImageFix" result="shape"/>
<feColorMatrix in="SourceAlpha" type="matrix" values="0 0 0 0 0 0 0 0 0 0 0 0 0 0 0 0 0 0 127 0" result="hardAlpha"/>
<feOffset dy="4"/>
<feGaussianBlur stdDeviation="2"/>
<feComposite in2="hardAlpha" operator="arithmetic" k2="-1" k3="1"/>
<feColorMatrix type="matrix" values="0 0 0 0 0 0 0 0 0 0 0 0 0 0 0 0 0 0 0.25 0"/>
<feBlend mode="normal" in2="shape" result="effect1_innerShadow"/>
</filter>
<filter id="filter19_d" x="184.435" y="140.488" width="18.459" height="43.8617" filterUnits="userSpaceOnUse" color-interpolation-filters="sRGB">
<feFlood flood-opacity="0" result="BackgroundImageFix"/>
<feColorMatrix in="SourceAlpha" type="matrix" values="0 0 0 0 0 0 0 0 0 0 0 0 0 0 0 0 0 0 127 0" result="hardAlpha"/>
<feOffset dx="6" dy="-1"/>
<feGaussianBlur stdDeviation="3"/>
<feComposite in2="hardAlpha" operator="out"/>
<feColorMatrix type="matrix" values="0 0 0 0 0 0 0 0 0 0 0 0 0 0 0 0 0 0 1 0"/>
<feBlend mode="normal" in2="BackgroundImageFix" result="effect1_dropShadow"/>
<feBlend mode="normal" in="SourceGraphic" in2="effect1_dropShadow" result="shape"/>
</filter>
<filter id="filter20_i" x="190.111" y="151.838" width="1.9123" height="12.2866" filterUnits="userSpaceOnUse" color-interpolation-filters="sRGB">
<feFlood flood-opacity="0" result="BackgroundImageFix"/>
<feBlend mode="normal" in="SourceGraphic" in2="BackgroundImageFix" result="shape"/>
<feColorMatrix in="SourceAlpha" type="matrix" values="0 0 0 0 0 0 0 0 0 0 0 0 0 0 0 0 0 0 127 0" result="hardAlpha"/>
<feOffset dy="4"/>
<feGaussianBlur stdDeviation="2"/>
<feComposite in2="hardAlpha" operator="arithmetic" k2="-1" k3="1"/>
<feColorMatrix type="matrix" values="0 0 0 0 0 0 0 0 0 0 0 0 0 0 0 0 0 0 0.25 0"/>
<feBlend mode="normal" in2="shape" result="effect1_innerShadow"/>
</filter>
<filter id="filter21_i" x="195.21" y="152.157" width="1.9123" height="12.2866" filterUnits="userSpaceOnUse" color-interpolation-filters="sRGB">
<feFlood flood-opacity="0" result="BackgroundImageFix"/>
<feBlend mode="normal" in="SourceGraphic" in2="BackgroundImageFix" result="shape"/>
<feColorMatrix in="SourceAlpha" type="matrix" values="0 0 0 0 0 0 0 0 0 0 0 0 0 0 0 0 0 0 127 0" result="hardAlpha"/>
<feOffset dy="4"/>
<feGaussianBlur stdDeviation="2"/>
<feComposite in2="hardAlpha" operator="arithmetic" k2="-1" k3="1"/>
<feColorMatrix type="matrix" values="0 0 0 0 0 0 0 0 0 0 0 0 0 0 0 0 0 0 0.25 0"/>
<feBlend mode="normal" in2="shape" result="effect1_innerShadow"/>
</filter>
<filter id="filter22_i" x="185.011" y="151.838" width="1.9123" height="12.2866" filterUnits="userSpaceOnUse" color-interpolation-filters="sRGB">
<feFlood flood-opacity="0" result="BackgroundImageFix"/>
<feBlend mode="normal" in="SourceGraphic" in2="BackgroundImageFix" result="shape"/>
<feColorMatrix in="SourceAlpha" type="matrix" values="0 0 0 0 0 0 0 0 0 0 0 0 0 0 0 0 0 0 127 0" result="hardAlpha"/>
<feOffset dy="4"/>
<feGaussianBlur stdDeviation="2"/>
<feComposite in2="hardAlpha" operator="arithmetic" k2="-1" k3="1"/>
<feColorMatrix type="matrix" values="0 0 0 0 0 0 0 0 0 0 0 0 0 0 0 0 0 0 0.25 0"/>
<feBlend mode="normal" in2="shape" result="effect1_innerShadow"/>
</filter>
<filter id="filter23_i" x="183.671" y="157.575" width="14.7259" height="8.06675" filterUnits="userSpaceOnUse" color-interpolation-filters="sRGB">
<feFlood flood-opacity="0" result="BackgroundImageFix"/>
<feBlend mode="normal" in="SourceGraphic" in2="BackgroundImageFix" result="shape"/>
<feColorMatrix in="SourceAlpha" type="matrix" values="0 0 0 0 0 0 0 0 0 0 0 0 0 0 0 0 0 0 127 0" result="hardAlpha"/>
<feOffset dy="4"/>
<feGaussianBlur stdDeviation="2"/>
<feComposite in2="hardAlpha" operator="arithmetic" k2="-1" k3="1"/>
<feColorMatrix type="matrix" values="0 0 0 0 0 0 0 0 0 0 0 0 0 0 0 0 0 0 0.25 0"/>
<feBlend mode="normal" in2="shape" result="effect1_innerShadow"/>
</filter>
<filter id="filter24_i" x="183.896" y="142.454" width="14.3423" height="6.71491" filterUnits="userSpaceOnUse" color-interpolation-filters="sRGB">
<feFlood flood-opacity="0" result="BackgroundImageFix"/>
<feBlend mode="normal" in="SourceGraphic" in2="BackgroundImageFix" result="shape"/>
<feColorMatrix in="SourceAlpha" type="matrix" values="0 0 0 0 0 0 0 0 0 0 0 0 0 0 0 0 0 0 127 0" result="hardAlpha"/>
<feOffset dy="4"/>
<feGaussianBlur stdDeviation="2"/>
<feComposite in2="hardAlpha" operator="arithmetic" k2="-1" k3="1"/>
<feColorMatrix type="matrix" values="0 0 0 0 0 0 0 0 0 0 0 0 0 0 0 0 0 0 0.25 0"/>
<feBlend mode="normal" in2="shape" result="effect1_innerShadow"/>
</filter>
<filter id="filter25_d" x="188.183" y="159.993" width="8.79679" height="22.1457" filterUnits="userSpaceOnUse" color-interpolation-filters="sRGB">
<feFlood flood-opacity="0" result="BackgroundImageFix"/>
<feColorMatrix in="SourceAlpha" type="matrix" values="0 0 0 0 0 0 0 0 0 0 0 0 0 0 0 0 0 0 127 0" result="hardAlpha"/>
<feOffset dy="1"/>
<feGaussianBlur stdDeviation="2"/>
<feComposite in2="hardAlpha" operator="out"/>
<feColorMatrix type="matrix" values="0 0 0 0 0 0 0 0 0 0 0 0 0 0 0 0 0 0 0.78 0"/>
<feBlend mode="normal" in2="BackgroundImageFix" result="effect1_dropShadow"/>
<feBlend mode="normal" in="SourceGraphic" in2="effect1_dropShadow" result="shape"/>
</filter>
<filter id="filter26_d" x="191.179" y="159.993" width="9.30547" height="22.1652" filterUnits="userSpaceOnUse" color-interpolation-filters="sRGB">
<feFlood flood-opacity="0" result="BackgroundImageFix"/>
<feColorMatrix in="SourceAlpha" type="matrix" values="0 0 0 0 0 0 0 0 0 0 0 0 0 0 0 0 0 0 127 0" result="hardAlpha"/>
<feOffset dy="1"/>
<feGaussianBlur stdDeviation="2"/>
<feComposite in2="hardAlpha" operator="out"/>
<feColorMatrix type="matrix" values="0 0 0 0 0 0 0 0 0 0 0 0 0 0 0 0 0 0 0.91 0"/>
<feBlend mode="normal" in2="BackgroundImageFix" result="effect1_dropShadow"/>
<feBlend mode="normal" in="SourceGraphic" in2="effect1_dropShadow" result="shape"/>
</filter>
<filter id="filter27_d" x="184.161" y="159.675" width="8.99167" height="22.1554" filterUnits="userSpaceOnUse" color-interpolation-filters="sRGB">
<feFlood flood-opacity="0" result="BackgroundImageFix"/>
<feColorMatrix in="SourceAlpha" type="matrix" values="0 0 0 0 0 0 0 0 0 0 0 0 0 0 0 0 0 0 127 0" result="hardAlpha"/>
<feOffset dy="1"/>
<feGaussianBlur stdDeviation="2"/>
<feComposite in2="hardAlpha" operator="out"/>
<feColorMatrix type="matrix" values="0 0 0 0 0 0 0 0 0 0 0 0 0 0 0 0 0 0 0.53 0"/>
<feBlend mode="normal" in2="BackgroundImageFix" result="effect1_dropShadow"/>
<feBlend mode="normal" in="SourceGraphic" in2="effect1_dropShadow" result="shape"/>
</filter>
<filter id="filter28_d" x="180.658" y="159.038" width="9.66089" height="22.0235" filterUnits="userSpaceOnUse" color-interpolation-filters="sRGB">
<feFlood flood-opacity="0" result="BackgroundImageFix"/>
<feColorMatrix in="SourceAlpha" type="matrix" values="0 0 0 0 0 0 0 0 0 0 0 0 0 0 0 0 0 0 127 0" result="hardAlpha"/>
<feOffset dy="1"/>
<feGaussianBlur stdDeviation="2"/>
<feComposite in2="hardAlpha" operator="out"/>
<feColorMatrix type="matrix" values="0 0 0 0 0 0 0 0 0 0 0 0 0 0 0 0 0 0 1 0"/>
<feBlend mode="normal" in2="BackgroundImageFix" result="effect1_dropShadow"/>
<feBlend mode="normal" in="SourceGraphic" in2="effect1_dropShadow" result="shape"/>
</filter>
<filter id="filter29_i" x="183.735" y="144.048" width="14.661" height="7.54217" filterUnits="userSpaceOnUse" color-interpolation-filters="sRGB">
<feFlood flood-opacity="0" result="BackgroundImageFix"/>
<feBlend mode="normal" in="SourceGraphic" in2="BackgroundImageFix" result="shape"/>
<feColorMatrix in="SourceAlpha" type="matrix" values="0 0 0 0 0 0 0 0 0 0 0 0 0 0 0 0 0 0 127 0" result="hardAlpha"/>
<feOffset dy="4"/>
<feGaussianBlur stdDeviation="2"/>
<feComposite in2="hardAlpha" operator="arithmetic" k2="-1" k3="1"/>
<feColorMatrix type="matrix" values="0 0 0 0 0 0 0 0 0 0 0 0 0 0 0 0 0 0 0.25 0"/>
<feBlend mode="normal" in2="shape" result="effect1_innerShadow"/>
</filter>
<filter id="filter30_f" x="102.721" y="0.996582" width="10.1529" height="14.6846" filterUnits="userSpaceOnUse" color-interpolation-filters="sRGB">
<feFlood flood-opacity="0" result="BackgroundImageFix"/>
<feBlend mode="normal" in="SourceGraphic" in2="BackgroundImageFix" result="shape"/>
<feGaussianBlur stdDeviation="2" result="effect1_foregroundBlur"/>
</filter>
<filter id="filter31_f" x="100.206" y="0.849609" width="17.9615" height="52.2469" filterUnits="userSpaceOnUse" color-interpolation-filters="sRGB">
<feFlood flood-opacity="0" result="BackgroundImageFix"/>
<feBlend mode="normal" in="SourceGraphic" in2="BackgroundImageFix" result="shape"/>
<feGaussianBlur stdDeviation="2" result="effect1_foregroundBlur"/>
</filter>
<filter id="filter32_f" x="121.428" y="161.889" width="22.7729" height="42.2194" filterUnits="userSpaceOnUse" color-interpolation-filters="sRGB">
<feFlood flood-opacity="0" result="BackgroundImageFix"/>
<feBlend mode="normal" in="SourceGraphic" in2="BackgroundImageFix" result="shape"/>
<feGaussianBlur stdDeviation="5" result="effect1_foregroundBlur"/>
</filter>
<filter id="filter33_f" x="112.383" y="102.927" width="28.2675" height="55.3204" filterUnits="userSpaceOnUse" color-interpolation-filters="sRGB">
<feFlood flood-opacity="0" result="BackgroundImageFix"/>
<feBlend mode="normal" in="SourceGraphic" in2="BackgroundImageFix" result="shape"/>
<feGaussianBlur stdDeviation="6" result="effect1_foregroundBlur"/>
</filter>
<filter id="filter34_f" x="95.1475" y="0.997559" width="10.1648" height="14.7215" filterUnits="userSpaceOnUse" color-interpolation-filters="sRGB">
<feFlood flood-opacity="0" result="BackgroundImageFix"/>
<feBlend mode="normal" in="SourceGraphic" in2="BackgroundImageFix" result="shape"/>
<feGaussianBlur stdDeviation="2" result="effect1_foregroundBlur"/>
</filter>
<filter id="filter35_f" x="89.8252" y="0.850098" width="18.0164" height="52.491" filterUnits="userSpaceOnUse" color-interpolation-filters="sRGB">
<feFlood flood-opacity="0" result="BackgroundImageFix"/>
<feBlend mode="normal" in="SourceGraphic" in2="BackgroundImageFix" result="shape"/>
<feGaussianBlur stdDeviation="2" result="effect1_foregroundBlur"/>
</filter>
<filter id="filter36_f" x="63.6807" y="162.811" width="22.7882" height="42.3419" filterUnits="userSpaceOnUse" color-interpolation-filters="sRGB">
<feFlood flood-opacity="0" result="BackgroundImageFix"/>
<feBlend mode="normal" in="SourceGraphic" in2="BackgroundImageFix" result="shape"/>
<feGaussianBlur stdDeviation="5" result="effect1_foregroundBlur"/>
</filter>
<filter id="filter37_f" x="67.2617" y="103.535" width="28.291" height="55.4931" filterUnits="userSpaceOnUse" color-interpolation-filters="sRGB">
<feFlood flood-opacity="0" result="BackgroundImageFix"/>
<feBlend mode="normal" in="SourceGraphic" in2="BackgroundImageFix" result="shape"/>
<feGaussianBlur stdDeviation="6" result="effect1_foregroundBlur"/>
</filter>
<filter id="filter38_f" x="89.7598" y="103.155" width="28.6091" height="47.3032" filterUnits="userSpaceOnUse" color-interpolation-filters="sRGB">
<feFlood flood-opacity="0" result="BackgroundImageFix"/>
<feBlend mode="normal" in="SourceGraphic" in2="BackgroundImageFix" result="shape"/>
<feGaussianBlur stdDeviation="2" result="effect1_foregroundBlur"/>
</filter>
<filter id="filter39_f" x="93.6182" y="144.726" width="20.564" height="56.4685" filterUnits="userSpaceOnUse" color-interpolation-filters="sRGB">
<feFlood flood-opacity="0" result="BackgroundImageFix"/>
<feBlend mode="normal" in="SourceGraphic" in2="BackgroundImageFix" result="shape"/>
<feGaussianBlur stdDeviation="2" result="effect1_foregroundBlur"/>
</filter>
<linearGradient id="paint0_linear" x1="153.593" y1="147.936" x2="153.593" y2="202.825" gradientUnits="userSpaceOnUse">
<stop stop-color="#01329D"/>
<stop offset="1" stop-color="#858FD6"/>
</linearGradient>
<linearGradient id="paint1_linear" x1="54.141" y1="148.751" x2="54.141" y2="203.64" gradientUnits="userSpaceOnUse">
<stop stop-color="#033294"/>
<stop offset="1" stop-color="#858FD6"/>
</linearGradient>
<linearGradient id="paint2_linear" x1="190.622" y1="145.231" x2="193.602" y2="172.476" gradientUnits="userSpaceOnUse">
<stop stop-color="#2F2F30"/>
<stop offset="0.329127" stop-color="#3D3D3D"/>
<stop offset="0.646048" stop-color="#060606"/>
<stop offset="1" stop-color="#090909"/>
</linearGradient>
<linearGradient id="paint3_linear" x1="194.769" y1="161.214" x2="188.339" y2="178.56" gradientUnits="userSpaceOnUse">
<stop stop-color="#8A8A8A"/>
<stop offset="0.677825" stop-color="#999999"/>
<stop offset="1" stop-color="#737372"/>
</linearGradient>
<linearGradient id="paint4_linear" x1="190.408" y1="107.993" x2="193.198" y2="171.993" gradientUnits="userSpaceOnUse">
<stop stop-color="#252527"/>
<stop offset="0.588636" stop-color="#A6A7A8"/>
<stop offset="1" stop-color="#323232"/>
</linearGradient>
<linearGradient id="paint5_linear" x1="16.3782" y1="146.589" x2="13.3981" y2="173.835" gradientUnits="userSpaceOnUse">
<stop stop-color="#2F2F30"/>
<stop offset="0.329127" stop-color="#3D3D3D"/>
<stop offset="0.646048" stop-color="#060606"/>
<stop offset="1" stop-color="#090909"/>
</linearGradient>
<linearGradient id="paint6_linear" x1="12.2313" y1="162.573" x2="18.6609" y2="179.919" gradientUnits="userSpaceOnUse">
<stop stop-color="#8A8A8A"/>
<stop offset="0.677825" stop-color="#999999"/>
<stop offset="1" stop-color="#737372"/>
</linearGradient>
<linearGradient id="paint7_linear" x1="16.592" y1="109.352" x2="13.8017" y2="173.352" gradientUnits="userSpaceOnUse">
<stop stop-color="#252527"/>
<stop offset="0.588636" stop-color="#A6A7A8"/>
<stop offset="1" stop-color="#323232"/>
</linearGradient>
<linearGradient id="paint8_linear" x1="20.7773" y1="181.727" x2="13.4002" y2="181.727" gradientUnits="userSpaceOnUse">
<stop stop-color="#1E1E1D"/>
<stop offset="0.536247" stop-color="#535353"/>
<stop offset="1" stop-color="#1B1A17"/>
</linearGradient>
<linearGradient id="paint9_linear" x1="21.0562" y1="180.588" x2="12.686" y2="180.588" gradientUnits="userSpaceOnUse">
<stop stop-color="#1E1E1D"/>
<stop offset="0.536247" stop-color="#535353"/>
<stop offset="1" stop-color="#1B1A17"/>
</linearGradient>
<linearGradient id="paint10_linear" x1="21.057" y1="179.792" x2="12.6868" y2="179.792" gradientUnits="userSpaceOnUse">
<stop stop-color="#1E1E1D"/>
<stop offset="0.536247" stop-color="#535353"/>
<stop offset="1" stop-color="#1B1A17"/>
</linearGradient>
<linearGradient id="paint11_linear" x1="20.2823" y1="141.244" x2="11.5176" y2="141.085" gradientUnits="userSpaceOnUse">
<stop stop-color="#1C1D20"/>
<stop offset="0.451918" stop-color="#656F78"/>
<stop offset="1" stop-color="#3C3F42"/>
</linearGradient>
<linearGradient id="paint12_linear" x1="24.994" y1="152.541" x2="8.10198" y2="152.541" gradientUnits="userSpaceOnUse">
<stop stop-color="#0041C1"/>
<stop offset="0.295076" stop-color="#0058FE"/>
<stop offset="0.422667" stop-color="#85A0FF"/>
<stop offset="0.486462" stop-color="#B3C0EE"/>
<stop offset="0.557093" stop-color="#98AEFF"/>
<stop offset="0.648229" stop-color="#0155F6"/>
<stop offset="0.759871" stop-color="#0048D4"/>
<stop offset="0.937587" stop-color="#002070"/>
</linearGradient>
<linearGradient id="paint13_linear" x1="24.6469" y1="169.209" x2="8.3999" y2="169.209" gradientUnits="userSpaceOnUse">
<stop stop-color="#0041C1"/>
<stop offset="0.295076" stop-color="#0058FE"/>
<stop offset="0.422667" stop-color="#85A0FF"/>
<stop offset="0.486462" stop-color="#B3C0EE"/>
<stop offset="0.557093" stop-color="#98AEFF"/>
<stop offset="0.648229" stop-color="#0155F6"/>
<stop offset="0.759871" stop-color="#0048D4"/>
<stop offset="0.937587" stop-color="#002070"/>
</linearGradient>
<linearGradient id="paint14_linear" x1="16.6181" y1="152.382" x2="16.6181" y2="160.668" gradientUnits="userSpaceOnUse">
<stop stop-color="#565656"/>
<stop offset="0.273169" stop-color="#5E5E5E"/>
<stop offset="0.655059" stop-color="#9C9C9C"/>
<stop offset="1" stop-color="#535353"/>
</linearGradient>
<linearGradient id="paint15_linear" x1="21.7169" y1="152.7" x2="21.7169" y2="160.987" gradientUnits="userSpaceOnUse">
<stop stop-color="#565656"/>
<stop offset="0.273169" stop-color="#5E5E5E"/>
<stop offset="0.655059" stop-color="#9C9C9C"/>
<stop offset="1" stop-color="#535353"/>
</linearGradient>
<linearGradient id="paint16_linear" x1="11.5167" y1="152.382" x2="11.5167" y2="160.668" gradientUnits="userSpaceOnUse">
<stop stop-color="#565656"/>
<stop offset="0.273169" stop-color="#5E5E5E"/>
<stop offset="0.655059" stop-color="#9C9C9C"/>
<stop offset="1" stop-color="#535353"/>
</linearGradient>
<linearGradient id="paint17_linear" x1="23.4692" y1="158.118" x2="8.33013" y2="157.64" gradientUnits="userSpaceOnUse">
<stop stop-color="#161616"/>
<stop offset="0.250309" stop-color="#2B2B2B"/>
<stop offset="0.316882" stop-color="#A0A0A0"/>
<stop offset="0.388988" stop-color="#D8D8D8"/>
<stop offset="0.441931" stop-color="#999999"/>
<stop offset="0.562656" stop-color="#262626"/>
<stop offset="0.920865" stop-color="#050505"/>
</linearGradient>
<linearGradient id="paint18_linear" x1="23.9474" y1="143.316" x2="9.44582" y2="143.157" gradientUnits="userSpaceOnUse">
<stop stop-color="#5D5D5D"/>
<stop offset="0.363947" stop-color="#A7A7A7"/>
<stop offset="0.508425" stop-color="white"/>
<stop offset="0.609341" stop-color="#A0A0A0"/>
<stop offset="1" stop-color="#272727"/>
</linearGradient>
<linearGradient id="paint19_linear" x1="18.1319" y1="163.537" x2="18.1319" y2="177.682" gradientUnits="userSpaceOnUse">
<stop stop-color="#404142"/>
<stop offset="0.428961" stop-color="#767677"/>
<stop offset="1" stop-color="#444540"/>
</linearGradient>
<linearGradient id="paint20_linear" x1="21.637" y1="163.551" x2="21.1278" y2="177.688" gradientUnits="userSpaceOnUse">
<stop stop-color="#404142"/>
<stop offset="0.428961" stop-color="#767677"/>
<stop offset="1" stop-color="#444540"/>
</linearGradient>
<linearGradient id="paint21_linear" x1="14.3056" y1="163.224" x2="14.1106" y2="177.368" gradientUnits="userSpaceOnUse">
<stop stop-color="#404142"/>
<stop offset="0.428961" stop-color="#767677"/>
<stop offset="1" stop-color="#444540"/>
</linearGradient>
<linearGradient id="paint22_linear" x1="10.8007" y1="162.587" x2="10.6057" y2="176.731" gradientUnits="userSpaceOnUse">
<stop stop-color="#404142"/>
<stop offset="0.428961" stop-color="#767677"/>
<stop offset="1" stop-color="#444540"/>
</linearGradient>
<linearGradient id="paint23_linear" x1="22.6724" y1="144.113" x2="7.53334" y2="143.794" gradientUnits="userSpaceOnUse">
<stop offset="0.0599447" stop-color="#8A8A8A"/>
<stop offset="0.277333" stop-color="#B4B4B4"/>
<stop offset="0.324533" stop-color="#C4C4C4"/>
<stop offset="0.396313" stop-color="white"/>
<stop offset="0.598931" stop-color="#AAAAAA"/>
<stop offset="0.738265" stop-color="#8A8A8A"/>
<stop offset="0.863304" stop-color="#4D4D4D"/>
</linearGradient>
<linearGradient id="paint24_linear" x1="195.227" y1="181.183" x2="187.849" y2="181.183" gradientUnits="userSpaceOnUse">
<stop stop-color="#1E1E1D"/>
<stop offset="0.536247" stop-color="#535353"/>
<stop offset="1" stop-color="#1B1A17"/>
</linearGradient>
<linearGradient id="paint25_linear" x1="195.505" y1="180.044" x2="187.135" y2="180.044" gradientUnits="userSpaceOnUse">
<stop stop-color="#1E1E1D"/>
<stop offset="0.536247" stop-color="#535353"/>
<stop offset="1" stop-color="#1B1A17"/>
</linearGradient>
<linearGradient id="paint26_linear" x1="195.506" y1="179.248" x2="187.136" y2="179.248" gradientUnits="userSpaceOnUse">
<stop stop-color="#1E1E1D"/>
<stop offset="0.536247" stop-color="#535353"/>
<stop offset="1" stop-color="#1B1A17"/>
</linearGradient>
<linearGradient id="paint27_linear" x1="194.732" y1="140.701" x2="185.967" y2="140.542" gradientUnits="userSpaceOnUse">
<stop stop-color="#1C1D20"/>
<stop offset="0.451918" stop-color="#656F78"/>
<stop offset="1" stop-color="#3C3F42"/>
</linearGradient>
<linearGradient id="paint28_linear" x1="199.443" y1="151.997" x2="182.551" y2="151.997" gradientUnits="userSpaceOnUse">
<stop stop-color="#0041C1"/>
<stop offset="0.295076" stop-color="#0058FE"/>
<stop offset="0.422667" stop-color="#85A0FF"/>
<stop offset="0.486462" stop-color="#B3C0EE"/>
<stop offset="0.557093" stop-color="#98AEFF"/>
<stop offset="0.648229" stop-color="#0155F6"/>
<stop offset="0.759871" stop-color="#0048D4"/>
<stop offset="0.937587" stop-color="#002070"/>
</linearGradient>
<linearGradient id="paint29_linear" x1="199.096" y1="168.666" x2="182.849" y2="168.666" gradientUnits="userSpaceOnUse">
<stop stop-color="#0041C1"/>
<stop offset="0.295076" stop-color="#0058FE"/>
<stop offset="0.422667" stop-color="#85A0FF"/>
<stop offset="0.486462" stop-color="#B3C0EE"/>
<stop offset="0.557093" stop-color="#98AEFF"/>
<stop offset="0.648229" stop-color="#0155F6"/>
<stop offset="0.759871" stop-color="#0048D4"/>
<stop offset="0.937587" stop-color="#002070"/>
</linearGradient>
<linearGradient id="paint30_linear" x1="191.067" y1="151.838" x2="191.067" y2="160.125" gradientUnits="userSpaceOnUse">
<stop stop-color="#565656"/>
<stop offset="0.273169" stop-color="#5E5E5E"/>
<stop offset="0.655059" stop-color="#9C9C9C"/>
<stop offset="1" stop-color="#535353"/>
</linearGradient>
<linearGradient id="paint31_linear" x1="196.166" y1="152.157" x2="196.166" y2="160.443" gradientUnits="userSpaceOnUse">
<stop stop-color="#565656"/>
<stop offset="0.273169" stop-color="#5E5E5E"/>
<stop offset="0.655059" stop-color="#9C9C9C"/>
<stop offset="1" stop-color="#535353"/>
</linearGradient>
<linearGradient id="paint32_linear" x1="185.967" y1="151.838" x2="185.967" y2="160.125" gradientUnits="userSpaceOnUse">
<stop stop-color="#565656"/>
<stop offset="0.273169" stop-color="#5E5E5E"/>
<stop offset="0.655059" stop-color="#9C9C9C"/>
<stop offset="1" stop-color="#535353"/>
</linearGradient>
<linearGradient id="paint33_linear" x1="197.918" y1="157.575" x2="182.779" y2="157.097" gradientUnits="userSpaceOnUse">
<stop stop-color="#161616"/>
<stop offset="0.250309" stop-color="#2B2B2B"/>
<stop offset="0.316882" stop-color="#A0A0A0"/>
<stop offset="0.388988" stop-color="#D8D8D8"/>
<stop offset="0.441931" stop-color="#999999"/>
<stop offset="0.562656" stop-color="#262626"/>
<stop offset="0.920865" stop-color="#050505"/>
</linearGradient>
<linearGradient id="paint34_linear" x1="198.397" y1="142.773" x2="183.895" y2="142.613" gradientUnits="userSpaceOnUse">
<stop stop-color="#5D5D5D"/>
<stop offset="0.363947" stop-color="#A7A7A7"/>
<stop offset="0.508425" stop-color="white"/>
<stop offset="0.609341" stop-color="#A0A0A0"/>
<stop offset="1" stop-color="#272727"/>
</linearGradient>
<linearGradient id="paint35_linear" x1="192.581" y1="162.993" x2="192.581" y2="177.139" gradientUnits="userSpaceOnUse">
<stop stop-color="#404142"/>
<stop offset="0.428961" stop-color="#767677"/>
<stop offset="1" stop-color="#444540"/>
</linearGradient>
<linearGradient id="paint36_linear" x1="196.086" y1="163.008" x2="195.577" y2="177.144" gradientUnits="userSpaceOnUse">
<stop stop-color="#404142"/>
<stop offset="0.428961" stop-color="#767677"/>
<stop offset="1" stop-color="#444540"/>
</linearGradient>
<linearGradient id="paint37_linear" x1="188.755" y1="162.68" x2="188.56" y2="176.825" gradientUnits="userSpaceOnUse">
<stop stop-color="#404142"/>
<stop offset="0.428961" stop-color="#767677"/>
<stop offset="1" stop-color="#444540"/>
</linearGradient>
<linearGradient id="paint38_linear" x1="185.25" y1="162.043" x2="185.055" y2="176.187" gradientUnits="userSpaceOnUse">
<stop stop-color="#404142"/>
<stop offset="0.428961" stop-color="#767677"/>
<stop offset="1" stop-color="#444540"/>
</linearGradient>
<linearGradient id="paint39_linear" x1="197.122" y1="143.57" x2="181.983" y2="143.251" gradientUnits="userSpaceOnUse">
<stop offset="0.0599447" stop-color="#8A8A8A"/>
<stop offset="0.277333" stop-color="#B4B4B4"/>
<stop offset="0.324533" stop-color="#C4C4C4"/>
<stop offset="0.396313" stop-color="white"/>
<stop offset="0.598931" stop-color="#AAAAAA"/>
<stop offset="0.738265" stop-color="#8A8A8A"/>
<stop offset="0.863304" stop-color="#4D4D4D"/>
</linearGradient>
<linearGradient id="paint40_linear" x1="111.214" y1="10.9512" x2="110.343" y2="3.55441" gradientUnits="userSpaceOnUse">
<stop stop-opacity="0"/>
<stop offset="1"/>
</linearGradient>
<linearGradient id="paint41_linear" x1="107.949" y1="9.85223" x2="108.403" y2="12.4046" gradientUnits="userSpaceOnUse">
<stop stop-color="white" stop-opacity="0"/>
<stop offset="1" stop-color="white"/>
</linearGradient>
<linearGradient id="paint42_linear" x1="108.717" y1="22.5757" x2="108.717" y2="69.3718" gradientUnits="userSpaceOnUse">
<stop stop-opacity="0"/>
<stop offset="1"/>
</linearGradient>
<linearGradient id="paint43_linear" x1="114.163" y1="69.4546" x2="110.629" y2="69.0535" gradientUnits="userSpaceOnUse">
<stop offset="0.119936" stop-color="#252525"/>
<stop offset="0.456863" stop-color="#959595"/>
<stop offset="0.787864" stop-color="#1D1D1D"/>
</linearGradient>
<linearGradient id="paint44_linear" x1="114.498" y1="67.6203" x2="109.859" y2="67.3688" gradientUnits="userSpaceOnUse">
<stop offset="0.119936" stop-color="#252525"/>
<stop offset="0.456863" stop-color="#959595"/>
<stop offset="0.787864" stop-color="#1D1D1D"/>
</linearGradient>
<linearGradient id="paint45_linear" x1="110.304" y1="72.9732" x2="114.693" y2="73.2803" gradientUnits="userSpaceOnUse">
<stop offset="0.119936" stop-color="#252525"/>
<stop offset="0.456863" stop-color="#959595"/>
<stop offset="0.787864" stop-color="#1D1D1D"/>
</linearGradient>
<linearGradient id="paint46_linear" x1="114.611" y1="13.9663" x2="114.611" y2="67.7705" gradientUnits="userSpaceOnUse">
<stop stop-color="#01329D"/>
<stop offset="1" stop-color="#858FD6"/>
</linearGradient>
<linearGradient id="paint47_linear" x1="108.996" y1="16.2534" x2="107.787" y2="1.47442" gradientUnits="userSpaceOnUse">
<stop stop-opacity="0"/>
<stop offset="1"/>
</linearGradient>
<linearGradient id="paint48_linear" x1="110.375" y1="46.2116" x2="110.878" y2="50.5478" gradientUnits="userSpaceOnUse">
<stop stop-color="white" stop-opacity="0"/>
<stop offset="1" stop-color="white"/>
</linearGradient>
<linearGradient id="paint49_linear" x1="108.651" y1="29.4943" x2="109.938" y2="42.1192" gradientUnits="userSpaceOnUse">
<stop stop-color="white" stop-opacity="0"/>
<stop offset="1" stop-color="white"/>
</linearGradient>
<linearGradient id="paint50_linear" x1="119.787" y1="67.8926" x2="119.787" y2="200.251" gradientUnits="userSpaceOnUse">
<stop stop-color="#2950A0"/>
<stop offset="1" stop-color="#858FD6"/>
</linearGradient>
<linearGradient id="paint51_linear" x1="119.787" y1="67.8926" x2="119.787" y2="200.251" gradientUnits="userSpaceOnUse">
<stop stop-color="#2950A0"/>
<stop offset="1" stop-color="#858FD6"/>
</linearGradient>
<linearGradient id="paint52_linear" x1="119.887" y1="132.009" x2="146.665" y2="216.562" gradientUnits="userSpaceOnUse">
<stop stop-opacity="0"/>
<stop offset="1"/>
</linearGradient>
<linearGradient id="paint53_linear" x1="126.465" y1="118.422" x2="128.185" y2="147.447" gradientUnits="userSpaceOnUse">
<stop stop-opacity="0"/>
<stop offset="1"/>
</linearGradient>
<linearGradient id="paint54_linear" x1="126.397" y1="88.9539" x2="124.425" y2="81.7388" gradientUnits="userSpaceOnUse">
<stop stop-opacity="0"/>
<stop offset="1"/>
</linearGradient>
<linearGradient id="paint55_linear" x1="112.729" y1="82.7658" x2="119.257" y2="85.4878" gradientUnits="userSpaceOnUse">
<stop stop-opacity="0"/>
<stop offset="1"/>
</linearGradient>
<linearGradient id="paint56_linear" x1="114.002" y1="90.392" x2="119.145" y2="92.6631" gradientUnits="userSpaceOnUse">
<stop stop-opacity="0"/>
<stop offset="1"/>
</linearGradient>
<linearGradient id="paint57_linear" x1="115.085" y1="97.2984" x2="119.637" y2="99.3259" gradientUnits="userSpaceOnUse">
<stop stop-opacity="0"/>
<stop offset="1"/>
</linearGradient>
<linearGradient id="paint58_linear" x1="116.028" y1="103.568" x2="119.887" y2="105.317" gradientUnits="userSpaceOnUse">
<stop stop-opacity="0"/>
<stop offset="1"/>
</linearGradient>
<linearGradient id="paint59_linear" x1="129.292" y1="114.927" x2="129.291" y2="260.023" gradientUnits="userSpaceOnUse">
<stop stop-opacity="0"/>
<stop offset="1"/>
</linearGradient>
<linearGradient id="paint60_linear" x1="132.697" y1="184.361" x2="131.551" y2="184.484" gradientUnits="userSpaceOnUse">
<stop stop-opacity="0"/>
<stop offset="1"/>
</linearGradient>
<linearGradient id="paint61_linear" x1="135.186" y1="184.876" x2="138.776" y2="184.876" gradientUnits="userSpaceOnUse">
<stop stop-opacity="0"/>
<stop offset="1"/>
</linearGradient>
<linearGradient id="paint62_linear" x1="132.814" y1="171.889" x2="132.814" y2="194.109" gradientUnits="userSpaceOnUse">
<stop stop-color="#2950A0"/>
<stop offset="1" stop-color="#858FD6"/>
</linearGradient>
<linearGradient id="paint63_linear" x1="126.517" y1="114.927" x2="126.517" y2="172.32" gradientUnits="userSpaceOnUse">
<stop stop-opacity="0"/>
<stop offset="1"/>
</linearGradient>
<linearGradient id="paint64_linear" x1="96.7948" y1="10.9855" x2="97.6712" y2="3.54791" gradientUnits="userSpaceOnUse">
<stop stop-opacity="0"/>
<stop offset="1"/>
</linearGradient>
<linearGradient id="paint65_linear" x1="100.077" y1="9.88026" x2="99.6204" y2="12.4467" gradientUnits="userSpaceOnUse">
<stop stop-color="white" stop-opacity="0"/>
<stop offset="1" stop-color="white"/>
</linearGradient>
<linearGradient id="paint66_linear" x1="99.3041" y1="22.6743" x2="99.3041" y2="69.7285" gradientUnits="userSpaceOnUse">
<stop stop-opacity="0"/>
<stop offset="1"/>
</linearGradient>
<linearGradient id="paint67_linear" x1="93.8297" y1="69.811" x2="97.3826" y2="69.4077" gradientUnits="userSpaceOnUse">
<stop offset="0.119936" stop-color="#252525"/>
<stop offset="0.456863" stop-color="#959595"/>
<stop offset="0.787864" stop-color="#1D1D1D"/>
</linearGradient>
<linearGradient id="paint68_linear" x1="93.4929" y1="67.967" x2="98.1575" y2="67.7141" gradientUnits="userSpaceOnUse">
<stop offset="0.119936" stop-color="#252525"/>
<stop offset="0.456863" stop-color="#959595"/>
<stop offset="0.787864" stop-color="#1D1D1D"/>
</linearGradient>
<linearGradient id="paint69_linear" x1="97.7103" y1="73.3492" x2="93.2968" y2="73.658" gradientUnits="userSpaceOnUse">
<stop offset="0.119936" stop-color="#252525"/>
<stop offset="0.456863" stop-color="#959595"/>
<stop offset="0.787864" stop-color="#1D1D1D"/>
</linearGradient>
<linearGradient id="paint70_linear" x1="93.3803" y1="14.0171" x2="93.3803" y2="68.1181" gradientUnits="userSpaceOnUse">
<stop stop-color="#01329D"/>
<stop offset="1" stop-color="#858FD6"/>
</linearGradient>
<linearGradient id="paint71_linear" x1="99.0252" y1="16.3168" x2="100.242" y2="1.45629" gradientUnits="userSpaceOnUse">
<stop stop-opacity="0"/>
<stop offset="1"/>
</linearGradient>
<linearGradient id="paint72_linear" x1="97.6398" y1="46.44" x2="97.1337" y2="50.8002" gradientUnits="userSpaceOnUse">
<stop stop-color="white" stop-opacity="0"/>
<stop offset="1" stop-color="white"/>
</linearGradient>
<linearGradient id="paint73_linear" x1="99.3703" y1="29.6307" x2="98.0766" y2="42.3253" gradientUnits="userSpaceOnUse">
<stop stop-color="white" stop-opacity="0"/>
<stop offset="1" stop-color="white"/>
</linearGradient>
<linearGradient id="paint74_linear" x1="88.1738" y1="68.2407" x2="88.1738" y2="201.329" gradientUnits="userSpaceOnUse">
<stop stop-color="#2950A0"/>
<stop offset="1" stop-color="#858FD6"/>
</linearGradient>
<linearGradient id="paint75_linear" x1="88.1738" y1="68.2407" x2="88.1738" y2="201.329" gradientUnits="userSpaceOnUse">
<stop stop-color="#2950A0"/>
<stop offset="1" stop-color="#858FD6"/>
</linearGradient>
<linearGradient id="paint76_linear" x1="88.0734" y1="132.711" x2="61.1473" y2="217.73" gradientUnits="userSpaceOnUse">
<stop stop-opacity="0"/>
<stop offset="1"/>
</linearGradient>
<linearGradient id="paint77_linear" x1="81.4592" y1="119.049" x2="79.7298" y2="148.235" gradientUnits="userSpaceOnUse">
<stop stop-opacity="0"/>
<stop offset="1"/>
</linearGradient>
<linearGradient id="paint78_linear" x1="81.5274" y1="89.4184" x2="83.5107" y2="82.1635" gradientUnits="userSpaceOnUse">
<stop stop-opacity="0"/>
<stop offset="1"/>
</linearGradient>
<linearGradient id="paint79_linear" x1="95.2714" y1="83.196" x2="88.7069" y2="85.933" gradientUnits="userSpaceOnUse">
<stop stop-opacity="0"/>
<stop offset="1"/>
</linearGradient>
<linearGradient id="paint80_linear" x1="93.992" y1="90.8641" x2="88.8203" y2="93.1477" gradientUnits="userSpaceOnUse">
<stop stop-opacity="0"/>
<stop offset="1"/>
</linearGradient>
<linearGradient id="paint81_linear" x1="92.9025" y1="97.809" x2="88.3254" y2="99.8477" gradientUnits="userSpaceOnUse">
<stop stop-opacity="0"/>
<stop offset="1"/>
</linearGradient>
<linearGradient id="paint82_linear" x1="91.9537" y1="104.113" x2="88.0727" y2="105.872" gradientUnits="userSpaceOnUse">
<stop stop-opacity="0"/>
<stop offset="1"/>
</linearGradient>
<linearGradient id="paint83_linear" x1="78.6164" y1="115.535" x2="78.6164" y2="261.431" gradientUnits="userSpaceOnUse">
<stop stop-opacity="0"/>
<stop offset="1"/>
</linearGradient>
<linearGradient id="paint84_linear" x1="75.1938" y1="185.352" x2="76.3452" y2="185.475" gradientUnits="userSpaceOnUse">
<stop stop-opacity="0"/>
<stop offset="1"/>
</linearGradient>
<linearGradient id="paint85_linear" x1="72.6911" y1="185.869" x2="69.0813" y2="185.869" gradientUnits="userSpaceOnUse">
<stop stop-opacity="0"/>
<stop offset="1"/>
</linearGradient>
<linearGradient id="paint86_linear" x1="75.0748" y1="172.811" x2="75.0748" y2="195.153" gradientUnits="userSpaceOnUse">
<stop stop-color="#2950A0"/>
<stop offset="1" stop-color="#858FD6"/>
</linearGradient>
<linearGradient id="paint87_linear" x1="81.4072" y1="115.535" x2="81.4072" y2="173.244" gradientUnits="userSpaceOnUse">
<stop stop-opacity="0"/>
<stop offset="1"/>
</linearGradient>
<linearGradient id="paint88_linear" x1="103.588" y1="206.058" x2="103.719" y2="204.114" gradientUnits="userSpaceOnUse">
<stop stop-opacity="0"/>
<stop offset="1"/>
</linearGradient>
<linearGradient id="paint89_linear" x1="103.922" y1="142.01" x2="103.922" y2="247.108" gradientUnits="userSpaceOnUse">
<stop stop-opacity="0"/>
<stop offset="1"/>
</linearGradient>
<linearGradient id="paint90_linear" x1="86.6348" y1="138.908" x2="121.492" y2="138.908" gradientUnits="userSpaceOnUse">
<stop stop-color="#0041C1"/>
<stop offset="0.295076" stop-color="#0058FE"/>
<stop offset="0.422667" stop-color="#85A0FF"/>
<stop offset="0.486462" stop-color="#B3C0EE"/>
<stop offset="0.557093" stop-color="#98AEFF"/>
<stop offset="0.648229" stop-color="#0155F6"/>
<stop offset="0.759871" stop-color="#0048D4"/>
<stop offset="0.937587" stop-color="#002070"/>
</linearGradient>
<linearGradient id="paint91_linear" x1="106.634" y1="108.256" x2="100.666" y2="108.257" gradientUnits="userSpaceOnUse">
<stop stop-color="white" stop-opacity="0"/>
<stop offset="0.457909" stop-color="white"/>
<stop offset="1" stop-color="white" stop-opacity="0"/>
</linearGradient>
<linearGradient id="paint92_linear" x1="106.634" y1="128.293" x2="100.666" y2="128.293" gradientUnits="userSpaceOnUse">
<stop stop-color="white" stop-opacity="0"/>
<stop offset="0.457909" stop-color="white"/>
<stop offset="1" stop-color="white" stop-opacity="0"/>
</linearGradient>
<linearGradient id="paint93_linear" x1="104.062" y1="124.942" x2="104.062" y2="128.164" gradientUnits="userSpaceOnUse">
<stop stop-opacity="0"/>
<stop offset="1"/>
</linearGradient>
<linearGradient id="paint94_linear" x1="104.062" y1="112.551" x2="104.062" y2="109.031" gradientUnits="userSpaceOnUse">
<stop stop-opacity="0"/>
<stop offset="1"/>
</linearGradient>
<linearGradient id="paint95_linear" x1="103.961" y1="133.312" x2="104.346" y2="119.898" gradientUnits="userSpaceOnUse">
<stop stop-opacity="0"/>
<stop offset="1"/>
</linearGradient>
<linearGradient id="paint96_linear" x1="104.27" y1="139.743" x2="104.27" y2="150.406" gradientUnits="userSpaceOnUse">
<stop stop-opacity="0"/>
<stop offset="1"/>
</linearGradient>
<linearGradient id="paint97_linear" x1="103.7" y1="161.547" x2="103.7" y2="238.562" gradientUnits="userSpaceOnUse">
<stop stop-opacity="0"/>
<stop offset="1"/>
</linearGradient>
<linearGradient id="paint98_linear" x1="105.1" y1="166.484" x2="105.1" y2="136.677" gradientUnits="userSpaceOnUse">
<stop stop-opacity="0"/>
<stop offset="1"/>
</linearGradient>
<linearGradient id="paint99_linear" x1="93.3928" y1="123.033" x2="100.136" y2="89.2774" gradientUnits="userSpaceOnUse">
<stop stop-opacity="0"/>
<stop offset="1"/>
</linearGradient>
<linearGradient id="paint100_linear" x1="114.737" y1="123.033" x2="107.994" y2="89.2774" gradientUnits="userSpaceOnUse">
<stop stop-opacity="0"/>
<stop offset="1"/>
</linearGradient>
</defs>
</svg>
