<svg width="88" height="88" viewBox="0 0 88 88" fill="none" xmlns="http://www.w3.org/2000/svg">
<circle cx="44" cy="44" r="44" fill="url(#paint0_linear)"/>
<path d="M64.85 26.575L61.375 22.375C60.7 21.525 59.675 21 58.5 21H28.5C27.325 21 26.3 21.525 25.6 22.375L22.15 26.575C21.425 27.425 21 28.55 21 29.75V61C21 63.75 23.25 66 26 66H61C63.75 66 66 63.75 66 61V29.75C66 28.55 65.575 27.425 64.85 26.575ZM29.1 26H57.9L59.925 28.425H27.1L29.1 26ZM26 61V33.5H61V61H26ZM47.125 38.5H39.875V46H33.5L43.5 56L53.5 46H47.125V38.5Z" fill="#FEF9F8"/>
<defs>
<linearGradient id="paint0_linear" x1="88" y1="38.8667" x2="-0.0254289" y2="39.3479" gradientUnits="userSpaceOnUse">
<stop stop-color="#3FE4FE"/>
<stop offset="1" stop-color="#0898F0"/>
</linearGradient>
</defs>
</svg>
