<svg width="88" height="88" viewBox="0 0 88 88" fill="none" xmlns="http://www.w3.org/2000/svg">
<circle cx="44" cy="44" r="44" fill="url(#paint0_linear)"/>
<path d="M46.75 25.5V31.5075L44.5 33.7575L42.25 31.5075V25.5H46.75ZM62.5 41.25V45.75H56.4925L54.2425 43.5L56.4925 41.25H62.5ZM32.5075 41.25L34.7575 43.5L32.5075 45.75H26.5V41.25H32.5075ZM44.5 53.2425L46.75 55.4925V61.5H42.25V55.4925L44.5 53.2425ZM51.25 21H37.75V33.375L44.5 40.125L51.25 33.375V21ZM67 36.75H54.625L47.875 43.5L54.625 50.25H67V36.75ZM34.375 36.75H22V50.25H34.375L41.125 43.5L34.375 36.75ZM44.5 46.875L37.75 53.625V66H51.25V53.625L44.5 46.875Z" fill="#FEF9F8"/>
<defs>
<linearGradient id="paint0_linear" x1="88" y1="38.8667" x2="-0.0254289" y2="39.3479" gradientUnits="userSpaceOnUse">
<stop stop-color="#3FE4FE"/>
<stop offset="1" stop-color="#0898F0"/>
</linearGradient>
</defs>
</svg>
