<svg width="581" height="633" viewBox="0 0 581 633" fill="none" xmlns="http://www.w3.org/2000/svg">
<rect x="239" width="282" height="400" rx="30" fill="#1D1763"/>
<mask id="mask0" style="mask-type:alpha" maskUnits="userSpaceOnUse" x="239" y="0" width="282" height="400">
<rect x="239" width="282" height="400" rx="30" fill="#1D1763"/>
</mask>
<g mask="url(#mask0)">
<path d="M281.466 628.978C279.931 628.972 278.407 628.678 276.958 628.107C219.184 606.464 184.415 209.799 180.633 164.597L188.405 163.785C198.509 284.943 234.573 603.098 279.394 619.868C281.615 620.682 284.054 620.179 285.871 618.533C325.769 588.244 351.314 244.151 357.791 114.173L365.564 114.637C364.579 133.902 341.417 586.851 290.223 625.728C287.665 627.779 284.612 628.912 281.466 628.978Z" fill="#4E94D8"/>
<path fill-rule="evenodd" clip-rule="evenodd" d="M711.14 110.147L599.101 290.052L593.682 303.376L514.838 496.604L466.218 513.129L386.332 552.17H359.391L335.316 536.868L304.049 462.683L268.197 457.33H255.795L154.856 399.554L141.151 384.833L150.062 299.71L93.6254 223.431L42.4004 99.0339L470.127 83.0334L702.02 98.3357L711.14 110.147Z" fill="#1B1767"/>
<g style="mix-blend-mode:multiply" opacity="0.5">
<path fill-rule="evenodd" clip-rule="evenodd" d="M599.062 304.281L519.794 496.805L471.042 513.269L390.937 552.168H363.922L339.781 536.922L308.429 463.008L272.479 457.674H260.042L287.266 437.906L279.428 329.093L257.221 276.512C257.221 276.512 316.006 361.035 316.006 367.586V406.949L489.33 332.049L505.006 304.57L501.714 217.96L599.062 304.281Z" fill="#140E57"/>
</g>
<g style="mix-blend-mode:multiply" opacity="0.5">
<path fill-rule="evenodd" clip-rule="evenodd" d="M150.937 298.917L156.129 289.248C156.129 289.248 207.221 272.764 253.484 274.687L213.711 215.857C173.962 211.662 133.881 213.918 94.7051 222.555L150.937 298.917Z" fill="#140E57"/>
</g>
<g style="mix-blend-mode:multiply" opacity="0.5">
<path fill-rule="evenodd" clip-rule="evenodd" d="M305.707 462.908L378.752 444.846L433.731 385.449L486.983 332.131L313.3 406.927L284.501 437.841L257.221 457.582L305.707 462.908Z" fill="url(#paint0_linear)"/>
</g>
<g style="mix-blend-mode:multiply" opacity="0.5">
<path fill-rule="evenodd" clip-rule="evenodd" d="M337.543 536.922H364.163L436.07 512.284L486.347 457.674L508.029 343.991L486.347 332.049L501.945 304.57L498.67 217.96L595.325 304.281L516.659 496.805L468.15 513.269L388.444 552.168H361.564L337.543 536.922Z" fill="url(#paint1_linear)"/>
</g>
<path opacity="0.4" fill-rule="evenodd" clip-rule="evenodd" d="M218.088 206.618C216.846 211.009 228.028 228.241 231.408 230.272C234.788 232.303 249.748 212.436 249.748 206.618C249.748 200.801 220.325 198.496 218.088 206.618Z" fill="#FF5E31"/>
<path opacity="0.4" fill-rule="evenodd" clip-rule="evenodd" d="M210.52 95.5367C210.52 95.5367 214.59 189.42 220.487 194.782C226.384 200.143 266.462 202.254 301.008 192.272C335.555 182.29 374.902 89.2626 374.902 89.2626L210.52 95.5367Z" fill="#20185D"/>
<path opacity="0.4" fill-rule="evenodd" clip-rule="evenodd" d="M497.592 302.121C495.651 307.507 425.87 289.379 402.732 264.244C379.593 239.108 354.199 153.046 356.35 142.273C358.502 131.501 383.896 86.4428 383.896 86.4428L509.398 85.1107L497.855 193.818C497.855 193.818 499.796 296.04 497.592 302.121Z" fill="#4D467D"/>
<path opacity="0.4" fill-rule="evenodd" clip-rule="evenodd" d="M488.231 319.368C498.69 312.362 373.598 275.897 340.495 280.663C307.392 285.43 313.458 388.22 321.302 394.078C329.147 399.935 479.079 325.512 488.231 319.368Z" fill="#20185D"/>
<path opacity="0.4" fill-rule="evenodd" clip-rule="evenodd" d="M366.342 265.217C362.508 262.824 373.9 253.198 377.012 253.251C380.124 253.304 386.682 264.791 386.07 266.919C385.459 269.046 368.843 266.759 366.342 265.217Z" fill="#FFD8B3"/>
<path opacity="0.4" fill-rule="evenodd" clip-rule="evenodd" d="M241.413 251.691C235.533 245.997 257.162 209.211 262.411 204.94C267.661 200.669 342.155 181.081 352.339 185.351C362.524 189.622 378.22 225.212 374.283 231.419C370.346 237.626 309.396 306.813 302.257 309.205C295.117 311.597 255.692 266.041 241.413 251.691Z" fill="#4E94D8"/>
<path opacity="0.2" fill-rule="evenodd" clip-rule="evenodd" d="M210.52 127.199L361.826 114.173L345.803 143.234H211.623L210.52 127.199Z" fill="#FF862F"/>
<g style="mix-blend-mode:multiply" opacity="0.5">
<path fill-rule="evenodd" clip-rule="evenodd" d="M494.799 319.678L490.38 317.751C490.38 317.751 480.709 304.145 427.207 292.693C427.207 292.693 479.201 308.056 497.295 304.031L503.794 304.315L494.799 319.678Z" fill="url(#paint2_linear)"/>
</g>
<g style="mix-blend-mode:multiply" opacity="0.2">
<path fill-rule="evenodd" clip-rule="evenodd" d="M367.432 198.242L496.323 184.746L495.691 209.656H371.483L367.432 198.242Z" fill="url(#paint3_linear)"/>
</g>
<g style="mix-blend-mode:multiply" opacity="0.5">
<path fill-rule="evenodd" clip-rule="evenodd" d="M56.8256 140.128H207.234L212.904 151.535V140.128L359.113 124.012L361.896 127.814L489.31 143.533L494.455 110.846L361.896 72.6535L48.0059 115.045L56.8256 140.128Z" fill="url(#paint4_linear)"/>
</g>
<path fill-rule="evenodd" clip-rule="evenodd" d="M150.326 300.125L141.404 384.673L150.326 396.751L256.188 456.68L283.371 436.974L275.545 328.5L253.371 276.084C253.371 276.084 183.405 276.604 155.544 290.531L150.326 300.125Z" fill="#4E94D8"/>
<g style="mix-blend-mode:soft-light" opacity="0.8">
<path fill-rule="evenodd" clip-rule="evenodd" d="M145.141 381.952H183.36L214.577 363.831L260.956 290.374L258.113 274.202C224.707 272.949 191.344 277.794 159.407 288.538L154.143 298.058L145.141 381.952Z" fill="#E0E7FF"/>
</g>
<g style="mix-blend-mode:multiply" opacity="0.5">
<path fill-rule="evenodd" clip-rule="evenodd" d="M212.389 365.821L283.372 435.922L275.778 328.157L254.26 276.084L256.994 292.274L212.389 365.821Z" fill="url(#paint5_linear)"/>
</g>
<g style="mix-blend-mode:multiply" opacity="0.5">
<path fill-rule="evenodd" clip-rule="evenodd" d="M282.375 435.922L311.391 405.263V366.28L252.04 276.084L254.889 292.274L219.859 347.735L230.78 383.963L282.375 435.922Z" fill="url(#paint6_linear)"/>
</g>
<path fill-rule="evenodd" clip-rule="evenodd" d="M43.9847 59.9895C43.9847 59.9895 9.11765 37.4758 0.649178 39.581C-7.81929 41.6862 -46.3979 65.077 -50.998 82.6201L-15.7127 74.4333C-15.7127 74.4333 -55.5982 122.326 -34.0088 178.522L32.6412 90.6315C32.6412 90.6315 33.7912 110.163 43.9847 113.321C58.1511 117.706 156.793 98.7013 156.793 98.7013C156.793 98.7013 172.476 129.051 190.562 134.723C208.649 140.395 350.052 99.1106 362.546 92.7366C375.039 86.3626 426.111 92.7366 426.111 92.7366C442.61 100.933 459.607 107.812 476.975 113.321C499.871 119.928 623.657 97.9996 623.657 97.9996C623.657 97.9996 774.939 159.05 778.86 157.412C782.78 155.775 771.019 101.684 740.334 86.3042L834.428 97.9996C834.428 97.9996 762.498 56.3055 752.723 53.7325C742.947 51.1595 709.596 63.6151 709.596 63.6151L43.9847 59.9895Z" fill="#110A49"/>
<path fill-rule="evenodd" clip-rule="evenodd" d="M43.4575 64.3524H25.5898L361.836 95.4898L717.831 89.3735L733.557 73.5268L708.688 67.7997L43.4575 64.3524Z" fill="#25237C"/>
<path fill-rule="evenodd" clip-rule="evenodd" d="M317.031 66.427C317.031 66.427 307.566 102.657 330.841 118.092C354.116 133.528 425.338 66.427 425.338 66.427H317.031Z" fill="#356CAB"/>
<path fill-rule="evenodd" clip-rule="evenodd" d="M510.937 284.04L488.85 128.858L499.867 98.684L549.913 31.6111C549.913 31.6111 669.439 0 752.589 0L759.708 18.6793L718.809 226.565L597.983 300.995L521.538 293.868L510.937 284.04Z" fill="#4E94D8"/>
<g style="mix-blend-mode:soft-light" opacity="0.8">
<path fill-rule="evenodd" clip-rule="evenodd" d="M548.792 31.1368C548.792 31.1368 566.647 161.939 565.372 178.798C564.096 195.657 510.531 286.463 510.531 286.463L488.85 129.5L499.665 98.9798L548.792 31.1368Z" fill="#E0E7FF"/>
</g>
<g style="mix-blend-mode:multiply" opacity="0.5">
<path fill-rule="evenodd" clip-rule="evenodd" d="M570.96 367.422L519.859 297.563L509.398 287.682L551.974 223.717L596.798 201.355L718.613 229.9L596.798 304.728L570.96 367.422Z" fill="url(#paint7_linear)"/>
</g>
<path opacity="0.2" fill-rule="evenodd" clip-rule="evenodd" d="M494.453 163.7L556.621 74.7308L735.423 147.694L731.262 163.7L586.69 98.974V119.245L729.389 178.714L726.215 195.129L567.649 113.578L496.534 178.714L494.453 163.7Z" fill="#FF9C8D"/>
<g style="mix-blend-mode:multiply" opacity="0.5">
<path fill-rule="evenodd" clip-rule="evenodd" d="M596.798 303.069L519.859 295.875L509.398 285.955L551.974 221.73L596.798 199.278L718.613 227.938L596.798 303.069Z" fill="url(#paint8_linear)"/>
</g>
</g>
<g filter="url(#filter0_b)">
<rect x="239" width="282" height="400" rx="21" fill="#0D81B9" fill-opacity="0.5"/>
</g>
<g filter="url(#filter1_b)">
<rect x="239" width="282" height="400" rx="21" fill="url(#paint9_linear)"/>
</g>
<rect x="252.5" y="18.8746" width="256" height="360.837" rx="13.5" stroke="url(#paint10_linear)"/>
<rect x="252.5" y="18.8746" width="256" height="360.837" rx="13.5" stroke="url(#paint11_linear)"/>
<path d="M281.796 66.4228C280.32 66.4228 279.108 66.0748 278.16 65.3788C277.212 64.6708 276.702 63.6628 276.63 62.3548H280.392C280.428 62.7988 280.56 63.1228 280.788 63.3268C281.016 63.5308 281.31 63.6328 281.67 63.6328C281.994 63.6328 282.258 63.5548 282.462 63.3988C282.678 63.2308 282.786 63.0028 282.786 62.7148C282.786 62.3428 282.612 62.0548 282.264 61.8508C281.916 61.6468 281.352 61.4188 280.572 61.1668C279.744 60.8908 279.072 60.6268 278.556 60.3748C278.052 60.1108 277.608 59.7328 277.224 59.2408C276.852 58.7368 276.666 58.0828 276.666 57.2788C276.666 56.4628 276.87 55.7668 277.278 55.1908C277.686 54.6028 278.25 54.1588 278.97 53.8588C279.69 53.5588 280.506 53.4088 281.418 53.4088C282.894 53.4088 284.07 53.7568 284.946 54.4528C285.834 55.1368 286.308 56.1028 286.368 57.3508H282.534C282.522 56.9668 282.402 56.6788 282.174 56.4868C281.958 56.2948 281.676 56.1988 281.328 56.1988C281.064 56.1988 280.848 56.2768 280.68 56.4328C280.512 56.5888 280.428 56.8108 280.428 57.0988C280.428 57.3388 280.518 57.5488 280.698 57.7288C280.89 57.8968 281.124 58.0468 281.4 58.1788C281.676 58.2988 282.084 58.4548 282.624 58.6468C283.428 58.9228 284.088 59.1988 284.604 59.4748C285.132 59.7388 285.582 60.1168 285.954 60.6088C286.338 61.0888 286.53 61.7008 286.53 62.4448C286.53 63.2008 286.338 63.8788 285.954 64.4788C285.582 65.0788 285.036 65.5528 284.316 65.9008C283.608 66.2488 282.768 66.4228 281.796 66.4228ZM294.308 63.2908V66.2968H292.778C290.198 66.2968 288.908 65.0188 288.908 62.4628V59.1328H287.666V56.1988H288.908V53.7508H292.454V56.1988H294.29V59.1328H292.454V62.5168C292.454 62.7928 292.514 62.9908 292.634 63.1108C292.766 63.2308 292.982 63.2908 293.282 63.2908H294.308ZM295.53 61.2388C295.53 60.1948 295.716 59.2828 296.088 58.5028C296.472 57.7228 296.988 57.1228 297.636 56.7028C298.296 56.2828 299.028 56.0728 299.832 56.0728C300.528 56.0728 301.128 56.2108 301.632 56.4868C302.136 56.7628 302.526 57.1348 302.802 57.6028V56.1988H306.33V66.2968H302.802V64.8928C302.526 65.3608 302.13 65.7328 301.614 66.0088C301.11 66.2848 300.516 66.4228 299.832 66.4228C299.028 66.4228 298.296 66.2128 297.636 65.7928C296.988 65.3728 296.472 64.7728 296.088 63.9928C295.716 63.2008 295.53 62.2828 295.53 61.2388ZM302.802 61.2388C302.802 60.5908 302.622 60.0808 302.262 59.7088C301.914 59.3368 301.482 59.1508 300.966 59.1508C300.438 59.1508 300 59.3368 299.652 59.7088C299.304 60.0688 299.13 60.5788 299.13 61.2388C299.13 61.8868 299.304 62.4028 299.652 62.7868C300 63.1588 300.438 63.3448 300.966 63.3448C301.482 63.3448 301.914 63.1588 302.262 62.7868C302.622 62.4148 302.802 61.8988 302.802 61.2388ZM312.049 57.9808C312.445 57.4048 312.925 56.9488 313.489 56.6128C314.053 56.2768 314.659 56.1088 315.307 56.1088V59.8708H314.317C313.549 59.8708 312.979 60.0208 312.607 60.3208C312.235 60.6208 312.049 61.1428 312.049 61.8868V66.2968H308.521V56.1988H312.049V57.9808ZM325.165 66.4228C323.689 66.4228 322.477 66.0748 321.529 65.3788C320.581 64.6708 320.071 63.6628 319.999 62.3548H323.761C323.797 62.7988 323.929 63.1228 324.157 63.3268C324.385 63.5308 324.679 63.6328 325.039 63.6328C325.363 63.6328 325.627 63.5548 325.831 63.3988C326.047 63.2308 326.155 63.0028 326.155 62.7148C326.155 62.3428 325.981 62.0548 325.633 61.8508C325.285 61.6468 324.721 61.4188 323.941 61.1668C323.113 60.8908 322.441 60.6268 321.925 60.3748C321.421 60.1108 320.977 59.7328 320.593 59.2408C320.221 58.7368 320.035 58.0828 320.035 57.2788C320.035 56.4628 320.239 55.7668 320.647 55.1908C321.055 54.6028 321.619 54.1588 322.339 53.8588C323.059 53.5588 323.875 53.4088 324.787 53.4088C326.263 53.4088 327.439 53.7568 328.315 54.4528C329.203 55.1368 329.677 56.1028 329.737 57.3508H325.903C325.891 56.9668 325.771 56.6788 325.543 56.4868C325.327 56.2948 325.045 56.1988 324.697 56.1988C324.433 56.1988 324.217 56.2768 324.049 56.4328C323.881 56.5888 323.797 56.8108 323.797 57.0988C323.797 57.3388 323.887 57.5488 324.067 57.7288C324.259 57.8968 324.493 58.0468 324.769 58.1788C325.045 58.2988 325.453 58.4548 325.993 58.6468C326.797 58.9228 327.457 59.1988 327.973 59.4748C328.501 59.7388 328.951 60.1168 329.323 60.6088C329.707 61.0888 329.899 61.7008 329.899 62.4448C329.899 63.2008 329.707 63.8788 329.323 64.4788C328.951 65.0788 328.405 65.5528 327.685 65.9008C326.977 66.2488 326.137 66.4228 325.165 66.4228ZM337.677 63.2908V66.2968H336.147C333.567 66.2968 332.277 65.0188 332.277 62.4628V59.1328H331.035V56.1988H332.277V53.7508H335.823V56.1988H337.659V59.1328H335.823V62.5168C335.823 62.7928 335.883 62.9908 336.003 63.1108C336.135 63.2308 336.351 63.2908 336.651 63.2908H337.677ZM343.003 57.9808C343.399 57.4048 343.879 56.9488 344.443 56.6128C345.007 56.2768 345.613 56.1088 346.261 56.1088V59.8708H345.271C344.503 59.8708 343.933 60.0208 343.561 60.3208C343.189 60.6208 343.003 61.1428 343.003 61.8868V66.2968H339.475V56.1988H343.003V57.9808ZM349.488 55.2628C348.864 55.2628 348.36 55.0948 347.976 54.7588C347.604 54.4108 347.418 53.9788 347.418 53.4628C347.418 52.9348 347.604 52.4968 347.976 52.1488C348.36 51.8008 348.864 51.6268 349.488 51.6268C350.1 51.6268 350.592 51.8008 350.964 52.1488C351.348 52.4968 351.54 52.9348 351.54 53.4628C351.54 53.9788 351.348 54.4108 350.964 54.7588C350.592 55.0948 350.1 55.2628 349.488 55.2628ZM351.234 56.1988V66.2968H347.706V56.1988H351.234ZM359.741 66.2968L356.951 62.1568V66.2968H353.423V52.9768H356.951V60.1588L359.741 56.1988H363.971L359.993 61.2748L364.043 66.2968H359.741ZM374.905 61.1308C374.905 61.4068 374.887 61.6828 374.851 61.9588H368.173C368.209 62.5108 368.359 62.9248 368.623 63.2008C368.899 63.4648 369.247 63.5968 369.667 63.5968C370.255 63.5968 370.675 63.3328 370.927 62.8048H374.689C374.533 63.5008 374.227 64.1248 373.771 64.6768C373.327 65.2168 372.763 65.6428 372.079 65.9548C371.395 66.2668 370.639 66.4228 369.811 66.4228C368.815 66.4228 367.927 66.2128 367.147 65.7928C366.379 65.3728 365.773 64.7728 365.329 63.9928C364.897 63.2128 364.681 62.2948 364.681 61.2388C364.681 60.1828 364.897 59.2708 365.329 58.5028C365.761 57.7228 366.361 57.1228 367.129 56.7028C367.909 56.2828 368.803 56.0728 369.811 56.0728C370.807 56.0728 371.689 56.2768 372.457 56.6848C373.225 57.0928 373.825 57.6808 374.257 58.4488C374.689 59.2048 374.905 60.0988 374.905 61.1308ZM371.305 60.2488C371.305 59.8168 371.161 59.4808 370.873 59.2408C370.585 58.9888 370.225 58.8628 369.793 58.8628C369.361 58.8628 369.007 58.9828 368.731 59.2228C368.455 59.4508 368.275 59.7928 368.191 60.2488H371.305Z" fill="white"/>
<path opacity="0.5" d="M284.75 96.3922H283.476L278.352 88.6222V96.3922H277.078V86.6202H278.352L283.476 94.3762V86.6202H284.75V96.3922ZM292.578 86.6342V87.6702H288.336V90.9602H291.78V91.9962H288.336V96.3922H287.062V86.6342H292.578ZM300.262 86.6342V87.6702H297.602V96.3922H296.328V87.6702H293.654V86.6342H300.262Z" fill="white"/>
<path d="M338.223 160.5H344.793V165H332.343V143.85H338.223V160.5ZM353.259 143.85V165H347.379V143.85H353.259ZM381.598 143.85V165H375.718V153.33L371.728 165H366.808L362.788 153.24V165H356.908V143.85H364.018L369.328 157.59L374.518 143.85H381.598ZM391.125 143.85V165H385.245V143.85H391.125ZM410.703 143.85V148.53H405.063V165H399.183V148.53H393.603V143.85H410.703ZM419.059 148.56V152.01H425.809V156.48H419.059V160.29H426.709V165H413.179V143.85H426.709V148.56H419.059ZM438.284 143.85C440.504 143.85 442.444 144.3 444.104 145.2C445.784 146.08 447.074 147.32 447.974 148.92C448.874 150.52 449.324 152.35 449.324 154.41C449.324 156.45 448.864 158.27 447.944 159.87C447.044 161.47 445.754 162.73 444.074 163.65C442.414 164.55 440.484 165 438.284 165H429.914V143.85H438.284ZM437.834 159.81C439.554 159.81 440.904 159.34 441.884 158.4C442.864 157.46 443.354 156.13 443.354 154.41C443.354 152.67 442.864 151.33 441.884 150.39C440.904 149.43 439.554 148.95 437.834 148.95H435.794V159.81H437.834ZM336.333 201.56V205.01H343.083V209.48H336.333V213.29H343.983V218H330.453V196.85H343.983V201.56H336.333ZM355.559 196.85C357.779 196.85 359.719 197.3 361.379 198.2C363.059 199.08 364.349 200.32 365.249 201.92C366.149 203.52 366.599 205.35 366.599 207.41C366.599 209.45 366.139 211.27 365.219 212.87C364.319 214.47 363.029 215.73 361.349 216.65C359.689 217.55 357.759 218 355.559 218H347.189V196.85H355.559ZM355.109 212.81C356.829 212.81 358.179 212.34 359.159 211.4C360.139 210.46 360.629 209.13 360.629 207.41C360.629 205.67 360.139 204.33 359.159 203.39C358.179 202.43 356.829 201.95 355.109 201.95H353.069V212.81H355.109ZM375.429 196.85V218H369.549V196.85H375.429ZM395.008 196.85V201.53H389.368V218H383.488V201.53H377.908V196.85H395.008ZM403.363 196.85V218H397.483V196.85H403.363ZM417.152 218.21C415.172 218.21 413.352 217.75 411.692 216.83C410.032 215.89 408.712 214.6 407.732 212.96C406.772 211.3 406.292 209.43 406.292 207.35C406.292 205.27 406.772 203.41 407.732 201.77C408.712 200.11 410.032 198.82 411.692 197.9C413.352 196.98 415.172 196.52 417.152 196.52C419.152 196.52 420.972 196.98 422.612 197.9C424.272 198.82 425.582 200.11 426.542 201.77C427.502 203.41 427.982 205.27 427.982 207.35C427.982 209.43 427.502 211.3 426.542 212.96C425.582 214.6 424.272 215.89 422.612 216.83C420.952 217.75 419.132 218.21 417.152 218.21ZM417.152 212.75C418.652 212.75 419.832 212.26 420.692 211.28C421.572 210.3 422.012 208.99 422.012 207.35C422.012 205.67 421.572 204.35 420.692 203.39C419.832 202.41 418.652 201.92 417.152 201.92C415.632 201.92 414.442 202.41 413.582 203.39C412.722 204.35 412.292 205.67 412.292 207.35C412.292 209.01 412.722 210.33 413.582 211.31C414.442 212.27 415.632 212.75 417.152 212.75ZM450.515 218H444.635L436.805 206.18V218H430.925V196.85H436.805L444.635 208.82V196.85H450.515V218ZM385.539 271H379.659L371.829 259.18V271H365.949V249.85H371.829L379.659 261.82V249.85H385.539V271ZM403.529 249.85V254.53H395.069V258.25H401.309V262.72H395.069V271H389.189V249.85H403.529ZM422.235 249.85V254.53H416.595V271H410.715V254.53H405.135V249.85H422.235Z" fill="white"/>
<rect y="154" width="282" height="400" rx="30" fill="#1D1763"/>
<mask id="mask1" style="mask-type:alpha" maskUnits="userSpaceOnUse" x="0" y="154" width="282" height="400">
<rect y="154" width="282" height="400" rx="30" fill="#1D1763"/>
</mask>
<g mask="url(#mask1)">
<path d="M42.4664 782.978C40.9309 782.973 39.4071 782.678 37.9584 782.108C-19.8162 760.464 -54.5846 363.8 -58.3672 318.598L-50.5948 317.786C-40.4907 438.943 -4.42691 757.099 40.3938 773.868C42.6152 774.682 45.0536 774.18 46.8708 772.534C86.769 742.244 112.314 398.151 118.791 268.174L126.564 268.638C125.579 287.902 102.417 740.852 51.2233 779.729C48.6652 781.78 45.6117 782.913 42.4664 782.978Z" fill="#4E94D8"/>
<path fill-rule="evenodd" clip-rule="evenodd" d="M472.14 264.147L360.101 444.052L354.682 457.376L275.838 650.605L227.218 667.129L147.332 706.17H120.391L96.3158 690.868L65.0493 616.683L29.197 611.331H16.7946L-84.1443 553.554L-97.8494 538.833L-88.9385 453.71L-145.375 377.431L-196.6 253.034L231.127 237.034L463.02 252.336L472.14 264.147Z" fill="#1B1767"/>
<g style="mix-blend-mode:multiply" opacity="0.5">
<path fill-rule="evenodd" clip-rule="evenodd" d="M360.062 458.281L280.794 650.805L232.042 667.269L151.937 706.169H124.922L100.781 690.922L69.429 617.008L33.4787 611.674H21.0424L48.2664 591.906L40.4284 483.093L18.2207 430.512C18.2207 430.512 77.0058 515.035 77.0058 521.586V560.949L250.33 486.049L266.006 458.571L262.714 371.961L360.062 458.281Z" fill="#140E57"/>
</g>
<g style="mix-blend-mode:multiply" opacity="0.5">
<path fill-rule="evenodd" clip-rule="evenodd" d="M-88.0629 452.917L-82.8707 443.248C-82.8707 443.248 -31.7789 426.764 14.484 428.687L-25.2886 369.857C-65.0382 365.662 -105.119 367.918 -144.295 376.555L-88.0629 452.917Z" fill="#140E57"/>
</g>
<g style="mix-blend-mode:multiply" opacity="0.5">
<path fill-rule="evenodd" clip-rule="evenodd" d="M66.7075 616.907L139.752 598.845L194.731 539.448L247.983 486.13L74.2999 560.926L45.5011 591.84L18.2207 611.581L66.7075 616.907Z" fill="url(#paint12_linear)"/>
</g>
<g style="mix-blend-mode:multiply" opacity="0.5">
<path fill-rule="evenodd" clip-rule="evenodd" d="M98.543 690.922H125.163L197.07 666.284L247.347 611.674L269.029 497.991L247.347 486.049L262.945 458.571L259.67 371.961L356.325 458.281L277.659 650.805L229.15 667.269L149.444 706.169H122.564L98.543 690.922Z" fill="url(#paint13_linear)"/>
</g>
<path opacity="0.4" fill-rule="evenodd" clip-rule="evenodd" d="M-20.9119 360.619C-22.1545 365.009 -10.9716 382.242 -7.59191 384.272C-4.2122 386.303 10.748 366.436 10.748 360.619C10.748 354.801 -18.6754 352.496 -20.9119 360.619Z" fill="#FF5E31"/>
<path opacity="0.4" fill-rule="evenodd" clip-rule="evenodd" d="M-28.4805 249.537C-28.4805 249.537 -24.41 343.42 -18.5131 348.782C-12.6162 354.143 27.4619 356.254 62.0084 346.272C96.5549 336.291 135.902 243.263 135.902 243.263L-28.4805 249.537Z" fill="#20185D"/>
<path opacity="0.4" fill-rule="evenodd" clip-rule="evenodd" d="M258.592 456.121C256.651 461.507 186.87 443.38 163.732 418.244C140.593 393.109 115.199 307.046 117.35 296.274C119.502 285.501 144.896 240.443 144.896 240.443L270.398 239.111L258.855 347.819C258.855 347.819 260.796 450.04 258.592 456.121Z" fill="#4D467D"/>
<path opacity="0.4" fill-rule="evenodd" clip-rule="evenodd" d="M249.231 473.368C259.69 466.362 134.598 429.897 101.495 434.663C68.3915 439.43 74.4579 542.22 82.3022 548.078C90.1466 553.935 240.079 479.512 249.231 473.368Z" fill="#20185D"/>
<path opacity="0.4" fill-rule="evenodd" clip-rule="evenodd" d="M127.342 419.217C123.508 416.823 134.9 407.197 138.012 407.251C141.124 407.304 147.682 418.791 147.07 420.918C146.459 423.046 129.843 420.759 127.342 419.217Z" fill="#FFD8B3"/>
<path opacity="0.4" fill-rule="evenodd" clip-rule="evenodd" d="M2.41263 405.691C-3.46705 399.997 18.1618 363.211 23.4115 358.94C28.6612 354.669 103.155 335.08 113.339 339.351C123.524 343.622 139.22 379.212 135.283 385.419C131.346 391.626 70.3965 460.813 63.2568 463.205C56.1172 465.597 16.6919 420.041 2.41263 405.691Z" fill="#4E94D8"/>
<path opacity="0.2" fill-rule="evenodd" clip-rule="evenodd" d="M-28.4805 281.199L122.826 268.174L106.803 297.235H-27.3772L-28.4805 281.199Z" fill="#FF862F"/>
<g style="mix-blend-mode:multiply" opacity="0.5">
<path fill-rule="evenodd" clip-rule="evenodd" d="M255.799 473.678L251.38 471.75C251.38 471.75 241.709 458.144 188.207 446.692C188.207 446.692 240.201 462.056 258.295 458.031L264.794 458.314L255.799 473.678Z" fill="url(#paint14_linear)"/>
</g>
<g style="mix-blend-mode:multiply" opacity="0.2">
<path fill-rule="evenodd" clip-rule="evenodd" d="M128.432 352.241L257.323 338.746L256.691 363.656H132.483L128.432 352.241Z" fill="url(#paint15_linear)"/>
</g>
<g style="mix-blend-mode:multiply" opacity="0.5">
<path fill-rule="evenodd" clip-rule="evenodd" d="M-182.174 294.128H-31.7656L-26.0958 305.535V294.128L120.113 278.011L122.896 281.813L250.31 297.533L255.455 264.845L122.896 226.653L-190.994 269.045L-182.174 294.128Z" fill="url(#paint16_linear)"/>
</g>
<path fill-rule="evenodd" clip-rule="evenodd" d="M-88.6739 454.125L-97.5957 538.673L-88.6739 550.751L17.1883 610.68L44.3713 590.974L36.5451 482.5L14.3709 430.083C14.3709 430.083 -55.5952 430.604 -83.4564 444.531L-88.6739 454.125Z" fill="#4E94D8"/>
<g style="mix-blend-mode:soft-light" opacity="0.8">
<path fill-rule="evenodd" clip-rule="evenodd" d="M-93.8594 535.952H-55.6404L-24.4229 517.831L21.9558 444.374L19.1131 428.203C-14.2928 426.949 -47.6558 431.794 -79.5931 442.539L-84.8574 452.058L-93.8594 535.952Z" fill="#E0E7FF"/>
</g>
<g style="mix-blend-mode:multiply" opacity="0.5">
<path fill-rule="evenodd" clip-rule="evenodd" d="M-26.6113 519.82L44.3722 589.922L36.7776 482.157L15.2598 430.083L17.9939 446.274L-26.6113 519.82Z" fill="url(#paint17_linear)"/>
</g>
<g style="mix-blend-mode:multiply" opacity="0.5">
<path fill-rule="evenodd" clip-rule="evenodd" d="M43.375 589.922L72.3907 559.263V520.28L13.0404 430.083L15.8892 446.274L-19.1406 501.735L-8.22017 537.963L43.375 589.922Z" fill="url(#paint18_linear)"/>
</g>
<path fill-rule="evenodd" clip-rule="evenodd" d="M-195.015 213.99C-195.015 213.99 -229.882 191.477 -238.351 193.582C-246.819 195.687 -285.398 219.078 -289.998 236.621L-254.713 228.434C-254.713 228.434 -294.598 276.327 -273.009 332.523L-206.359 244.632C-206.359 244.632 -205.209 264.164 -195.015 267.321C-180.849 271.707 -82.2068 252.702 -82.2068 252.702C-82.2068 252.702 -66.5245 283.052 -48.4375 288.724C-30.3505 294.396 111.052 253.111 123.546 246.737C136.039 240.363 187.111 246.737 187.111 246.737C203.61 254.934 220.607 261.812 237.975 267.321C260.871 273.929 384.657 252 384.657 252C384.657 252 535.939 313.05 539.86 311.413C543.78 309.776 532.019 255.684 501.334 240.305L595.428 252C595.428 252 523.498 210.306 513.723 207.733C503.947 205.16 470.596 217.616 470.596 217.616L-195.015 213.99Z" fill="#110A49"/>
<path fill-rule="evenodd" clip-rule="evenodd" d="M-195.542 218.352H-213.41L122.836 249.49L478.831 243.374L494.557 227.527L469.688 221.8L-195.542 218.352Z" fill="#25237C"/>
<path fill-rule="evenodd" clip-rule="evenodd" d="M78.0312 220.427C78.0312 220.427 68.5659 256.657 91.8411 272.092C115.116 287.528 186.338 220.427 186.338 220.427H78.0312Z" fill="#356CAB"/>
<path fill-rule="evenodd" clip-rule="evenodd" d="M271.937 438.04L249.85 282.858L260.867 252.684L310.913 185.611C310.913 185.611 430.439 154 513.589 154L520.708 172.679L479.809 380.565L358.983 454.995L282.538 447.868L271.937 438.04Z" fill="#4E94D8"/>
<g style="mix-blend-mode:soft-light" opacity="0.8">
<path fill-rule="evenodd" clip-rule="evenodd" d="M309.792 185.137C309.792 185.137 327.647 315.939 326.372 332.799C325.096 349.658 271.531 440.464 271.531 440.464L249.85 283.5L260.665 252.98L309.792 185.137Z" fill="#E0E7FF"/>
</g>
<g style="mix-blend-mode:multiply" opacity="0.5">
<path fill-rule="evenodd" clip-rule="evenodd" d="M331.96 521.422L280.859 451.563L270.398 441.683L312.974 377.718L357.798 355.356L479.613 383.9L357.798 458.728L331.96 521.422Z" fill="url(#paint19_linear)"/>
</g>
<path opacity="0.2" fill-rule="evenodd" clip-rule="evenodd" d="M255.453 317.7L317.621 228.731L496.423 301.694L492.262 317.7L347.69 252.974V273.245L490.389 332.713L487.215 349.129L328.649 267.578L257.534 332.713L255.453 317.7Z" fill="#FF9C8D"/>
<g style="mix-blend-mode:multiply" opacity="0.5">
<path fill-rule="evenodd" clip-rule="evenodd" d="M357.798 457.07L280.859 449.876L270.398 439.955L312.974 375.731L357.798 353.278L479.613 381.938L357.798 457.07Z" fill="url(#paint20_linear)"/>
</g>
</g>
<g filter="url(#filter2_b)">
<rect y="154" width="282" height="400" rx="21" fill="#0D81B9" fill-opacity="0.5"/>
</g>
<g filter="url(#filter3_b)">
<rect y="154" width="282" height="400" rx="21" fill="url(#paint21_linear)"/>
</g>
<rect x="13.5" y="172.875" width="256" height="360.837" rx="13.5" stroke="url(#paint22_linear)"/>
<rect x="13.5" y="172.875" width="256" height="360.837" rx="13.5" stroke="url(#paint23_linear)"/>
<path d="M42.796 220.422C41.32 220.422 40.108 220.074 39.16 219.378C38.212 218.67 37.702 217.662 37.63 216.354H41.392C41.428 216.798 41.56 217.122 41.788 217.326C42.016 217.53 42.31 217.632 42.67 217.632C42.994 217.632 43.258 217.554 43.462 217.398C43.678 217.23 43.786 217.002 43.786 216.714C43.786 216.342 43.612 216.054 43.264 215.85C42.916 215.646 42.352 215.418 41.572 215.166C40.744 214.89 40.072 214.626 39.556 214.374C39.052 214.11 38.608 213.732 38.224 213.24C37.852 212.736 37.666 212.082 37.666 211.278C37.666 210.462 37.87 209.766 38.278 209.19C38.686 208.602 39.25 208.158 39.97 207.858C40.69 207.558 41.506 207.408 42.418 207.408C43.894 207.408 45.07 207.756 45.946 208.452C46.834 209.136 47.308 210.102 47.368 211.35H43.534C43.522 210.966 43.402 210.678 43.174 210.486C42.958 210.294 42.676 210.198 42.328 210.198C42.064 210.198 41.848 210.276 41.68 210.432C41.512 210.588 41.428 210.81 41.428 211.098C41.428 211.338 41.518 211.548 41.698 211.728C41.89 211.896 42.124 212.046 42.4 212.178C42.676 212.298 43.084 212.454 43.624 212.646C44.428 212.922 45.088 213.198 45.604 213.474C46.132 213.738 46.582 214.116 46.954 214.608C47.338 215.088 47.53 215.7 47.53 216.444C47.53 217.2 47.338 217.878 46.954 218.478C46.582 219.078 46.036 219.552 45.316 219.9C44.608 220.248 43.768 220.422 42.796 220.422ZM55.3081 217.29V220.296H53.7781C51.1981 220.296 49.9081 219.018 49.9081 216.462V213.132H48.6661V210.198H49.9081V207.75H53.4541V210.198H55.2901V213.132H53.4541V216.516C53.4541 216.792 53.5141 216.99 53.6341 217.11C53.7661 217.23 53.9821 217.29 54.2821 217.29H55.3081ZM56.5303 215.238C56.5303 214.194 56.7163 213.282 57.0883 212.502C57.4723 211.722 57.9883 211.122 58.6363 210.702C59.2963 210.282 60.0283 210.072 60.8323 210.072C61.5283 210.072 62.1283 210.21 62.6323 210.486C63.1363 210.762 63.5263 211.134 63.8023 211.602V210.198H67.3303V220.296H63.8023V218.892C63.5263 219.36 63.1303 219.732 62.6143 220.008C62.1103 220.284 61.5163 220.422 60.8323 220.422C60.0283 220.422 59.2963 220.212 58.6363 219.792C57.9883 219.372 57.4723 218.772 57.0883 217.992C56.7163 217.2 56.5303 216.282 56.5303 215.238ZM63.8023 215.238C63.8023 214.59 63.6223 214.08 63.2623 213.708C62.9143 213.336 62.4823 213.15 61.9663 213.15C61.4383 213.15 61.0003 213.336 60.6523 213.708C60.3043 214.068 60.1303 214.578 60.1303 215.238C60.1303 215.886 60.3043 216.402 60.6523 216.786C61.0003 217.158 61.4383 217.344 61.9663 217.344C62.4823 217.344 62.9143 217.158 63.2623 216.786C63.6223 216.414 63.8023 215.898 63.8023 215.238ZM73.0487 211.98C73.4447 211.404 73.9247 210.948 74.4887 210.612C75.0527 210.276 75.6587 210.108 76.3067 210.108V213.87H75.3167C74.5487 213.87 73.9787 214.02 73.6067 214.32C73.2347 214.62 73.0487 215.142 73.0487 215.886V220.296H69.5207V210.198H73.0487V211.98ZM86.1648 220.422C84.6888 220.422 83.4768 220.074 82.5288 219.378C81.5808 218.67 81.0708 217.662 80.9988 216.354H84.7608C84.7968 216.798 84.9288 217.122 85.1568 217.326C85.3848 217.53 85.6788 217.632 86.0388 217.632C86.3628 217.632 86.6268 217.554 86.8308 217.398C87.0468 217.23 87.1548 217.002 87.1548 216.714C87.1548 216.342 86.9808 216.054 86.6328 215.85C86.2848 215.646 85.7208 215.418 84.9408 215.166C84.1128 214.89 83.4408 214.626 82.9248 214.374C82.4208 214.11 81.9768 213.732 81.5928 213.24C81.2208 212.736 81.0348 212.082 81.0348 211.278C81.0348 210.462 81.2388 209.766 81.6468 209.19C82.0548 208.602 82.6188 208.158 83.3388 207.858C84.0588 207.558 84.8748 207.408 85.7868 207.408C87.2628 207.408 88.4388 207.756 89.3148 208.452C90.2028 209.136 90.6768 210.102 90.7368 211.35H86.9028C86.8908 210.966 86.7708 210.678 86.5428 210.486C86.3268 210.294 86.0448 210.198 85.6968 210.198C85.4328 210.198 85.2168 210.276 85.0488 210.432C84.8808 210.588 84.7968 210.81 84.7968 211.098C84.7968 211.338 84.8868 211.548 85.0668 211.728C85.2588 211.896 85.4928 212.046 85.7688 212.178C86.0448 212.298 86.4528 212.454 86.9928 212.646C87.7968 212.922 88.4568 213.198 88.9728 213.474C89.5008 213.738 89.9508 214.116 90.3228 214.608C90.7068 215.088 90.8988 215.7 90.8988 216.444C90.8988 217.2 90.7068 217.878 90.3228 218.478C89.9508 219.078 89.4048 219.552 88.6848 219.9C87.9768 220.248 87.1368 220.422 86.1648 220.422ZM98.6769 217.29V220.296H97.1469C94.5669 220.296 93.2769 219.018 93.2769 216.462V213.132H92.0349V210.198H93.2769V207.75H96.8229V210.198H98.6589V213.132H96.8229V216.516C96.8229 216.792 96.8829 216.99 97.0029 217.11C97.1349 217.23 97.3509 217.29 97.6509 217.29H98.6769ZM104.003 211.98C104.399 211.404 104.879 210.948 105.443 210.612C106.007 210.276 106.613 210.108 107.261 210.108V213.87H106.271C105.503 213.87 104.933 214.02 104.561 214.32C104.189 214.62 104.003 215.142 104.003 215.886V220.296H100.475V210.198H104.003V211.98ZM110.488 209.262C109.864 209.262 109.36 209.094 108.976 208.758C108.604 208.41 108.418 207.978 108.418 207.462C108.418 206.934 108.604 206.496 108.976 206.148C109.36 205.8 109.864 205.626 110.488 205.626C111.1 205.626 111.592 205.8 111.964 206.148C112.348 206.496 112.54 206.934 112.54 207.462C112.54 207.978 112.348 208.41 111.964 208.758C111.592 209.094 111.1 209.262 110.488 209.262ZM112.234 210.198V220.296H108.706V210.198H112.234ZM120.741 220.296L117.951 216.156V220.296H114.423V206.976H117.951V214.158L120.741 210.198H124.971L120.993 215.274L125.043 220.296H120.741ZM135.905 215.13C135.905 215.406 135.887 215.682 135.851 215.958H129.173C129.209 216.51 129.359 216.924 129.623 217.2C129.899 217.464 130.247 217.596 130.667 217.596C131.255 217.596 131.675 217.332 131.927 216.804H135.689C135.533 217.5 135.227 218.124 134.771 218.676C134.327 219.216 133.763 219.642 133.079 219.954C132.395 220.266 131.639 220.422 130.811 220.422C129.815 220.422 128.927 220.212 128.147 219.792C127.379 219.372 126.773 218.772 126.329 217.992C125.897 217.212 125.681 216.294 125.681 215.238C125.681 214.182 125.897 213.27 126.329 212.502C126.761 211.722 127.361 211.122 128.129 210.702C128.909 210.282 129.803 210.072 130.811 210.072C131.807 210.072 132.689 210.276 133.457 210.684C134.225 211.092 134.825 211.68 135.257 212.448C135.689 213.204 135.905 214.098 135.905 215.13ZM132.305 214.248C132.305 213.816 132.161 213.48 131.873 213.24C131.585 212.988 131.225 212.862 130.793 212.862C130.361 212.862 130.007 212.982 129.731 213.222C129.455 213.45 129.275 213.792 129.191 214.248H132.305Z" fill="white"/>
<path opacity="0.5" d="M45.75 250.392H44.476L39.352 242.622V250.392H38.078V240.62H39.352L44.476 248.376V240.62H45.75V250.392ZM53.5778 240.634V241.67H49.3358V244.96H52.7798V245.996H49.3358V250.392H48.0618V240.634H53.5778ZM61.2624 240.634V241.67H58.6024V250.392H57.3284V241.67H54.6544V240.634H61.2624Z" fill="white"/>
<rect x="75" y="475" width="134" height="42" rx="21" fill="url(#paint24_linear)"/>
<path d="M98.429 494.424C98.429 493.523 98.624 492.721 99.014 492.019C99.404 491.308 99.9457 490.758 100.639 490.368C101.341 489.969 102.134 489.77 103.018 489.77C104.101 489.77 105.029 490.056 105.8 490.628C106.571 491.2 107.087 491.98 107.347 492.968H104.903C104.721 492.587 104.461 492.296 104.123 492.097C103.794 491.898 103.417 491.798 102.992 491.798C102.307 491.798 101.753 492.036 101.328 492.513C100.903 492.99 100.691 493.627 100.691 494.424C100.691 495.221 100.903 495.858 101.328 496.335C101.753 496.812 102.307 497.05 102.992 497.05C103.417 497.05 103.794 496.95 104.123 496.751C104.461 496.552 104.721 496.261 104.903 495.88H107.347C107.087 496.868 106.571 497.648 105.8 498.22C105.029 498.783 104.101 499.065 103.018 499.065C102.134 499.065 101.341 498.87 100.639 498.48C99.9457 498.081 99.404 497.531 99.014 496.829C98.624 496.127 98.429 495.325 98.429 494.424ZM112.01 499.104C111.3 499.104 110.658 498.952 110.086 498.649C109.523 498.346 109.077 497.912 108.747 497.349C108.427 496.786 108.266 496.127 108.266 495.373C108.266 494.628 108.431 493.973 108.76 493.41C109.09 492.838 109.54 492.4 110.112 492.097C110.684 491.794 111.326 491.642 112.036 491.642C112.747 491.642 113.388 491.794 113.96 492.097C114.532 492.4 114.983 492.838 115.312 493.41C115.642 493.973 115.806 494.628 115.806 495.373C115.806 496.118 115.637 496.777 115.299 497.349C114.97 497.912 114.515 498.346 113.934 498.649C113.362 498.952 112.721 499.104 112.01 499.104ZM112.01 497.18C112.435 497.18 112.795 497.024 113.089 496.712C113.393 496.4 113.544 495.954 113.544 495.373C113.544 494.792 113.397 494.346 113.102 494.034C112.816 493.722 112.461 493.566 112.036 493.566C111.603 493.566 111.243 493.722 110.957 494.034C110.671 494.337 110.528 494.784 110.528 495.373C110.528 495.954 110.667 496.4 110.944 496.712C111.23 497.024 111.586 497.18 112.01 497.18ZM126.242 491.668C127.143 491.668 127.858 491.941 128.387 492.487C128.924 493.033 129.193 493.791 129.193 494.762V499H126.983V495.061C126.983 494.593 126.857 494.233 126.606 493.982C126.363 493.722 126.025 493.592 125.592 493.592C125.158 493.592 124.816 493.722 124.565 493.982C124.322 494.233 124.201 494.593 124.201 495.061V499H121.991V495.061C121.991 494.593 121.865 494.233 121.614 493.982C121.371 493.722 121.033 493.592 120.6 493.592C120.166 493.592 119.824 493.722 119.573 493.982C119.33 494.233 119.209 494.593 119.209 495.061V499H116.986V491.746H119.209V492.656C119.434 492.353 119.729 492.114 120.093 491.941C120.457 491.759 120.868 491.668 121.328 491.668C121.874 491.668 122.359 491.785 122.784 492.019C123.217 492.253 123.555 492.587 123.798 493.02C124.049 492.621 124.391 492.296 124.825 492.045C125.258 491.794 125.73 491.668 126.242 491.668ZM131.865 490.992C131.475 490.992 131.155 490.879 130.903 490.654C130.661 490.42 130.539 490.134 130.539 489.796C130.539 489.449 130.661 489.163 130.903 488.938C131.155 488.704 131.475 488.587 131.865 488.587C132.247 488.587 132.559 488.704 132.801 488.938C133.053 489.163 133.178 489.449 133.178 489.796C133.178 490.134 133.053 490.42 132.801 490.654C132.559 490.879 132.247 490.992 131.865 490.992ZM132.97 491.746V499H130.747V491.746H132.97ZM139.001 491.668C139.851 491.668 140.527 491.945 141.029 492.5C141.541 493.046 141.796 493.8 141.796 494.762V499H139.586V495.061C139.586 494.576 139.461 494.199 139.209 493.93C138.958 493.661 138.62 493.527 138.195 493.527C137.771 493.527 137.433 493.661 137.181 493.93C136.93 494.199 136.804 494.576 136.804 495.061V499H134.581V491.746H136.804V492.708C137.03 492.387 137.333 492.136 137.714 491.954C138.096 491.763 138.525 491.668 139.001 491.668ZM146.097 491.642C146.608 491.642 147.055 491.746 147.436 491.954C147.826 492.162 148.125 492.435 148.333 492.773V491.746H150.556V498.987C150.556 499.654 150.422 500.257 150.153 500.794C149.893 501.34 149.49 501.773 148.944 502.094C148.407 502.415 147.735 502.575 146.929 502.575C145.854 502.575 144.983 502.319 144.316 501.808C143.649 501.305 143.267 500.621 143.172 499.754H145.369C145.438 500.031 145.603 500.248 145.863 500.404C146.123 500.569 146.444 500.651 146.825 500.651C147.284 500.651 147.648 500.517 147.917 500.248C148.194 499.988 148.333 499.568 148.333 498.987V497.96C148.116 498.298 147.817 498.575 147.436 498.792C147.055 499 146.608 499.104 146.097 499.104C145.499 499.104 144.957 498.952 144.472 498.649C143.987 498.337 143.601 497.899 143.315 497.336C143.038 496.764 142.899 496.105 142.899 495.36C142.899 494.615 143.038 493.96 143.315 493.397C143.601 492.834 143.987 492.4 144.472 492.097C144.957 491.794 145.499 491.642 146.097 491.642ZM148.333 495.373C148.333 494.818 148.177 494.381 147.865 494.06C147.562 493.739 147.189 493.579 146.747 493.579C146.305 493.579 145.928 493.739 145.616 494.06C145.313 494.372 145.161 494.805 145.161 495.36C145.161 495.915 145.313 496.357 145.616 496.686C145.928 497.007 146.305 497.167 146.747 497.167C147.189 497.167 147.562 497.007 147.865 496.686C148.177 496.365 148.333 495.928 148.333 495.373ZM158.221 499.091C157.554 499.091 156.956 498.983 156.427 498.766C155.899 498.549 155.474 498.229 155.153 497.804C154.841 497.379 154.677 496.868 154.659 496.27H157.025C157.06 496.608 157.177 496.868 157.376 497.05C157.576 497.223 157.836 497.31 158.156 497.31C158.486 497.31 158.746 497.236 158.936 497.089C159.127 496.933 159.222 496.721 159.222 496.452C159.222 496.227 159.144 496.04 158.988 495.893C158.841 495.746 158.655 495.624 158.429 495.529C158.213 495.434 157.901 495.325 157.493 495.204C156.904 495.022 156.423 494.84 156.05 494.658C155.678 494.476 155.357 494.207 155.088 493.852C154.82 493.497 154.685 493.033 154.685 492.461C154.685 491.612 154.993 490.949 155.608 490.472C156.224 489.987 157.025 489.744 158.013 489.744C159.019 489.744 159.829 489.987 160.444 490.472C161.06 490.949 161.389 491.616 161.432 492.474H159.027C159.01 492.179 158.902 491.95 158.702 491.785C158.503 491.612 158.247 491.525 157.935 491.525C157.667 491.525 157.45 491.599 157.285 491.746C157.121 491.885 157.038 492.088 157.038 492.357C157.038 492.652 157.177 492.881 157.454 493.046C157.732 493.211 158.165 493.388 158.754 493.579C159.344 493.778 159.82 493.969 160.184 494.151C160.557 494.333 160.878 494.597 161.146 494.944C161.415 495.291 161.549 495.737 161.549 496.283C161.549 496.803 161.415 497.275 161.146 497.7C160.886 498.125 160.505 498.463 160.002 498.714C159.5 498.965 158.906 499.091 158.221 499.091ZM166.219 499.104C165.509 499.104 164.867 498.952 164.295 498.649C163.732 498.346 163.286 497.912 162.956 497.349C162.636 496.786 162.475 496.127 162.475 495.373C162.475 494.628 162.64 493.973 162.969 493.41C163.299 492.838 163.749 492.4 164.321 492.097C164.893 491.794 165.535 491.642 166.245 491.642C166.956 491.642 167.597 491.794 168.169 492.097C168.741 492.4 169.192 492.838 169.521 493.41C169.851 493.973 170.015 494.628 170.015 495.373C170.015 496.118 169.846 496.777 169.508 497.349C169.179 497.912 168.724 498.346 168.143 498.649C167.571 498.952 166.93 499.104 166.219 499.104ZM166.219 497.18C166.644 497.18 167.004 497.024 167.298 496.712C167.602 496.4 167.753 495.954 167.753 495.373C167.753 494.792 167.606 494.346 167.311 494.034C167.025 493.722 166.67 493.566 166.245 493.566C165.812 493.566 165.452 493.722 165.166 494.034C164.88 494.337 164.737 494.784 164.737 495.373C164.737 495.954 164.876 496.4 165.153 496.712C165.439 497.024 165.795 497.18 166.219 497.18ZM174.497 499.104C173.786 499.104 173.145 498.952 172.573 498.649C172.009 498.346 171.563 497.912 171.234 497.349C170.913 496.786 170.753 496.127 170.753 495.373C170.753 494.628 170.917 493.973 171.247 493.41C171.576 492.838 172.027 492.4 172.599 492.097C173.171 491.794 173.812 491.642 174.523 491.642C175.233 491.642 175.875 491.794 176.447 492.097C177.019 492.4 177.469 492.838 177.799 493.41C178.128 493.973 178.293 494.628 178.293 495.373C178.293 496.118 178.124 496.777 177.786 497.349C177.456 497.912 177.001 498.346 176.421 498.649C175.849 498.952 175.207 499.104 174.497 499.104ZM174.497 497.18C174.921 497.18 175.281 497.024 175.576 496.712C175.879 496.4 176.031 495.954 176.031 495.373C176.031 494.792 175.883 494.346 175.589 494.034C175.303 493.722 174.947 493.566 174.523 493.566C174.089 493.566 173.73 493.722 173.444 494.034C173.158 494.337 173.015 494.784 173.015 495.373C173.015 495.954 173.153 496.4 173.431 496.712C173.717 497.024 174.072 497.18 174.497 497.18ZM183.892 491.668C184.741 491.668 185.417 491.945 185.92 492.5C186.431 493.046 186.687 493.8 186.687 494.762V499H184.477V495.061C184.477 494.576 184.351 494.199 184.1 493.93C183.849 493.661 183.511 493.527 183.086 493.527C182.661 493.527 182.323 493.661 182.072 493.93C181.821 494.199 181.695 494.576 181.695 495.061V499H179.472V491.746H181.695V492.708C181.92 492.387 182.224 492.136 182.605 491.954C182.986 491.763 183.415 491.668 183.892 491.668Z" fill="#FEF9F8"/>
<path d="M85.2229 313.5H91.7929V318H79.3429V296.85H85.2229V313.5ZM100.259 296.85V318H94.3792V296.85H100.259ZM128.598 296.85V318H122.718V306.33L118.728 318H113.808L109.788 306.24V318H103.908V296.85H111.018L116.328 310.59L121.518 296.85H128.598ZM138.125 296.85V318H132.245V296.85H138.125ZM157.703 296.85V301.53H152.063V318H146.183V301.53H140.603V296.85H157.703ZM166.059 301.56V305.01H172.809V309.48H166.059V313.29H173.709V318H160.179V296.85H173.709V301.56H166.059ZM185.284 296.85C187.504 296.85 189.444 297.3 191.104 298.2C192.784 299.08 194.074 300.32 194.974 301.92C195.874 303.52 196.324 305.35 196.324 307.41C196.324 309.45 195.864 311.27 194.944 312.87C194.044 314.47 192.754 315.73 191.074 316.65C189.414 317.55 187.484 318 185.284 318H176.914V296.85H185.284ZM184.834 312.81C186.554 312.81 187.904 312.34 188.884 311.4C189.864 310.46 190.354 309.13 190.354 307.41C190.354 305.67 189.864 304.33 188.884 303.39C187.904 302.43 186.554 301.95 184.834 301.95H182.794V312.81H184.834ZM83.3332 354.56V358.01H90.0832V362.48H83.3332V366.29H90.9832V371H77.4532V349.85H90.9832V354.56H83.3332ZM102.559 349.85C104.779 349.85 106.719 350.3 108.379 351.2C110.059 352.08 111.349 353.32 112.249 354.92C113.149 356.52 113.599 358.35 113.599 360.41C113.599 362.45 113.139 364.27 112.219 365.87C111.319 367.47 110.029 368.73 108.349 369.65C106.689 370.55 104.759 371 102.559 371H94.1888V349.85H102.559ZM102.109 365.81C103.829 365.81 105.179 365.34 106.159 364.4C107.139 363.46 107.629 362.13 107.629 360.41C107.629 358.67 107.139 357.33 106.159 356.39C105.179 355.43 103.829 354.95 102.109 354.95H100.069V365.81H102.109ZM122.429 349.85V371H116.549V349.85H122.429ZM142.008 349.85V354.53H136.368V371H130.488V354.53H124.908V349.85H142.008ZM150.363 349.85V371H144.483V349.85H150.363ZM164.152 371.21C162.172 371.21 160.352 370.75 158.692 369.83C157.032 368.89 155.712 367.6 154.732 365.96C153.772 364.3 153.292 362.43 153.292 360.35C153.292 358.27 153.772 356.41 154.732 354.77C155.712 353.11 157.032 351.82 158.692 350.9C160.352 349.98 162.172 349.52 164.152 349.52C166.152 349.52 167.972 349.98 169.612 350.9C171.272 351.82 172.582 353.11 173.542 354.77C174.502 356.41 174.982 358.27 174.982 360.35C174.982 362.43 174.502 364.3 173.542 365.96C172.582 367.6 171.272 368.89 169.612 369.83C167.952 370.75 166.132 371.21 164.152 371.21ZM164.152 365.75C165.652 365.75 166.832 365.26 167.692 364.28C168.572 363.3 169.012 361.99 169.012 360.35C169.012 358.67 168.572 357.35 167.692 356.39C166.832 355.41 165.652 354.92 164.152 354.92C162.632 354.92 161.442 355.41 160.582 356.39C159.722 357.35 159.292 358.67 159.292 360.35C159.292 362.01 159.722 363.33 160.582 364.31C161.442 365.27 162.632 365.75 164.152 365.75ZM197.515 371H191.635L183.805 359.18V371H177.925V349.85H183.805L191.635 361.82V349.85H197.515V371ZM132.539 424H126.659L118.829 412.18V424H112.949V402.85H118.829L126.659 414.82V402.85H132.539V424ZM150.529 402.85V407.53H142.069V411.25H148.309V415.72H142.069V424H136.189V402.85H150.529ZM169.235 402.85V407.53H163.595V424H157.715V407.53H152.135V402.85H169.235Z" fill="white"/>
<rect x="299" y="233" width="282" height="400" rx="30" fill="#1D1763"/>
<mask id="mask2" style="mask-type:alpha" maskUnits="userSpaceOnUse" x="299" y="233" width="282" height="400">
<rect x="299" y="233" width="282" height="400" rx="30" fill="#1D1763"/>
</mask>
<g mask="url(#mask2)">
<path d="M341.466 861.978C339.931 861.972 338.407 861.678 336.958 861.107C279.184 839.464 244.415 442.799 240.633 397.597L248.405 396.785C258.509 517.943 294.573 836.098 339.394 852.868C341.615 853.682 344.054 853.179 345.871 851.533C385.769 821.244 411.314 477.151 417.791 347.173L425.564 347.637C424.579 366.902 401.417 819.851 350.223 858.728C347.665 860.779 344.612 861.912 341.466 861.978Z" fill="#4E94D8"/>
<path fill-rule="evenodd" clip-rule="evenodd" d="M771.14 343.147L659.101 523.052L653.682 536.376L574.838 729.604L526.218 746.129L446.332 785.17H419.391L395.316 769.868L364.049 695.683L328.197 690.33H315.795L214.856 632.554L201.151 617.833L210.062 532.71L153.625 456.431L102.4 332.034L530.127 316.033L762.02 331.336L771.14 343.147Z" fill="#1B1767"/>
<g style="mix-blend-mode:multiply" opacity="0.5">
<path fill-rule="evenodd" clip-rule="evenodd" d="M659.062 537.281L579.794 729.805L531.042 746.269L450.937 785.168H423.922L399.781 769.922L368.429 696.008L332.479 690.674H320.042L347.266 670.906L339.428 562.093L317.221 509.512C317.221 509.512 376.006 594.035 376.006 600.586V639.949L549.33 565.049L565.006 537.57L561.714 450.96L659.062 537.281Z" fill="#140E57"/>
</g>
<g style="mix-blend-mode:multiply" opacity="0.5">
<path fill-rule="evenodd" clip-rule="evenodd" d="M210.937 531.917L216.129 522.248C216.129 522.248 267.221 505.764 313.484 507.687L273.711 448.857C233.962 444.662 193.881 446.918 154.705 455.555L210.937 531.917Z" fill="#140E57"/>
</g>
<g style="mix-blend-mode:multiply" opacity="0.5">
<path fill-rule="evenodd" clip-rule="evenodd" d="M365.707 695.908L438.752 677.846L493.731 618.449L546.983 565.131L373.3 639.927L344.501 670.841L317.221 690.582L365.707 695.908Z" fill="url(#paint25_linear)"/>
</g>
<g style="mix-blend-mode:multiply" opacity="0.5">
<path fill-rule="evenodd" clip-rule="evenodd" d="M397.543 769.922H424.163L496.07 745.284L546.347 690.674L568.029 576.991L546.347 565.049L561.945 537.57L558.67 450.96L655.325 537.281L576.659 729.805L528.15 746.269L448.444 785.168H421.564L397.543 769.922Z" fill="url(#paint26_linear)"/>
</g>
<path opacity="0.4" fill-rule="evenodd" clip-rule="evenodd" d="M278.088 439.618C276.846 444.009 288.028 461.241 291.408 463.272C294.788 465.303 309.748 445.436 309.748 439.618C309.748 433.801 280.325 431.496 278.088 439.618Z" fill="#FF5E31"/>
<path opacity="0.4" fill-rule="evenodd" clip-rule="evenodd" d="M270.52 328.537C270.52 328.537 274.59 422.42 280.487 427.782C286.384 433.143 326.462 435.254 361.008 425.272C395.555 415.29 434.902 322.263 434.902 322.263L270.52 328.537Z" fill="#20185D"/>
<path opacity="0.4" fill-rule="evenodd" clip-rule="evenodd" d="M557.592 535.121C555.651 540.507 485.87 522.379 462.732 497.244C439.593 472.108 414.199 386.046 416.35 375.273C418.502 364.501 443.896 319.443 443.896 319.443L569.398 318.111L557.855 426.818C557.855 426.818 559.796 529.04 557.592 535.121Z" fill="#4D467D"/>
<path opacity="0.4" fill-rule="evenodd" clip-rule="evenodd" d="M548.231 552.368C558.69 545.362 433.598 508.897 400.495 513.663C367.392 518.43 373.458 621.22 381.302 627.078C389.147 632.935 539.079 558.512 548.231 552.368Z" fill="#20185D"/>
<path opacity="0.4" fill-rule="evenodd" clip-rule="evenodd" d="M426.342 498.217C422.508 495.824 433.9 486.198 437.012 486.251C440.124 486.304 446.682 497.791 446.07 499.919C445.459 502.046 428.843 499.759 426.342 498.217Z" fill="#FFD8B3"/>
<path opacity="0.4" fill-rule="evenodd" clip-rule="evenodd" d="M301.413 484.691C295.533 478.997 317.162 442.211 322.411 437.94C327.661 433.669 402.155 414.081 412.339 418.351C422.524 422.622 438.22 458.212 434.283 464.419C430.346 470.626 369.396 539.814 362.257 542.205C355.117 544.597 315.692 499.041 301.413 484.691Z" fill="#4E94D8"/>
<path opacity="0.2" fill-rule="evenodd" clip-rule="evenodd" d="M270.52 360.199L421.826 347.173L405.803 376.234H271.623L270.52 360.199Z" fill="#FF862F"/>
<g style="mix-blend-mode:multiply" opacity="0.5">
<path fill-rule="evenodd" clip-rule="evenodd" d="M554.799 552.678L550.38 550.751C550.38 550.751 540.709 537.145 487.207 525.693C487.207 525.693 539.201 541.056 557.295 537.031L563.794 537.315L554.799 552.678Z" fill="url(#paint27_linear)"/>
</g>
<g style="mix-blend-mode:multiply" opacity="0.2">
<path fill-rule="evenodd" clip-rule="evenodd" d="M427.432 431.242L556.323 417.746L555.691 442.656H431.483L427.432 431.242Z" fill="url(#paint28_linear)"/>
</g>
<g style="mix-blend-mode:multiply" opacity="0.5">
<path fill-rule="evenodd" clip-rule="evenodd" d="M116.826 373.128H267.234L272.904 384.535V373.128L419.113 357.012L421.896 360.814L549.31 376.533L554.455 343.846L421.896 305.654L108.006 348.045L116.826 373.128Z" fill="url(#paint29_linear)"/>
</g>
<path fill-rule="evenodd" clip-rule="evenodd" d="M210.326 533.125L201.404 617.673L210.326 629.751L316.188 689.68L343.371 669.974L335.545 561.5L313.371 509.083C313.371 509.083 243.405 509.604 215.544 523.531L210.326 533.125Z" fill="#4E94D8"/>
<g style="mix-blend-mode:soft-light" opacity="0.8">
<path fill-rule="evenodd" clip-rule="evenodd" d="M205.141 614.952H243.36L274.577 596.831L320.956 523.373L318.113 507.202C284.707 505.949 251.344 510.794 219.407 521.538L214.143 531.058L205.141 614.952Z" fill="#E0E7FF"/>
</g>
<g style="mix-blend-mode:multiply" opacity="0.5">
<path fill-rule="evenodd" clip-rule="evenodd" d="M272.389 598.82L343.372 668.922L335.778 561.157L314.26 509.083L316.994 525.274L272.389 598.82Z" fill="url(#paint30_linear)"/>
</g>
<g style="mix-blend-mode:multiply" opacity="0.5">
<path fill-rule="evenodd" clip-rule="evenodd" d="M342.375 668.922L371.391 638.263V599.28L312.04 509.083L314.889 525.274L279.859 580.735L290.78 616.963L342.375 668.922Z" fill="url(#paint31_linear)"/>
</g>
<path fill-rule="evenodd" clip-rule="evenodd" d="M103.985 292.99C103.985 292.99 69.1176 270.476 60.6492 272.581C52.1807 274.686 13.6021 298.077 9.00195 315.62L44.2873 307.433C44.2873 307.433 4.4018 355.326 25.9912 411.522L92.6412 323.631C92.6412 323.631 93.7912 343.163 103.985 346.321C118.151 350.706 216.793 331.701 216.793 331.701C216.793 331.701 232.476 362.051 250.562 367.723C268.649 373.395 410.052 332.111 422.546 325.737C435.039 319.363 486.111 325.737 486.111 325.737C502.61 333.933 519.607 340.812 536.975 346.321C559.871 352.928 683.657 331 683.657 331C683.657 331 834.939 392.05 838.86 390.412C842.78 388.775 831.019 334.684 800.334 319.304L894.428 331C894.428 331 822.498 289.305 812.723 286.732C802.947 284.159 769.596 296.615 769.596 296.615L103.985 292.99Z" fill="#110A49"/>
<path fill-rule="evenodd" clip-rule="evenodd" d="M103.458 297.352H85.5898L421.836 328.49L777.831 322.373L793.557 306.527L768.688 300.8L103.458 297.352Z" fill="#25237C"/>
<path fill-rule="evenodd" clip-rule="evenodd" d="M377.031 299.427C377.031 299.427 367.566 335.657 390.841 351.092C414.116 366.528 485.338 299.427 485.338 299.427H377.031Z" fill="#356CAB"/>
<path fill-rule="evenodd" clip-rule="evenodd" d="M570.937 517.04L548.85 361.858L559.867 331.684L609.913 264.611C609.913 264.611 729.439 233 812.589 233L819.708 251.679L778.809 459.565L657.983 533.995L581.538 526.868L570.937 517.04Z" fill="#4E94D8"/>
<g style="mix-blend-mode:soft-light" opacity="0.8">
<path fill-rule="evenodd" clip-rule="evenodd" d="M608.792 264.137C608.792 264.137 626.647 394.939 625.372 411.798C624.096 428.657 570.531 519.463 570.531 519.463L548.85 362.5L559.665 331.98L608.792 264.137Z" fill="#E0E7FF"/>
</g>
<g style="mix-blend-mode:multiply" opacity="0.5">
<path fill-rule="evenodd" clip-rule="evenodd" d="M630.96 600.422L579.859 530.563L569.398 520.682L611.974 456.717L656.798 434.355L778.613 462.9L656.798 537.728L630.96 600.422Z" fill="url(#paint32_linear)"/>
</g>
<path opacity="0.2" fill-rule="evenodd" clip-rule="evenodd" d="M554.453 396.7L616.621 307.731L795.423 380.694L791.262 396.7L646.69 331.974V352.245L789.389 411.714L786.215 428.129L627.649 346.578L556.534 411.714L554.453 396.7Z" fill="#FF9C8D"/>
<g style="mix-blend-mode:multiply" opacity="0.5">
<path fill-rule="evenodd" clip-rule="evenodd" d="M656.798 536.069L579.859 528.875L569.398 518.955L611.974 454.73L656.798 432.278L778.613 460.938L656.798 536.069Z" fill="url(#paint33_linear)"/>
</g>
</g>
<g filter="url(#filter4_b)">
<rect x="299" y="233" width="282" height="400" rx="21" fill="#0D81B9" fill-opacity="0.5"/>
</g>
<g filter="url(#filter5_b)">
<rect x="299" y="233" width="282" height="400" rx="21" fill="url(#paint34_linear)"/>
</g>
<rect x="312.5" y="251.875" width="256" height="360.837" rx="13.5" stroke="url(#paint35_linear)"/>
<rect x="312.5" y="251.875" width="256" height="360.837" rx="13.5" stroke="url(#paint36_linear)"/>
<path d="M341.796 299.423C340.32 299.423 339.108 299.075 338.16 298.379C337.212 297.671 336.702 296.663 336.63 295.355H340.392C340.428 295.799 340.56 296.123 340.788 296.327C341.016 296.531 341.31 296.633 341.67 296.633C341.994 296.633 342.258 296.555 342.462 296.399C342.678 296.231 342.786 296.003 342.786 295.715C342.786 295.343 342.612 295.055 342.264 294.851C341.916 294.647 341.352 294.419 340.572 294.167C339.744 293.891 339.072 293.627 338.556 293.375C338.052 293.111 337.608 292.733 337.224 292.241C336.852 291.737 336.666 291.083 336.666 290.279C336.666 289.463 336.87 288.767 337.278 288.191C337.686 287.603 338.25 287.159 338.97 286.859C339.69 286.559 340.506 286.409 341.418 286.409C342.894 286.409 344.07 286.757 344.946 287.453C345.834 288.137 346.308 289.103 346.368 290.351H342.534C342.522 289.967 342.402 289.679 342.174 289.487C341.958 289.295 341.676 289.199 341.328 289.199C341.064 289.199 340.848 289.277 340.68 289.433C340.512 289.589 340.428 289.811 340.428 290.099C340.428 290.339 340.518 290.549 340.698 290.729C340.89 290.897 341.124 291.047 341.4 291.179C341.676 291.299 342.084 291.455 342.624 291.647C343.428 291.923 344.088 292.199 344.604 292.475C345.132 292.739 345.582 293.117 345.954 293.609C346.338 294.089 346.53 294.701 346.53 295.445C346.53 296.201 346.338 296.879 345.954 297.479C345.582 298.079 345.036 298.553 344.316 298.901C343.608 299.249 342.768 299.423 341.796 299.423ZM354.308 296.291V299.297H352.778C350.198 299.297 348.908 298.019 348.908 295.463V292.133H347.666V289.199H348.908V286.751H352.454V289.199H354.29V292.133H352.454V295.517C352.454 295.793 352.514 295.991 352.634 296.111C352.766 296.231 352.982 296.291 353.282 296.291H354.308ZM355.53 294.239C355.53 293.195 355.716 292.283 356.088 291.503C356.472 290.723 356.988 290.123 357.636 289.703C358.296 289.283 359.028 289.073 359.832 289.073C360.528 289.073 361.128 289.211 361.632 289.487C362.136 289.763 362.526 290.135 362.802 290.603V289.199H366.33V299.297H362.802V297.893C362.526 298.361 362.13 298.733 361.614 299.009C361.11 299.285 360.516 299.423 359.832 299.423C359.028 299.423 358.296 299.213 357.636 298.793C356.988 298.373 356.472 297.773 356.088 296.993C355.716 296.201 355.53 295.283 355.53 294.239ZM362.802 294.239C362.802 293.591 362.622 293.081 362.262 292.709C361.914 292.337 361.482 292.151 360.966 292.151C360.438 292.151 360 292.337 359.652 292.709C359.304 293.069 359.13 293.579 359.13 294.239C359.13 294.887 359.304 295.403 359.652 295.787C360 296.159 360.438 296.345 360.966 296.345C361.482 296.345 361.914 296.159 362.262 295.787C362.622 295.415 362.802 294.899 362.802 294.239ZM372.049 290.981C372.445 290.405 372.925 289.949 373.489 289.613C374.053 289.277 374.659 289.109 375.307 289.109V292.871H374.317C373.549 292.871 372.979 293.021 372.607 293.321C372.235 293.621 372.049 294.143 372.049 294.887V299.297H368.521V289.199H372.049V290.981ZM385.165 299.423C383.689 299.423 382.477 299.075 381.529 298.379C380.581 297.671 380.071 296.663 379.999 295.355H383.761C383.797 295.799 383.929 296.123 384.157 296.327C384.385 296.531 384.679 296.633 385.039 296.633C385.363 296.633 385.627 296.555 385.831 296.399C386.047 296.231 386.155 296.003 386.155 295.715C386.155 295.343 385.981 295.055 385.633 294.851C385.285 294.647 384.721 294.419 383.941 294.167C383.113 293.891 382.441 293.627 381.925 293.375C381.421 293.111 380.977 292.733 380.593 292.241C380.221 291.737 380.035 291.083 380.035 290.279C380.035 289.463 380.239 288.767 380.647 288.191C381.055 287.603 381.619 287.159 382.339 286.859C383.059 286.559 383.875 286.409 384.787 286.409C386.263 286.409 387.439 286.757 388.315 287.453C389.203 288.137 389.677 289.103 389.737 290.351H385.903C385.891 289.967 385.771 289.679 385.543 289.487C385.327 289.295 385.045 289.199 384.697 289.199C384.433 289.199 384.217 289.277 384.049 289.433C383.881 289.589 383.797 289.811 383.797 290.099C383.797 290.339 383.887 290.549 384.067 290.729C384.259 290.897 384.493 291.047 384.769 291.179C385.045 291.299 385.453 291.455 385.993 291.647C386.797 291.923 387.457 292.199 387.973 292.475C388.501 292.739 388.951 293.117 389.323 293.609C389.707 294.089 389.899 294.701 389.899 295.445C389.899 296.201 389.707 296.879 389.323 297.479C388.951 298.079 388.405 298.553 387.685 298.901C386.977 299.249 386.137 299.423 385.165 299.423ZM397.677 296.291V299.297H396.147C393.567 299.297 392.277 298.019 392.277 295.463V292.133H391.035V289.199H392.277V286.751H395.823V289.199H397.659V292.133H395.823V295.517C395.823 295.793 395.883 295.991 396.003 296.111C396.135 296.231 396.351 296.291 396.651 296.291H397.677ZM403.003 290.981C403.399 290.405 403.879 289.949 404.443 289.613C405.007 289.277 405.613 289.109 406.261 289.109V292.871H405.271C404.503 292.871 403.933 293.021 403.561 293.321C403.189 293.621 403.003 294.143 403.003 294.887V299.297H399.475V289.199H403.003V290.981ZM409.488 288.263C408.864 288.263 408.36 288.095 407.976 287.759C407.604 287.411 407.418 286.979 407.418 286.463C407.418 285.935 407.604 285.497 407.976 285.149C408.36 284.801 408.864 284.627 409.488 284.627C410.1 284.627 410.592 284.801 410.964 285.149C411.348 285.497 411.54 285.935 411.54 286.463C411.54 286.979 411.348 287.411 410.964 287.759C410.592 288.095 410.1 288.263 409.488 288.263ZM411.234 289.199V299.297H407.706V289.199H411.234ZM419.741 299.297L416.951 295.157V299.297H413.423V285.977H416.951V293.159L419.741 289.199H423.971L419.993 294.275L424.043 299.297H419.741ZM434.905 294.131C434.905 294.407 434.887 294.683 434.851 294.959H428.173C428.209 295.511 428.359 295.925 428.623 296.201C428.899 296.465 429.247 296.597 429.667 296.597C430.255 296.597 430.675 296.333 430.927 295.805H434.689C434.533 296.501 434.227 297.125 433.771 297.677C433.327 298.217 432.763 298.643 432.079 298.955C431.395 299.267 430.639 299.423 429.811 299.423C428.815 299.423 427.927 299.213 427.147 298.793C426.379 298.373 425.773 297.773 425.329 296.993C424.897 296.213 424.681 295.295 424.681 294.239C424.681 293.183 424.897 292.271 425.329 291.503C425.761 290.723 426.361 290.123 427.129 289.703C427.909 289.283 428.803 289.073 429.811 289.073C430.807 289.073 431.689 289.277 432.457 289.685C433.225 290.093 433.825 290.681 434.257 291.449C434.689 292.205 434.905 293.099 434.905 294.131ZM431.305 293.249C431.305 292.817 431.161 292.481 430.873 292.241C430.585 291.989 430.225 291.863 429.793 291.863C429.361 291.863 429.007 291.983 428.731 292.223C428.455 292.451 428.275 292.793 428.191 293.249H431.305Z" fill="white"/>
<path opacity="0.5" d="M344.75 329.392H343.476L338.352 321.622V329.392H337.078V319.62H338.352L343.476 327.376V319.62H344.75V329.392ZM352.578 319.634V320.67H348.336V323.96H351.78V324.996H348.336V329.392H347.062V319.634H352.578ZM360.262 319.634V320.67H357.602V329.392H356.328V320.67H353.654V319.634H360.262Z" fill="white"/>
<rect x="385" y="554" width="134" height="42" rx="21" fill="url(#paint37_linear)"/>
<path d="M408.429 573.424C408.429 572.523 408.624 571.721 409.014 571.019C409.404 570.308 409.946 569.758 410.639 569.368C411.341 568.969 412.134 568.77 413.018 568.77C414.101 568.77 415.029 569.056 415.8 569.628C416.571 570.2 417.087 570.98 417.347 571.968H414.903C414.721 571.587 414.461 571.296 414.123 571.097C413.794 570.898 413.417 570.798 412.992 570.798C412.307 570.798 411.753 571.036 411.328 571.513C410.903 571.99 410.691 572.627 410.691 573.424C410.691 574.221 410.903 574.858 411.328 575.335C411.753 575.812 412.307 576.05 412.992 576.05C413.417 576.05 413.794 575.95 414.123 575.751C414.461 575.552 414.721 575.261 414.903 574.88H417.347C417.087 575.868 416.571 576.648 415.8 577.22C415.029 577.783 414.101 578.065 413.018 578.065C412.134 578.065 411.341 577.87 410.639 577.48C409.946 577.081 409.404 576.531 409.014 575.829C408.624 575.127 408.429 574.325 408.429 573.424ZM422.01 578.104C421.3 578.104 420.658 577.952 420.086 577.649C419.523 577.346 419.077 576.912 418.747 576.349C418.427 575.786 418.266 575.127 418.266 574.373C418.266 573.628 418.431 572.973 418.76 572.41C419.09 571.838 419.54 571.4 420.112 571.097C420.684 570.794 421.326 570.642 422.036 570.642C422.747 570.642 423.388 570.794 423.96 571.097C424.532 571.4 424.983 571.838 425.312 572.41C425.642 572.973 425.806 573.628 425.806 574.373C425.806 575.118 425.637 575.777 425.299 576.349C424.97 576.912 424.515 577.346 423.934 577.649C423.362 577.952 422.721 578.104 422.01 578.104ZM422.01 576.18C422.435 576.18 422.795 576.024 423.089 575.712C423.393 575.4 423.544 574.954 423.544 574.373C423.544 573.792 423.397 573.346 423.102 573.034C422.816 572.722 422.461 572.566 422.036 572.566C421.603 572.566 421.243 572.722 420.957 573.034C420.671 573.337 420.528 573.784 420.528 574.373C420.528 574.954 420.667 575.4 420.944 575.712C421.23 576.024 421.586 576.18 422.01 576.18ZM436.242 570.668C437.143 570.668 437.858 570.941 438.387 571.487C438.924 572.033 439.193 572.791 439.193 573.762V578H436.983V574.061C436.983 573.593 436.857 573.233 436.606 572.982C436.363 572.722 436.025 572.592 435.592 572.592C435.158 572.592 434.816 572.722 434.565 572.982C434.322 573.233 434.201 573.593 434.201 574.061V578H431.991V574.061C431.991 573.593 431.865 573.233 431.614 572.982C431.371 572.722 431.033 572.592 430.6 572.592C430.166 572.592 429.824 572.722 429.573 572.982C429.33 573.233 429.209 573.593 429.209 574.061V578H426.986V570.746H429.209V571.656C429.434 571.353 429.729 571.114 430.093 570.941C430.457 570.759 430.868 570.668 431.328 570.668C431.874 570.668 432.359 570.785 432.784 571.019C433.217 571.253 433.555 571.587 433.798 572.02C434.049 571.621 434.391 571.296 434.825 571.045C435.258 570.794 435.73 570.668 436.242 570.668ZM441.865 569.992C441.475 569.992 441.155 569.879 440.903 569.654C440.661 569.42 440.539 569.134 440.539 568.796C440.539 568.449 440.661 568.163 440.903 567.938C441.155 567.704 441.475 567.587 441.865 567.587C442.247 567.587 442.559 567.704 442.801 567.938C443.053 568.163 443.178 568.449 443.178 568.796C443.178 569.134 443.053 569.42 442.801 569.654C442.559 569.879 442.247 569.992 441.865 569.992ZM442.97 570.746V578H440.747V570.746H442.97ZM449.001 570.668C449.851 570.668 450.527 570.945 451.029 571.5C451.541 572.046 451.796 572.8 451.796 573.762V578H449.586V574.061C449.586 573.576 449.461 573.199 449.209 572.93C448.958 572.661 448.62 572.527 448.195 572.527C447.771 572.527 447.433 572.661 447.181 572.93C446.93 573.199 446.804 573.576 446.804 574.061V578H444.581V570.746H446.804V571.708C447.03 571.387 447.333 571.136 447.714 570.954C448.096 570.763 448.525 570.668 449.001 570.668ZM456.097 570.642C456.608 570.642 457.055 570.746 457.436 570.954C457.826 571.162 458.125 571.435 458.333 571.773V570.746H460.556V577.987C460.556 578.654 460.422 579.257 460.153 579.794C459.893 580.34 459.49 580.773 458.944 581.094C458.407 581.415 457.735 581.575 456.929 581.575C455.854 581.575 454.983 581.319 454.316 580.808C453.649 580.305 453.267 579.621 453.172 578.754H455.369C455.438 579.031 455.603 579.248 455.863 579.404C456.123 579.569 456.444 579.651 456.825 579.651C457.284 579.651 457.648 579.517 457.917 579.248C458.194 578.988 458.333 578.568 458.333 577.987V576.96C458.116 577.298 457.817 577.575 457.436 577.792C457.055 578 456.608 578.104 456.097 578.104C455.499 578.104 454.957 577.952 454.472 577.649C453.987 577.337 453.601 576.899 453.315 576.336C453.038 575.764 452.899 575.105 452.899 574.36C452.899 573.615 453.038 572.96 453.315 572.397C453.601 571.834 453.987 571.4 454.472 571.097C454.957 570.794 455.499 570.642 456.097 570.642ZM458.333 574.373C458.333 573.818 458.177 573.381 457.865 573.06C457.562 572.739 457.189 572.579 456.747 572.579C456.305 572.579 455.928 572.739 455.616 573.06C455.313 573.372 455.161 573.805 455.161 574.36C455.161 574.915 455.313 575.357 455.616 575.686C455.928 576.007 456.305 576.167 456.747 576.167C457.189 576.167 457.562 576.007 457.865 575.686C458.177 575.365 458.333 574.928 458.333 574.373ZM468.221 578.091C467.554 578.091 466.956 577.983 466.427 577.766C465.899 577.549 465.474 577.229 465.153 576.804C464.841 576.379 464.677 575.868 464.659 575.27H467.025C467.06 575.608 467.177 575.868 467.376 576.05C467.576 576.223 467.836 576.31 468.156 576.31C468.486 576.31 468.746 576.236 468.936 576.089C469.127 575.933 469.222 575.721 469.222 575.452C469.222 575.227 469.144 575.04 468.988 574.893C468.841 574.746 468.655 574.624 468.429 574.529C468.213 574.434 467.901 574.325 467.493 574.204C466.904 574.022 466.423 573.84 466.05 573.658C465.678 573.476 465.357 573.207 465.088 572.852C464.82 572.497 464.685 572.033 464.685 571.461C464.685 570.612 464.993 569.949 465.608 569.472C466.224 568.987 467.025 568.744 468.013 568.744C469.019 568.744 469.829 568.987 470.444 569.472C471.06 569.949 471.389 570.616 471.432 571.474H469.027C469.01 571.179 468.902 570.95 468.702 570.785C468.503 570.612 468.247 570.525 467.935 570.525C467.667 570.525 467.45 570.599 467.285 570.746C467.121 570.885 467.038 571.088 467.038 571.357C467.038 571.652 467.177 571.881 467.454 572.046C467.732 572.211 468.165 572.388 468.754 572.579C469.344 572.778 469.82 572.969 470.184 573.151C470.557 573.333 470.878 573.597 471.146 573.944C471.415 574.291 471.549 574.737 471.549 575.283C471.549 575.803 471.415 576.275 471.146 576.7C470.886 577.125 470.505 577.463 470.002 577.714C469.5 577.965 468.906 578.091 468.221 578.091ZM476.219 578.104C475.509 578.104 474.867 577.952 474.295 577.649C473.732 577.346 473.286 576.912 472.956 576.349C472.636 575.786 472.475 575.127 472.475 574.373C472.475 573.628 472.64 572.973 472.969 572.41C473.299 571.838 473.749 571.4 474.321 571.097C474.893 570.794 475.535 570.642 476.245 570.642C476.956 570.642 477.597 570.794 478.169 571.097C478.741 571.4 479.192 571.838 479.521 572.41C479.851 572.973 480.015 573.628 480.015 574.373C480.015 575.118 479.846 575.777 479.508 576.349C479.179 576.912 478.724 577.346 478.143 577.649C477.571 577.952 476.93 578.104 476.219 578.104ZM476.219 576.18C476.644 576.18 477.004 576.024 477.298 575.712C477.602 575.4 477.753 574.954 477.753 574.373C477.753 573.792 477.606 573.346 477.311 573.034C477.025 572.722 476.67 572.566 476.245 572.566C475.812 572.566 475.452 572.722 475.166 573.034C474.88 573.337 474.737 573.784 474.737 574.373C474.737 574.954 474.876 575.4 475.153 575.712C475.439 576.024 475.795 576.18 476.219 576.18ZM484.497 578.104C483.786 578.104 483.145 577.952 482.573 577.649C482.009 577.346 481.563 576.912 481.234 576.349C480.913 575.786 480.753 575.127 480.753 574.373C480.753 573.628 480.917 572.973 481.247 572.41C481.576 571.838 482.027 571.4 482.599 571.097C483.171 570.794 483.812 570.642 484.523 570.642C485.233 570.642 485.875 570.794 486.447 571.097C487.019 571.4 487.469 571.838 487.799 572.41C488.128 572.973 488.293 573.628 488.293 574.373C488.293 575.118 488.124 575.777 487.786 576.349C487.456 576.912 487.001 577.346 486.421 577.649C485.849 577.952 485.207 578.104 484.497 578.104ZM484.497 576.18C484.921 576.18 485.281 576.024 485.576 575.712C485.879 575.4 486.031 574.954 486.031 574.373C486.031 573.792 485.883 573.346 485.589 573.034C485.303 572.722 484.947 572.566 484.523 572.566C484.089 572.566 483.73 572.722 483.444 573.034C483.158 573.337 483.015 573.784 483.015 574.373C483.015 574.954 483.153 575.4 483.431 575.712C483.717 576.024 484.072 576.18 484.497 576.18ZM493.892 570.668C494.741 570.668 495.417 570.945 495.92 571.5C496.431 572.046 496.687 572.8 496.687 573.762V578H494.477V574.061C494.477 573.576 494.351 573.199 494.1 572.93C493.849 572.661 493.511 572.527 493.086 572.527C492.661 572.527 492.323 572.661 492.072 572.93C491.821 573.199 491.695 573.576 491.695 574.061V578H489.472V570.746H491.695V571.708C491.92 571.387 492.224 571.136 492.605 570.954C492.986 570.763 493.415 570.668 493.892 570.668Z" fill="#FEF9F8"/>
<path d="M385.223 385.5H391.793V390H379.343V368.85H385.223V385.5ZM400.259 368.85V390H394.379V368.85H400.259ZM428.598 368.85V390H422.718V378.33L418.728 390H413.808L409.788 378.24V390H403.908V368.85H411.018L416.328 382.59L421.518 368.85H428.598ZM438.125 368.85V390H432.245V368.85H438.125ZM457.703 368.85V373.53H452.063V390H446.183V373.53H440.603V368.85H457.703ZM466.059 373.56V377.01H472.809V381.48H466.059V385.29H473.709V390H460.179V368.85H473.709V373.56H466.059ZM485.284 368.85C487.504 368.85 489.444 369.3 491.104 370.2C492.784 371.08 494.074 372.32 494.974 373.92C495.874 375.52 496.324 377.35 496.324 379.41C496.324 381.45 495.864 383.27 494.944 384.87C494.044 386.47 492.754 387.73 491.074 388.65C489.414 389.55 487.484 390 485.284 390H476.914V368.85H485.284ZM484.834 384.81C486.554 384.81 487.904 384.34 488.884 383.4C489.864 382.46 490.354 381.13 490.354 379.41C490.354 377.67 489.864 376.33 488.884 375.39C487.904 374.43 486.554 373.95 484.834 373.95H482.794V384.81H484.834ZM383.333 426.56V430.01H390.083V434.48H383.333V438.29H390.983V443H377.453V421.85H390.983V426.56H383.333ZM402.559 421.85C404.779 421.85 406.719 422.3 408.379 423.2C410.059 424.08 411.349 425.32 412.249 426.92C413.149 428.52 413.599 430.35 413.599 432.41C413.599 434.45 413.139 436.27 412.219 437.87C411.319 439.47 410.029 440.73 408.349 441.65C406.689 442.55 404.759 443 402.559 443H394.189V421.85H402.559ZM402.109 437.81C403.829 437.81 405.179 437.34 406.159 436.4C407.139 435.46 407.629 434.13 407.629 432.41C407.629 430.67 407.139 429.33 406.159 428.39C405.179 427.43 403.829 426.95 402.109 426.95H400.069V437.81H402.109ZM422.429 421.85V443H416.549V421.85H422.429ZM442.008 421.85V426.53H436.368V443H430.488V426.53H424.908V421.85H442.008ZM450.363 421.85V443H444.483V421.85H450.363ZM464.152 443.21C462.172 443.21 460.352 442.75 458.692 441.83C457.032 440.89 455.712 439.6 454.732 437.96C453.772 436.3 453.292 434.43 453.292 432.35C453.292 430.27 453.772 428.41 454.732 426.77C455.712 425.11 457.032 423.82 458.692 422.9C460.352 421.98 462.172 421.52 464.152 421.52C466.152 421.52 467.972 421.98 469.612 422.9C471.272 423.82 472.582 425.11 473.542 426.77C474.502 428.41 474.982 430.27 474.982 432.35C474.982 434.43 474.502 436.3 473.542 437.96C472.582 439.6 471.272 440.89 469.612 441.83C467.952 442.75 466.132 443.21 464.152 443.21ZM464.152 437.75C465.652 437.75 466.832 437.26 467.692 436.28C468.572 435.3 469.012 433.99 469.012 432.35C469.012 430.67 468.572 429.35 467.692 428.39C466.832 427.41 465.652 426.92 464.152 426.92C462.632 426.92 461.442 427.41 460.582 428.39C459.722 429.35 459.292 430.67 459.292 432.35C459.292 434.01 459.722 435.33 460.582 436.31C461.442 437.27 462.632 437.75 464.152 437.75ZM497.515 443H491.635L483.805 431.18V443H477.925V421.85H483.805L491.635 433.82V421.85H497.515V443ZM432.539 496H426.659L418.829 484.18V496H412.949V474.85H418.829L426.659 486.82V474.85H432.539V496ZM450.529 474.85V479.53H442.069V483.25H448.309V487.72H442.069V496H436.189V474.85H450.529ZM469.235 474.85V479.53H463.595V496H457.715V479.53H452.135V474.85H469.235Z" fill="white"/>
<defs>
<filter id="filter0_b" x="227" y="-12" width="306" height="424" filterUnits="userSpaceOnUse" color-interpolation-filters="sRGB">
<feFlood flood-opacity="0" result="BackgroundImageFix"/>
<feGaussianBlur in="BackgroundImage" stdDeviation="6"/>
<feComposite in2="SourceAlpha" operator="in" result="effect1_backgroundBlur"/>
<feBlend mode="normal" in="SourceGraphic" in2="effect1_backgroundBlur" result="shape"/>
</filter>
<filter id="filter1_b" x="227" y="-12" width="306" height="424" filterUnits="userSpaceOnUse" color-interpolation-filters="sRGB">
<feFlood flood-opacity="0" result="BackgroundImageFix"/>
<feGaussianBlur in="BackgroundImage" stdDeviation="6"/>
<feComposite in2="SourceAlpha" operator="in" result="effect1_backgroundBlur"/>
<feBlend mode="normal" in="SourceGraphic" in2="effect1_backgroundBlur" result="shape"/>
</filter>
<filter id="filter2_b" x="-12" y="142" width="306" height="424" filterUnits="userSpaceOnUse" color-interpolation-filters="sRGB">
<feFlood flood-opacity="0" result="BackgroundImageFix"/>
<feGaussianBlur in="BackgroundImage" stdDeviation="6"/>
<feComposite in2="SourceAlpha" operator="in" result="effect1_backgroundBlur"/>
<feBlend mode="normal" in="SourceGraphic" in2="effect1_backgroundBlur" result="shape"/>
</filter>
<filter id="filter3_b" x="-12" y="142" width="306" height="424" filterUnits="userSpaceOnUse" color-interpolation-filters="sRGB">
<feFlood flood-opacity="0" result="BackgroundImageFix"/>
<feGaussianBlur in="BackgroundImage" stdDeviation="6"/>
<feComposite in2="SourceAlpha" operator="in" result="effect1_backgroundBlur"/>
<feBlend mode="normal" in="SourceGraphic" in2="effect1_backgroundBlur" result="shape"/>
</filter>
<filter id="filter4_b" x="287" y="221" width="306" height="424" filterUnits="userSpaceOnUse" color-interpolation-filters="sRGB">
<feFlood flood-opacity="0" result="BackgroundImageFix"/>
<feGaussianBlur in="BackgroundImage" stdDeviation="6"/>
<feComposite in2="SourceAlpha" operator="in" result="effect1_backgroundBlur"/>
<feBlend mode="normal" in="SourceGraphic" in2="effect1_backgroundBlur" result="shape"/>
</filter>
<filter id="filter5_b" x="287" y="221" width="306" height="424" filterUnits="userSpaceOnUse" color-interpolation-filters="sRGB">
<feFlood flood-opacity="0" result="BackgroundImageFix"/>
<feGaussianBlur in="BackgroundImage" stdDeviation="6"/>
<feComposite in2="SourceAlpha" operator="in" result="effect1_backgroundBlur"/>
<feBlend mode="normal" in="SourceGraphic" in2="effect1_backgroundBlur" result="shape"/>
</filter>
<linearGradient id="paint0_linear" x1="257.221" y1="462.937" x2="486.983" y2="462.937" gradientUnits="userSpaceOnUse">
<stop stop-color="#C77CBD"/>
<stop offset="1" stop-color="#974577"/>
</linearGradient>
<linearGradient id="paint1_linear" x1="337.543" y1="552.198" x2="595.325" y2="552.198" gradientUnits="userSpaceOnUse">
<stop stop-color="#C77CBD"/>
<stop offset="1" stop-color="#974577"/>
</linearGradient>
<linearGradient id="paint2_linear" x1="503.82" y1="319.678" x2="503.82" y2="292.693" gradientUnits="userSpaceOnUse">
<stop stop-color="#C77CBD"/>
<stop offset="1" stop-color="#974577"/>
</linearGradient>
<linearGradient id="paint3_linear" x1="367.432" y1="209.686" x2="496.323" y2="209.686" gradientUnits="userSpaceOnUse">
<stop stop-color="#C77CBD"/>
<stop offset="1" stop-color="#974577"/>
</linearGradient>
<linearGradient id="paint4_linear" x1="48.0059" y1="151.535" x2="494.455" y2="151.535" gradientUnits="userSpaceOnUse">
<stop stop-color="#C77CBD"/>
<stop offset="1" stop-color="#974577"/>
</linearGradient>
<linearGradient id="paint5_linear" x1="212.389" y1="435.922" x2="283.372" y2="435.922" gradientUnits="userSpaceOnUse">
<stop stop-color="#C77CBD"/>
<stop offset="1" stop-color="#974577"/>
</linearGradient>
<linearGradient id="paint6_linear" x1="219.859" y1="435.922" x2="311.391" y2="435.922" gradientUnits="userSpaceOnUse">
<stop stop-color="#C77CBD"/>
<stop offset="1" stop-color="#974577"/>
</linearGradient>
<linearGradient id="paint7_linear" x1="509.398" y1="367.422" x2="718.613" y2="367.422" gradientUnits="userSpaceOnUse">
<stop stop-color="#C77CBD"/>
<stop offset="1" stop-color="#974577"/>
</linearGradient>
<linearGradient id="paint8_linear" x1="509.398" y1="303.098" x2="718.613" y2="303.098" gradientUnits="userSpaceOnUse">
<stop stop-color="#C77CBD"/>
<stop offset="1" stop-color="#974577"/>
</linearGradient>
<linearGradient id="paint9_linear" x1="336.5" y1="400" x2="356.205" y2="-116.697" gradientUnits="userSpaceOnUse">
<stop stop-opacity="0.01"/>
<stop offset="1"/>
</linearGradient>
<linearGradient id="paint10_linear" x1="380.5" y1="18.3746" x2="380.5" y2="380.212" gradientUnits="userSpaceOnUse">
<stop stop-color="#1474B6"/>
<stop offset="1"/>
</linearGradient>
<linearGradient id="paint11_linear" x1="380.5" y1="18.3746" x2="380.5" y2="380.212" gradientUnits="userSpaceOnUse">
<stop stop-color="#141FB6" stop-opacity="0"/>
<stop offset="0.505535" stop-color="white"/>
<stop offset="1" stop-opacity="0"/>
</linearGradient>
<linearGradient id="paint12_linear" x1="18.2207" y1="616.936" x2="247.983" y2="616.936" gradientUnits="userSpaceOnUse">
<stop stop-color="#C77CBD"/>
<stop offset="1" stop-color="#974577"/>
</linearGradient>
<linearGradient id="paint13_linear" x1="98.543" y1="706.198" x2="356.325" y2="706.198" gradientUnits="userSpaceOnUse">
<stop stop-color="#C77CBD"/>
<stop offset="1" stop-color="#974577"/>
</linearGradient>
<linearGradient id="paint14_linear" x1="264.82" y1="473.678" x2="264.82" y2="446.692" gradientUnits="userSpaceOnUse">
<stop stop-color="#C77CBD"/>
<stop offset="1" stop-color="#974577"/>
</linearGradient>
<linearGradient id="paint15_linear" x1="128.432" y1="363.686" x2="257.323" y2="363.686" gradientUnits="userSpaceOnUse">
<stop stop-color="#C77CBD"/>
<stop offset="1" stop-color="#974577"/>
</linearGradient>
<linearGradient id="paint16_linear" x1="-190.994" y1="305.535" x2="255.455" y2="305.535" gradientUnits="userSpaceOnUse">
<stop stop-color="#C77CBD"/>
<stop offset="1" stop-color="#974577"/>
</linearGradient>
<linearGradient id="paint17_linear" x1="-26.6113" y1="589.922" x2="44.3722" y2="589.922" gradientUnits="userSpaceOnUse">
<stop stop-color="#C77CBD"/>
<stop offset="1" stop-color="#974577"/>
</linearGradient>
<linearGradient id="paint18_linear" x1="-19.1406" y1="589.922" x2="72.3907" y2="589.922" gradientUnits="userSpaceOnUse">
<stop stop-color="#C77CBD"/>
<stop offset="1" stop-color="#974577"/>
</linearGradient>
<linearGradient id="paint19_linear" x1="270.398" y1="521.422" x2="479.613" y2="521.422" gradientUnits="userSpaceOnUse">
<stop stop-color="#C77CBD"/>
<stop offset="1" stop-color="#974577"/>
</linearGradient>
<linearGradient id="paint20_linear" x1="270.398" y1="457.099" x2="479.613" y2="457.099" gradientUnits="userSpaceOnUse">
<stop stop-color="#C77CBD"/>
<stop offset="1" stop-color="#974577"/>
</linearGradient>
<linearGradient id="paint21_linear" x1="97.5" y1="554" x2="117.205" y2="37.303" gradientUnits="userSpaceOnUse">
<stop stop-opacity="0.01"/>
<stop offset="1"/>
</linearGradient>
<linearGradient id="paint22_linear" x1="141.5" y1="172.375" x2="141.5" y2="534.212" gradientUnits="userSpaceOnUse">
<stop stop-color="#1474B6"/>
<stop offset="1"/>
</linearGradient>
<linearGradient id="paint23_linear" x1="141.5" y1="172.375" x2="141.5" y2="534.212" gradientUnits="userSpaceOnUse">
<stop stop-color="#141FB6" stop-opacity="0"/>
<stop offset="0.505535" stop-color="white"/>
<stop offset="1" stop-opacity="0"/>
</linearGradient>
<linearGradient id="paint24_linear" x1="209" y1="493.55" x2="74.998" y2="495.887" gradientUnits="userSpaceOnUse">
<stop stop-color="#3FE4FE"/>
<stop offset="1" stop-color="#0898F0"/>
</linearGradient>
<linearGradient id="paint25_linear" x1="317.221" y1="695.937" x2="546.983" y2="695.937" gradientUnits="userSpaceOnUse">
<stop stop-color="#C77CBD"/>
<stop offset="1" stop-color="#974577"/>
</linearGradient>
<linearGradient id="paint26_linear" x1="397.543" y1="785.198" x2="655.325" y2="785.198" gradientUnits="userSpaceOnUse">
<stop stop-color="#C77CBD"/>
<stop offset="1" stop-color="#974577"/>
</linearGradient>
<linearGradient id="paint27_linear" x1="563.82" y1="552.678" x2="563.82" y2="525.693" gradientUnits="userSpaceOnUse">
<stop stop-color="#C77CBD"/>
<stop offset="1" stop-color="#974577"/>
</linearGradient>
<linearGradient id="paint28_linear" x1="427.432" y1="442.686" x2="556.323" y2="442.686" gradientUnits="userSpaceOnUse">
<stop stop-color="#C77CBD"/>
<stop offset="1" stop-color="#974577"/>
</linearGradient>
<linearGradient id="paint29_linear" x1="108.006" y1="384.535" x2="554.455" y2="384.535" gradientUnits="userSpaceOnUse">
<stop stop-color="#C77CBD"/>
<stop offset="1" stop-color="#974577"/>
</linearGradient>
<linearGradient id="paint30_linear" x1="272.389" y1="668.922" x2="343.372" y2="668.922" gradientUnits="userSpaceOnUse">
<stop stop-color="#C77CBD"/>
<stop offset="1" stop-color="#974577"/>
</linearGradient>
<linearGradient id="paint31_linear" x1="279.859" y1="668.922" x2="371.391" y2="668.922" gradientUnits="userSpaceOnUse">
<stop stop-color="#C77CBD"/>
<stop offset="1" stop-color="#974577"/>
</linearGradient>
<linearGradient id="paint32_linear" x1="569.398" y1="600.422" x2="778.613" y2="600.422" gradientUnits="userSpaceOnUse">
<stop stop-color="#C77CBD"/>
<stop offset="1" stop-color="#974577"/>
</linearGradient>
<linearGradient id="paint33_linear" x1="569.398" y1="536.098" x2="778.613" y2="536.098" gradientUnits="userSpaceOnUse">
<stop stop-color="#C77CBD"/>
<stop offset="1" stop-color="#974577"/>
</linearGradient>
<linearGradient id="paint34_linear" x1="396.5" y1="633" x2="416.205" y2="116.303" gradientUnits="userSpaceOnUse">
<stop stop-opacity="0.01"/>
<stop offset="1"/>
</linearGradient>
<linearGradient id="paint35_linear" x1="440.5" y1="251.375" x2="440.5" y2="613.212" gradientUnits="userSpaceOnUse">
<stop stop-color="#1474B6"/>
<stop offset="1"/>
</linearGradient>
<linearGradient id="paint36_linear" x1="440.5" y1="251.375" x2="440.5" y2="613.212" gradientUnits="userSpaceOnUse">
<stop stop-color="#141FB6" stop-opacity="0"/>
<stop offset="0.505535" stop-color="white"/>
<stop offset="1" stop-opacity="0"/>
</linearGradient>
<linearGradient id="paint37_linear" x1="519" y1="572.55" x2="384.998" y2="574.887" gradientUnits="userSpaceOnUse">
<stop stop-color="#3FE4FE"/>
<stop offset="1" stop-color="#0898F0"/>
</linearGradient>
</defs>
</svg>
