<svg width="125" height="227" viewBox="0 0 125 227" fill="none" xmlns="http://www.w3.org/2000/svg">
<path d="M0.900391 159.336L58.294 0.659668V226.858L31.2852 193.462L6.26242 179.164L0.900391 159.336Z" fill="url(#paint0_linear)"/>
<path d="M35.2515 122.553L54.52 79.0732L46.4769 168.44V212.23L31.2845 193.463L6.26172 179.164L13.4111 157.716L17.1166 140.392L29.5844 112.52L36.385 104.715L31.8512 122.553H35.2515Z" fill="url(#paint1_linear)"/>
<path d="M35.2515 122.553L54.52 79.0732L46.4769 168.44V212.23L31.2845 193.463L6.26172 179.164L13.4111 157.716L17.1166 140.392L29.5844 112.52L36.385 104.715L31.8512 122.553H35.2515Z" fill="url(#paint2_linear)"/>
<path d="M6.26172 179.163L31.2845 193.462L46.4769 212.229V168.439L13.4111 157.715L6.26172 179.163Z" fill="#BF5C4B"/>
<path d="M17.8794 145.205L31.2845 147.967V193.463L6.26172 179.164L17.8794 145.205Z" fill="#797979"/>
<path d="M12.5174 138.055L31.2845 163.077V193.462L6.26172 179.164L12.5174 138.055Z" fill="#5E616A"/>
<path d="M46.4766 168.437L58.0943 166.219V226.526L46.4766 212.229V168.437Z" fill="#5E616A"/>
<path d="M5.36875 146.992L16.0928 118.395L6.26242 179.164L0.900391 159.503L5.36875 146.992Z" fill="url(#paint3_linear)"/>
<path d="M10.7308 132.693L13.4118 138.055L6.26242 179.164L0.900391 159.503L10.7308 132.693Z" fill="#BF5C4B"/>
<path d="M54.5214 56.1222V77.2854H58.0961V0.429688L52.1383 23.8206L55.713 29.3898L47.3721 46.0976L54.5214 56.1222Z" fill="url(#paint4_linear)"/>
<path d="M42.6554 44.1123L45.6096 50.0208L41.6707 72.6697L37.7317 95.3187L31.8232 73.6546L42.6554 44.1123Z" fill="url(#paint5_linear)"/>
<path d="M125 158.906L67.6064 0.22998V226.428L94.6152 193.033L119.638 178.734L125 158.906Z" fill="url(#paint6_linear)"/>
<path d="M90.6488 122.124L71.3804 78.6436L79.4235 168.011V211.801L94.6159 193.034L119.639 178.735L112.489 157.287L108.784 139.962L96.316 112.09L89.5154 104.286L94.0492 122.124H90.6488Z" fill="url(#paint7_linear)"/>
<path d="M90.6488 122.124L71.3804 78.6436L79.4235 168.011V211.801L94.6159 193.034L119.639 178.735L112.489 157.287L108.784 139.962L96.316 112.09L89.5154 104.286L94.0492 122.124H90.6488Z" fill="url(#paint8_linear)"/>
<path d="M119.639 178.734L94.6159 193.033L79.4235 211.8V168.01L112.489 157.286L119.639 178.734Z" fill="#BF5C4B"/>
<path d="M108.021 144.775L94.6159 147.537V193.033L119.639 178.734L108.021 144.775Z" fill="#797979"/>
<path d="M113.383 137.625L94.6159 162.648V193.033L119.639 178.734L113.383 137.625Z" fill="#5E616A"/>
<path d="M79.4238 168.007L67.8061 165.79V226.096L79.4238 211.8V168.007Z" fill="#5E616A"/>
<path d="M120.532 146.562L109.808 117.965L119.638 178.734L125 159.074L120.532 146.562Z" fill="url(#paint9_linear)"/>
<path d="M115.17 132.263L112.489 137.625L119.638 178.734L125 159.073L115.17 132.263Z" fill="#BF5C4B"/>
<path d="M71.3789 55.6926V76.8557H67.8043V0L73.7621 23.3909L70.1874 28.9601L78.5283 45.6679L71.3789 55.6926Z" fill="url(#paint10_linear)"/>
<path d="M83.245 43.6826L80.2907 49.5911L84.2297 72.24L88.1687 94.889L94.0771 73.2249L83.245 43.6826Z" fill="url(#paint11_linear)"/>
<rect width="1.22661" height="1.83992" transform="matrix(-1 0 0 1 115.98 208.913)" fill="#C4C4C4"/>
<path fill-rule="evenodd" clip-rule="evenodd" d="M57.2041 195.255L56.4785 198.883L57.2041 201.785L59.6785 203.237L66.637 203.237L68.8138 201.785L70.265 198.883L69.5394 195.98L57.2041 195.255Z" fill="#191919"/>
<path fill-rule="evenodd" clip-rule="evenodd" d="M53.8945 191.689L56.4232 198.927L60.5269 200.001L66.0516 200.001L70.3692 198.927L72.8215 191.689L53.8945 191.689Z" fill="#414140"/>
<path d="M58.9561 194.685L60.5266 200.004L66.0512 200.004L67.7894 194.685L58.9561 194.685Z" fill="#4A4A4A"/>
<path d="M58.9561 194.685L60.5266 200.004L66.0512 200.004L67.7894 194.685L58.9561 194.685Z" fill="url(#paint12_linear)"/>
<path fill-rule="evenodd" clip-rule="evenodd" d="M57.5485 79.8843L55.6445 84.064L50.7847 88.7187L47.2842 117.024L47.2842 150.664L52.4163 192.332L58.9557 194.685L67.8661 194.685L74.2416 192.332L79.4087 150.664L79.4087 117.024L76.2462 88.7187L71.4024 84.064L69.4346 79.8843L57.5485 79.8843Z" fill="#0051D0"/>
<path fill-rule="evenodd" clip-rule="evenodd" d="M57.5485 79.8843L55.6445 84.064L50.7847 88.7187L47.2842 117.024L47.2842 150.664L52.4163 192.332L58.9557 194.685L67.8661 194.685L74.2416 192.332L79.4087 150.664L79.4087 117.024L76.2462 88.7187L71.4024 84.064L69.4346 79.8843L57.5485 79.8843Z" fill="url(#paint13_linear)"/>
<path d="M55.8175 84.2446L55.8522 84.2114L55.8721 84.1677L57.7093 80.1343L69.2759 80.1343L71.1762 84.1705L71.1959 84.2123L71.2292 84.2443L76.0078 88.8363L79.1587 117.038L79.1587 150.649L74.0123 192.15L67.8214 194.435L58.9993 194.435L52.6457 192.149L47.5342 150.649L47.5342 117.039L51.0218 88.8377L55.8175 84.2446Z" fill="url(#paint14_linear)" stroke="black" stroke-width="0.5"/>
<path fill-rule="evenodd" clip-rule="evenodd" d="M73.2852 90.2183L77.1702 109.061L75.2277 92.2088L73.2852 90.2183Z" fill="#828282"/>
<path fill-rule="evenodd" clip-rule="evenodd" d="M53.3486 90.2183L49.4636 109.061L51.4061 92.2088L53.3486 90.2183Z" fill="#828282"/>
<path fill-rule="evenodd" clip-rule="evenodd" d="M58.1518 98.1602L57.5457 133.993L53.0039 135.888L53.0039 117.993L58.1518 98.1602Z" fill="#55525D"/>
<path fill-rule="evenodd" clip-rule="evenodd" d="M53.8945 117.023L56.8274 105.159L57.396 108.591L57.396 124.467L56.3431 126.792L56.3431 132.19C56.3431 133.274 55.9502 133.815 55.1643 133.815C54.3784 133.815 53.9551 133.274 53.8945 132.19L53.8945 117.023Z" fill="#303236"/>
<g filter="url(#filter0_f)">
<path fill-rule="evenodd" clip-rule="evenodd" d="M57.5457 134.638L53.0039 136.566L53.0039 118.362L58.1518 98.1861L58.3116 98.0806C59.8597 97.0773 61.4956 96.5757 63.2194 96.5757C65.0026 96.5757 66.8713 97.1125 68.8256 98.1861L73.9735 118.362L73.9735 136.566L69.4318 134.638L57.5457 134.638Z" fill="#080808"/>
</g>
<path fill-rule="evenodd" clip-rule="evenodd" d="M58.1518 98.1602L57.5457 133.993L53.0039 135.888L53.0039 117.993L58.1518 98.1602Z" fill="#55525D"/>
<path fill-rule="evenodd" clip-rule="evenodd" d="M53.8945 117.023L56.8274 105.159L57.396 108.591L57.396 124.467L56.3431 126.792L56.3431 132.19C56.3431 133.274 55.9502 133.815 55.1643 133.815C54.3784 133.815 53.9551 133.274 53.8945 132.19L53.8945 117.023Z" fill="#303236"/>
<path fill-rule="evenodd" clip-rule="evenodd" d="M68.8267 98.1602L69.4328 133.993L73.9746 135.888L73.9746 117.993L68.8267 98.1602Z" fill="#55525D"/>
<path fill-rule="evenodd" clip-rule="evenodd" d="M73.2148 117.023L70.2819 105.159L69.7134 108.591L69.7134 124.467L70.7663 126.792L70.7663 132.19C70.7663 133.274 71.1592 133.815 71.9451 133.815C72.731 133.815 73.1543 133.274 73.2148 132.19L73.2148 117.023Z" fill="#303236"/>
<path fill-rule="evenodd" clip-rule="evenodd" d="M57.5498 133.991L69.4359 133.991L68.8297 98.1588C66.8754 97.1034 65.0067 96.5757 63.2235 96.5757C61.4403 96.5757 59.7511 97.1034 58.1559 98.1588L57.5498 133.991Z" fill="#828282"/>
<path fill-rule="evenodd" clip-rule="evenodd" d="M59.6562 97.9277C61.2448 97.8375 62.44 97.7924 63.2419 97.7924C64.0437 97.7924 65.2389 97.8375 66.8275 97.9277C65.6323 97.6192 64.4371 97.465 63.2419 97.465C62.0467 97.465 60.8515 97.6192 59.6562 97.9277Z" fill="url(#paint15_linear)"/>
<path fill-rule="evenodd" clip-rule="evenodd" d="M59.6562 118.313C61.2448 118.223 62.44 118.178 63.2419 118.178C64.0437 118.178 65.2389 118.223 66.8275 118.313C65.6323 118.004 64.4371 117.85 63.2419 117.85C62.0467 117.85 60.8515 118.004 59.6562 118.313Z" fill="url(#paint16_linear)"/>
<path fill-rule="evenodd" clip-rule="evenodd" d="M59.57 98.6362C60.188 98.5343 61.4954 98.4834 63.4921 98.4834C65.4887 98.4834 66.7623 98.5343 67.3129 98.6362L67.7896 99.637L67.7896 107.952L66.7772 110.705L66.7772 116.106L66.1224 117.021L60.8992 117.021L60.0324 116.106L60.0324 110.705L59.1885 107.829L59.1885 99.637L59.57 98.6362Z" fill="#474747"/>
<path fill-rule="evenodd" clip-rule="evenodd" d="M59.57 98.6362C60.188 98.5343 61.4954 98.4834 63.4921 98.4834C65.4887 98.4834 66.7623 98.5343 67.3129 98.6362L67.7896 99.637L67.7896 107.952L66.7772 110.705L66.7772 116.106L66.1224 117.021L60.8992 117.021L60.0324 116.106L60.0324 110.705L59.1885 107.829L59.1885 99.637L59.57 98.6362Z" fill="url(#paint17_linear)"/>
<path fill-rule="evenodd" clip-rule="evenodd" d="M59.57 98.6362C60.188 98.5343 61.4954 98.4834 63.4921 98.4834C65.4887 98.4834 66.7623 98.5343 67.3129 98.6362L67.7896 99.637L67.7896 107.952L66.7772 110.705L66.7772 116.106L66.1224 117.021L60.8992 117.021L60.0324 116.106L60.0324 110.705L59.1885 107.829L59.1885 99.637L59.57 98.6362Z" fill="url(#paint18_linear)"/>
<path fill-rule="evenodd" clip-rule="evenodd" d="M60.7073 119.016L66.2539 119.016L67.2688 120.047L67.2688 125.77L68.091 126.914L68.091 132.012L67.2688 133.31L59.5442 133.31L58.6758 132.012L58.6758 126.914L59.5442 125.77L59.5442 120.047L60.7073 119.016Z" fill="#474747"/>
<path fill-rule="evenodd" clip-rule="evenodd" d="M60.7073 119.016L66.2539 119.016L67.2688 120.047L67.2688 125.77L68.091 126.914L68.091 132.012L67.2688 133.31L59.5442 133.31L58.6758 132.012L58.6758 126.914L59.5442 125.77L59.5442 120.047L60.7073 119.016Z" fill="url(#paint19_linear)"/>
<path fill-rule="evenodd" clip-rule="evenodd" d="M60.7073 119.016L66.2539 119.016L67.2688 120.047L67.2688 125.77L68.091 126.914L68.091 132.012L67.2688 133.31L59.5442 133.31L58.6758 132.012L58.6758 126.914L59.5442 125.77L59.5442 120.047L60.7073 119.016Z" fill="url(#paint20_linear)"/>
<path fill-rule="evenodd" clip-rule="evenodd" d="M57.5492 133.993L53.8945 151.922L72.3473 151.922L69.4353 133.993L57.5492 133.993Z" fill="#F58988"/>
<path fill-rule="evenodd" clip-rule="evenodd" d="M58.9564 194.684L53.8945 151.92L72.3473 151.92L67.7898 194.684L58.9564 194.684Z" fill="#ACB6FB"/>
<path fill-rule="evenodd" clip-rule="evenodd" d="M58.9564 194.684L53.8945 151.92L72.3473 151.92L67.7898 194.684L58.9564 194.684Z" fill="url(#paint21_linear)"/>
<g filter="url(#filter1_f)">
<path fill-rule="evenodd" clip-rule="evenodd" d="M59.1879 138.874L68.0933 138.874L69.7155 153.226L66.5573 188.19L60.2094 188.19L56.9316 153.226L59.1879 138.874Z" fill="#0C0D0D"/>
</g>
<path fill-rule="evenodd" clip-rule="evenodd" d="M59.1879 138.874L68.0933 138.874L69.7155 153.226L66.5573 188.19L60.2094 188.19L56.9316 153.226L59.1879 138.874Z" fill="#B2B2B2"/>
<path fill-rule="evenodd" clip-rule="evenodd" d="M59.1879 138.874L68.0933 138.874L69.7155 153.226L56.9316 153.226L59.1879 138.874Z" fill="url(#paint22_linear)"/>
<path fill-rule="evenodd" clip-rule="evenodd" d="M58.1546 80.6744L56.9317 97.4632L52.1874 117.023L47.2842 117.023L53.0067 101.579L55.6445 84.0628L57.5485 80.1479L58.1546 80.6744Z" fill="url(#paint23_linear)"/>
<path fill-rule="evenodd" clip-rule="evenodd" d="M68.8278 80.6744L70.0507 97.4632L74.795 117.023L79.6982 117.023L73.9757 101.579L71.3379 84.0628L69.4339 80.148L68.8278 80.6744Z" fill="url(#paint24_linear)"/>
<defs>
<filter id="filter0_f" x="49.0039" y="92.5757" width="28.9696" height="47.9908" filterUnits="userSpaceOnUse" color-interpolation-filters="sRGB">
<feFlood flood-opacity="0" result="BackgroundImageFix"/>
<feBlend mode="normal" in="SourceGraphic" in2="BackgroundImageFix" result="shape"/>
<feGaussianBlur stdDeviation="2" result="effect1_foregroundBlur"/>
</filter>
<filter id="filter1_f" x="52.9316" y="134.874" width="20.7839" height="57.3165" filterUnits="userSpaceOnUse" color-interpolation-filters="sRGB">
<feFlood flood-opacity="0" result="BackgroundImageFix"/>
<feBlend mode="normal" in="SourceGraphic" in2="BackgroundImageFix" result="shape"/>
<feGaussianBlur stdDeviation="2" result="effect1_foregroundBlur"/>
</filter>
<linearGradient id="paint0_linear" x1="31.2852" y1="0.659668" x2="31.2852" y2="226.858" gradientUnits="userSpaceOnUse">
<stop stop-color="#010101"/>
<stop offset="0.50805" stop-color="#484848"/>
<stop offset="1" stop-color="#656A76"/>
</linearGradient>
<linearGradient id="paint1_linear" x1="30.3908" y1="139.57" x2="30.3908" y2="41.1539" gradientUnits="userSpaceOnUse">
<stop stop-color="#AC5549"/>
<stop offset="1"/>
</linearGradient>
<linearGradient id="paint2_linear" x1="30.3908" y1="139.57" x2="30.3908" y2="41.1539" gradientUnits="userSpaceOnUse">
<stop stop-color="#AC5549"/>
<stop offset="1"/>
</linearGradient>
<linearGradient id="paint3_linear" x1="8.4966" y1="146.004" x2="8.4966" y2="101.089" gradientUnits="userSpaceOnUse">
<stop stop-color="#AC5549"/>
<stop offset="1"/>
</linearGradient>
<linearGradient id="paint4_linear" x1="52.7341" y1="0.429688" x2="52.7341" y2="77.2854" gradientUnits="userSpaceOnUse">
<stop stop-color="#AC5549"/>
<stop offset="1" stop-color="#BF5C4B"/>
</linearGradient>
<linearGradient id="paint5_linear" x1="38.7164" y1="44.1123" x2="38.7164" y2="95.3187" gradientUnits="userSpaceOnUse">
<stop stop-color="#AC5549"/>
<stop offset="1" stop-color="#BF5C4B"/>
</linearGradient>
<linearGradient id="paint6_linear" x1="94.6152" y1="0.22998" x2="94.6152" y2="226.428" gradientUnits="userSpaceOnUse">
<stop stop-color="#010101"/>
<stop offset="0.50805" stop-color="#484848"/>
<stop offset="1" stop-color="#656A76"/>
</linearGradient>
<linearGradient id="paint7_linear" x1="95.5095" y1="139.141" x2="95.5095" y2="40.7242" gradientUnits="userSpaceOnUse">
<stop stop-color="#AC5549"/>
<stop offset="1"/>
</linearGradient>
<linearGradient id="paint8_linear" x1="95.5095" y1="139.141" x2="95.5095" y2="40.7242" gradientUnits="userSpaceOnUse">
<stop stop-color="#AC5549"/>
<stop offset="1"/>
</linearGradient>
<linearGradient id="paint9_linear" x1="117.404" y1="145.574" x2="117.404" y2="100.659" gradientUnits="userSpaceOnUse">
<stop stop-color="#AC5549"/>
<stop offset="1"/>
</linearGradient>
<linearGradient id="paint10_linear" x1="73.1663" y1="0" x2="73.1663" y2="76.8557" gradientUnits="userSpaceOnUse">
<stop stop-color="#AC5549"/>
<stop offset="1" stop-color="#BF5C4B"/>
</linearGradient>
<linearGradient id="paint11_linear" x1="87.1839" y1="43.6826" x2="87.1839" y2="94.889" gradientUnits="userSpaceOnUse">
<stop stop-color="#AC5549"/>
<stop offset="1" stop-color="#BF5C4B"/>
</linearGradient>
<linearGradient id="paint12_linear" x1="63.0059" y1="197.21" x2="63.14" y2="195.232" gradientUnits="userSpaceOnUse">
<stop stop-opacity="0"/>
<stop offset="1"/>
</linearGradient>
<linearGradient id="paint13_linear" x1="63.3464" y1="132.042" x2="63.3464" y2="238.978" gradientUnits="userSpaceOnUse">
<stop stop-opacity="0"/>
<stop offset="1"/>
</linearGradient>
<linearGradient id="paint14_linear" x1="63.3464" y1="132.042" x2="63.3464" y2="47.1922" gradientUnits="userSpaceOnUse">
<stop stop-color="#AC5549"/>
<stop offset="1"/>
</linearGradient>
<linearGradient id="paint15_linear" x1="66.1085" y1="97.6973" x2="60.0355" y2="97.698" gradientUnits="userSpaceOnUse">
<stop stop-color="white" stop-opacity="0"/>
<stop offset="0.457909" stop-color="white"/>
<stop offset="1" stop-color="white" stop-opacity="0"/>
</linearGradient>
<linearGradient id="paint16_linear" x1="66.1085" y1="118.083" x2="60.0355" y2="118.083" gradientUnits="userSpaceOnUse">
<stop stop-color="white" stop-opacity="0"/>
<stop offset="0.457909" stop-color="white"/>
<stop offset="1" stop-color="white" stop-opacity="0"/>
</linearGradient>
<linearGradient id="paint17_linear" x1="63.489" y1="114.673" x2="63.489" y2="117.951" gradientUnits="userSpaceOnUse">
<stop stop-opacity="0"/>
<stop offset="1"/>
</linearGradient>
<linearGradient id="paint18_linear" x1="63.489" y1="102.065" x2="63.489" y2="98.4834" gradientUnits="userSpaceOnUse">
<stop stop-opacity="0"/>
<stop offset="1"/>
</linearGradient>
<linearGradient id="paint19_linear" x1="63.3834" y1="123.19" x2="63.7759" y2="109.542" gradientUnits="userSpaceOnUse">
<stop stop-opacity="0"/>
<stop offset="1"/>
</linearGradient>
<linearGradient id="paint20_linear" x1="63.6986" y1="129.733" x2="63.6986" y2="140.583" gradientUnits="userSpaceOnUse">
<stop stop-opacity="0"/>
<stop offset="1"/>
</linearGradient>
<linearGradient id="paint21_linear" x1="63.1209" y1="151.92" x2="63.1209" y2="230.282" gradientUnits="userSpaceOnUse">
<stop stop-color="#E78180"/>
<stop offset="1" stop-color="#DF4C61"/>
</linearGradient>
<linearGradient id="paint22_linear" x1="64.544" y1="156.942" x2="64.544" y2="126.614" gradientUnits="userSpaceOnUse">
<stop stop-opacity="0"/>
<stop offset="1"/>
</linearGradient>
<linearGradient id="paint23_linear" x1="52.6332" y1="112.732" x2="59.494" y2="78.3853" gradientUnits="userSpaceOnUse">
<stop stop-opacity="0"/>
<stop offset="1"/>
</linearGradient>
<linearGradient id="paint24_linear" x1="74.3492" y1="112.732" x2="67.4884" y2="78.3853" gradientUnits="userSpaceOnUse">
<stop stop-opacity="0"/>
<stop offset="1"/>
</linearGradient>
</defs>
</svg>
