<svg width="88" height="88" viewBox="0 0 88 88" fill="none" xmlns="http://www.w3.org/2000/svg">
<circle cx="44" cy="44" r="44" fill="url(#paint0_linear)"/>
<path d="M58.5377 60.4598H63.9648V64.9824H50.397V51.4146H54.9196V57.5879C59.0578 54.2638 61.7035 49.1985 61.7035 43.5C61.7035 34.2965 54.7839 26.6759 45.8744 25.5678V21C57.294 22.1307 66.2261 31.7638 66.2261 43.5C66.2261 50.2613 63.2412 56.3216 58.5377 60.4598ZM25.5226 43.5C25.5226 37.8015 28.1683 32.7136 32.3065 29.4121V35.5854H36.8291V22.0176H23.2613V26.5402H28.6884C23.9849 30.6784 21 36.7387 21 43.5C21 55.2362 29.9322 64.8693 41.3518 66V61.4322C32.4422 60.3241 25.5226 52.7035 25.5226 43.5ZM53.201 34.7035L40.402 47.5025L34.0025 41.103L30.8141 44.2915L40.402 53.8794L56.3894 37.892L53.201 34.7035Z" fill="#FEF9F8"/>
<defs>
<linearGradient id="paint0_linear" x1="88" y1="38.8667" x2="-0.0254289" y2="39.3479" gradientUnits="userSpaceOnUse">
<stop stop-color="#3FE4FE"/>
<stop offset="1" stop-color="#0898F0"/>
</linearGradient>
</defs>
</svg>
